<?xml version="1.0" encoding="UTF-8" standalone="no"?>
<!-- Generator: Gravit.io -->
<svg xmlns="http://www.w3.org/2000/svg" xmlns:xlink="http://www.w3.org/1999/xlink" style="isolation:isolate" viewBox="0 0 500 104" width="500pt" height="104pt"><g><linearGradient id="_lgradient_33" x1="1" y1="-8.881784197001252e-16" x2="-0.12187500000000018" y2="1.4562500000000014" gradientTransform="matrix(-13.484,0,0,13.484,60.946,1.482)" gradientUnits="userSpaceOnUse"><stop offset="0%" stop-opacity="1" style="stop-color:rgb(71,254,136)"/><stop offset="100%" stop-opacity="1" style="stop-color:rgb(45,220,182)"/></linearGradient><path d=" M 60.946 14.966 C 60.946 7.524 54.904 1.482 47.462 1.482 L 47.462 14.966 L 60.946 14.966 Z " fill="url(#_lgradient_33)"/><linearGradient id="_lgradient_34" x1="1" y1="-8.881784197001252e-16" x2="-0.12187500000000018" y2="1.4562500000000014" gradientTransform="matrix(13.484,0,0,13.484,14.484,39.98)" gradientUnits="userSpaceOnUse"><stop offset="0%" stop-opacity="1" style="stop-color:rgb(71,254,136)"/><stop offset="100%" stop-opacity="1" style="stop-color:rgb(45,220,182)"/></linearGradient><path d=" M 14.484 53.464 C 14.484 46.022 20.526 39.98 27.967 39.98 L 27.967 53.464 L 14.484 53.464 Z " fill="url(#_lgradient_34)"/><linearGradient id="_lgradient_35" x1="0.04062499999999858" y1="0.9406249999999997" x2="0.9781249999999982" y2="0.059374999999999845" gradientTransform="matrix(0,13.484,13.484,0,33.978,1.482)" gradientUnits="userSpaceOnUse"><stop offset="0%" stop-opacity="1" style="stop-color:rgb(255,108,50)"/><stop offset="100%" stop-opacity="1" style="stop-color:rgb(253,55,137)"/></linearGradient><path d=" M 47.462 1.482 C 40.02 1.482 33.978 7.524 33.978 14.966 L 47.462 14.966 L 47.462 1.482 Z " fill="url(#_lgradient_35)"/><linearGradient id="_lgradient_36" x1="0.04062499999999858" y1="0.9406249999999997" x2="0.9781249999999982" y2="0.059374999999999845" gradientTransform="matrix(0,13.484,-13.484,0,14.484,39.98)" gradientUnits="userSpaceOnUse"><stop offset="0%" stop-opacity="1" style="stop-color:rgb(255,108,50)"/><stop offset="100%" stop-opacity="1" style="stop-color:rgb(253,55,137)"/></linearGradient><path d=" M 1 39.98 C 8.442 39.98 14.484 46.022 14.484 53.464 L 1 53.464 L 1 39.98 Z " fill="url(#_lgradient_36)"/><g opacity="0.25"><linearGradient id="_lgradient_37" x1="0.04062499999999858" y1="0.9406249999999997" x2="0.9781249999999982" y2="0.059374999999999845" gradientTransform="matrix(0,-13.484,13.484,0,33.978,28.449)" gradientUnits="userSpaceOnUse"><stop offset="0%" stop-opacity="1" style="stop-color:rgb(255,108,50)"/><stop offset="100%" stop-opacity="1" style="stop-color:rgb(253,55,137)"/></linearGradient><path d=" M 47.462 28.449 C 40.02 28.449 33.978 22.407 33.978 14.966 L 47.462 14.966 L 47.462 28.449 Z " fill="url(#_lgradient_37)"/></g><path d=" M 1.179 19.028 L 1 6.68 L 15.775 6.68 L 1.179 19.028 Z " fill="rgb(255,37,129)"/><g opacity="0.71"><path d=" M 31.968 12.001 L 32.128 23.047 L 18.91 23.047 L 31.968 12.001 Z " fill="rgb(255,37,129)"/></g><linearGradient id="_lgradient_38" x1="0" y1="0.5" x2="1" y2="0.5" gradientTransform="matrix(-9.306,0,0,7.777,37.274,54.984)" gradientUnits="userSpaceOnUse"><stop offset="0%" stop-opacity="1" style="stop-color:rgb(72,254,136)"/><stop offset="100%" stop-opacity="1" style="stop-color:rgb(46,220,181)"/></linearGradient><path d=" M 37.161 62.761 L 37.274 54.984 L 27.967 54.984 L 37.161 62.761 Z " fill="url(#_lgradient_38)"/><g opacity="0.42"><path d=" M 18.362 38.027 L 18.575 23.34 L 1 23.34 L 18.362 38.027 Z " fill="rgb(190,0,255)"/></g><g opacity="0.25"><linearGradient id="_lgradient_39" x1="0" y1="0.5" x2="1" y2="0.5" gradientTransform="matrix(9.306,0,0,-7.777,37.435,62.761)" gradientUnits="userSpaceOnUse"><stop offset="0%" stop-opacity="1" style="stop-color:rgb(255,109,50)"/><stop offset="100%" stop-opacity="1" style="stop-color:rgb(253,56,135)"/></linearGradient><path d=" M 37.547 54.984 L 37.435 62.761 L 46.741 62.761 L 37.547 54.984 Z " fill="url(#_lgradient_39)"/></g><path d=" M 19.092 23.34 L 18.879 38.027 L 36.454 38.027 L 19.092 23.34 Z " fill="rgb(190,0,255)"/><circle vector-effect="non-scaling-stroke" cx="52.93634200936408" cy="34.0641192098179" r="1.9611972100981703" fill="rgb(69,250,142)"/><circle vector-effect="non-scaling-stroke" cx="15.1427976332395" cy="12.000650596213534" r="1.4708979075735726" fill="rgb(255,100,63)"/><circle vector-effect="non-scaling-stroke" cx="26.990004802515458" cy="69.52910209242643" r="1.4708979075735726" fill="rgb(235,235,235)"/><circle vector-effect="non-scaling-stroke" cx="55.714704723669875" cy="45.90449188429744" r="0.8171655042075727" fill="rgb(190,0,255)"/><circle vector-effect="non-scaling-stroke" cx="38.251786387535766" cy="44.27016087588233" r="0.8171655042075727" fill="rgb(253,62,125)"/></g><g><g opacity="0.1"><linearGradient id="_lgradient_40" x1="1" y1="-8.881784197001252e-16" x2="-0.12187500000000018" y2="1.4562500000000014" gradientTransform="matrix(0,12.787,12.787,0,486.213,36.241)" gradientUnits="userSpaceOnUse"><stop offset="0%" stop-opacity="1" style="stop-color:rgb(71,254,136)"/><stop offset="100%" stop-opacity="1" style="stop-color:rgb(45,220,182)"/></linearGradient><path d=" M 499 36.241 C 491.942 36.241 486.213 41.971 486.213 49.028 L 499 49.028 L 499 36.241 Z " fill="url(#_lgradient_40)"/></g><linearGradient id="_lgradient_41" x1="0.04062499999999858" y1="0.9406249999999997" x2="0.9781249999999982" y2="0.059374999999999845" gradientTransform="matrix(0,-12.787,-12.787,0,483.655,61.816)" gradientUnits="userSpaceOnUse"><stop offset="0%" stop-opacity="1" style="stop-color:rgb(255,108,50)"/><stop offset="100%" stop-opacity="1" style="stop-color:rgb(253,55,137)"/></linearGradient><path d=" M 470.868 61.816 C 477.925 61.816 483.655 56.086 483.655 49.028 L 470.868 49.028 L 470.868 61.816 Z " fill="url(#_lgradient_41)"/><path d=" M 460.217 79.441 L 460.043 67.473 C 460.019 65.762 461.387 64.373 463.098 64.373 L 478.637 64.373 C 480.348 64.373 480.677 65.27 479.37 66.375 L 462.628 80.538 C 461.322 81.643 460.242 81.151 460.217 79.441 Z " fill="rgb(190,0,255)"/><path d=" M 498.737 61.816 L 499 79.983 L 477.261 79.983 L 498.737 61.816 Z " fill="rgb(255,37,129)"/><g opacity="0.22"><path d=" M 454.711 64.953 L 454.883 76.845 L 440.653 76.845 L 454.711 64.953 Z " fill="rgb(255,37,129)"/></g><linearGradient id="_lgradient_42" x1="0" y1="0.5" x2="1" y2="0.5" gradientTransform="matrix(-21.739,0,0,18.167,473.049,84.833)" gradientUnits="userSpaceOnUse"><stop offset="0%" stop-opacity="1" style="stop-color:rgb(72,254,136)"/><stop offset="100%" stop-opacity="1" style="stop-color:rgb(46,220,181)"/></linearGradient><path d=" M 472.786 103 L 473.049 84.833 L 451.311 84.833 L 472.786 103 Z " fill="url(#_lgradient_42)"/><g opacity="0.42"><path d=" M 437.726 91.798 L 437.928 77.869 L 421.26 77.869 L 437.726 91.798 Z " fill="rgb(190,0,255)"/></g><g opacity="0.25"><linearGradient id="_lgradient_43" x1="0" y1="0.5" x2="1" y2="0.5" gradientTransform="matrix(21.739,0,0,-18.167,473.425,103)" gradientUnits="userSpaceOnUse"><stop offset="0%" stop-opacity="1" style="stop-color:rgb(255,109,50)"/><stop offset="100%" stop-opacity="1" style="stop-color:rgb(253,56,135)"/></linearGradient><path d=" M 473.689 84.833 L 473.425 103 L 495.164 103 L 473.689 84.833 Z " fill="url(#_lgradient_43)"/></g><path d=" M 438.418 77.869 L 438.216 91.798 L 454.883 91.798 L 438.418 77.869 Z " fill="rgb(190,0,255)"/><circle vector-effect="non-scaling-stroke" cx="458.138495764183" cy="54.741127114489494" r="1.8599180726910731" fill="rgb(69,250,142)"/><circle vector-effect="non-scaling-stroke" cx="437.92765259906315" cy="46.21650261465553" r="1.3949385545182622" fill="rgb(255,100,63)"/><circle vector-effect="non-scaling-stroke" cx="449.1630523903715" cy="100.77409941359304" r="1.3949385545182622" fill="rgb(235,235,235)"/><circle vector-effect="non-scaling-stroke" cx="426.4965645180998" cy="59.54591546894137" r="0.7749658636212757" fill="rgb(190,0,255)"/><circle vector-effect="non-scaling-stroke" cx="455.5036118278709" cy="37.84687128754578" r="0.7749658636212757" fill="rgb(253,62,125)"/></g></svg>