<?xml version="1.0" encoding="UTF-8" standalone="no"?>
<!-- Generator: Gravit.io -->
<svg xmlns="http://www.w3.org/2000/svg" xmlns:xlink="http://www.w3.org/1999/xlink" style="isolation:isolate" viewBox="0 0 500 104" width="500pt" height="104pt"><g style="opacity:0.17;"><linearGradient id="_lgradient_29" x1="1" y1="-8.881784197001252e-16" x2="-0.12187500000000018" y2="1.4562500000000014" gradientTransform="matrix(-13.484,0,0,13.484,60.946,1.482)" gradientUnits="userSpaceOnUse"><stop offset="0%" stop-opacity="1" style="stop-color:rgb(71,254,136)"/><stop offset="100%" stop-opacity="1" style="stop-color:rgb(45,220,182)"/></linearGradient><path d=" M 60.946 14.966 C 60.946 7.524 54.904 1.482 47.462 1.482 L 47.462 14.966 L 60.946 14.966 Z " fill="url(#_lgradient_29)"/><linearGradient id="_lgradient_30" x1="1" y1="-8.881784197001252e-16" x2="-0.12187500000000018" y2="1.4562500000000014" gradientTransform="matrix(13.484,0,0,13.484,14.484,39.98)" gradientUnits="userSpaceOnUse"><stop offset="0%" stop-opacity="1" style="stop-color:rgb(71,254,136)"/><stop offset="100%" stop-opacity="1" style="stop-color:rgb(45,220,182)"/></linearGradient><path d=" M 14.484 53.464 C 14.484 46.022 20.526 39.98 27.967 39.98 L 27.967 53.464 L 14.484 53.464 Z " fill="url(#_lgradient_30)"/><linearGradient id="_lgradient_31" x1="0.04062499999999858" y1="0.9406249999999997" x2="0.9781249999999982" y2="0.059374999999999845" gradientTransform="matrix(0,13.484,13.484,0,33.978,1.482)" gradientUnits="userSpaceOnUse"><stop offset="0%" stop-opacity="1" style="stop-color:rgb(255,108,50)"/><stop offset="100%" stop-opacity="1" style="stop-color:rgb(253,55,137)"/></linearGradient><path d=" M 47.462 1.482 C 40.02 1.482 33.978 7.524 33.978 14.966 L 47.462 14.966 L 47.462 1.482 Z " fill="url(#_lgradient_31)"/><linearGradient id="_lgradient_32" x1="0.04062499999999858" y1="0.9406249999999997" x2="0.9781249999999982" y2="0.059374999999999845" gradientTransform="matrix(0,13.484,-13.484,0,14.484,39.98)" gradientUnits="userSpaceOnUse"><stop offset="0%" stop-opacity="1" style="stop-color:rgb(255,108,50)"/><stop offset="100%" stop-opacity="1" style="stop-color:rgb(253,55,137)"/></linearGradient><path d=" M 1 39.98 C 8.442 39.98 14.484 46.022 14.484 53.464 L 1 53.464 L 1 39.98 Z " fill="url(#_lgradient_32)"/><g opacity="0.25"><linearGradient id="_lgradient_33" x1="0.04062499999999858" y1="0.9406249999999997" x2="0.9781249999999982" y2="0.059374999999999845" gradientTransform="matrix(0,-13.484,13.484,0,33.978,28.449)" gradientUnits="userSpaceOnUse"><stop offset="0%" stop-opacity="1" style="stop-color:rgb(255,108,50)"/><stop offset="100%" stop-opacity="1" style="stop-color:rgb(253,55,137)"/></linearGradient><path d=" M 47.462 28.449 C 40.02 28.449 33.978 22.407 33.978 14.966 L 47.462 14.966 L 47.462 28.449 Z " fill="url(#_lgradient_33)"/></g><path d=" M 1.179 19.028 L 1 6.68 L 15.775 6.68 L 1.179 19.028 Z " fill="rgb(255,37,129)"/><g opacity="0.71"><path d=" M 31.968 12.001 L 32.128 23.047 L 18.91 23.047 L 31.968 12.001 Z " fill="rgb(255,37,129)"/></g><linearGradient id="_lgradient_34" x1="0" y1="0.5" x2="1" y2="0.5" gradientTransform="matrix(-9.306,0,0,7.777,37.274,54.984)" gradientUnits="userSpaceOnUse"><stop offset="0%" stop-opacity="1" style="stop-color:rgb(72,254,136)"/><stop offset="100%" stop-opacity="1" style="stop-color:rgb(46,220,181)"/></linearGradient><path d=" M 37.161 62.761 L 37.274 54.984 L 27.967 54.984 L 37.161 62.761 Z " fill="url(#_lgradient_34)"/><g opacity="0.42"><path d=" M 18.362 38.027 L 18.575 23.34 L 1 23.34 L 18.362 38.027 Z " fill="rgb(190,0,255)"/></g><g opacity="0.25"><linearGradient id="_lgradient_35" x1="0" y1="0.5" x2="1" y2="0.5" gradientTransform="matrix(9.306,0,0,-7.777,37.435,62.761)" gradientUnits="userSpaceOnUse"><stop offset="0%" stop-opacity="1" style="stop-color:rgb(255,109,50)"/><stop offset="100%" stop-opacity="1" style="stop-color:rgb(253,56,135)"/></linearGradient><path d=" M 37.547 54.984 L 37.435 62.761 L 46.741 62.761 L 37.547 54.984 Z " fill="url(#_lgradient_35)"/></g><path d=" M 19.092 23.34 L 18.879 38.027 L 36.454 38.027 L 19.092 23.34 Z " fill="rgb(190,0,255)"/><circle vector-effect="non-scaling-stroke" cx="52.93634200936408" cy="34.0641192098179" r="1.9611972100981703" fill="rgb(69,250,142)"/><circle vector-effect="non-scaling-stroke" cx="15.1427976332395" cy="12.000650596213534" r="1.4708979075735726" fill="rgb(255,100,63)"/><circle vector-effect="non-scaling-stroke" cx="26.990004802515458" cy="69.52910209242643" r="1.4708979075735726" fill="rgb(235,235,235)"/><circle vector-effect="non-scaling-stroke" cx="55.714704723669875" cy="45.90449188429744" r="0.8171655042075727" fill="rgb(190,0,255)"/><circle vector-effect="non-scaling-stroke" cx="38.251786387535766" cy="44.27016087588233" r="0.8171655042075727" fill="rgb(253,62,125)"/></g><g style="opacity:0.17;"><linearGradient id="_lgradient_36" x1="1" y1="-8.881784197001252e-16" x2="-0.12187500000000018" y2="1.4562500000000014" gradientTransform="matrix(-25.568,0,0,-25.568,177.67,115)" gradientUnits="userSpaceOnUse"><stop offset="0%" stop-opacity="1" style="stop-color:rgb(71,254,136)"/><stop offset="100%" stop-opacity="1" style="stop-color:rgb(45,220,182)"/></linearGradient><path d=" M 177.67 89.432 C 177.67 103.543 166.213 115 152.102 115 L 152.102 89.432 L 177.67 89.432 Z " fill="url(#_lgradient_36)"/><linearGradient id="_lgradient_37" x1="1" y1="-8.881784197001252e-16" x2="-0.12187500000000018" y2="1.4562500000000014" gradientTransform="matrix(25.568,0,0,-25.568,89.568,41.999)" gradientUnits="userSpaceOnUse"><stop offset="0%" stop-opacity="1" style="stop-color:rgb(71,254,136)"/><stop offset="100%" stop-opacity="1" style="stop-color:rgb(45,220,182)"/></linearGradient><path d=" M 89.568 16.431 C 89.568 30.543 101.025 41.999 115.136 41.999 L 115.136 16.431 L 89.568 16.431 Z " fill="url(#_lgradient_37)"/><linearGradient id="_lgradient_38" x1="0.04062499999999858" y1="0.9406249999999997" x2="0.9781249999999982" y2="0.059374999999999845" gradientTransform="matrix(0,-25.568,25.568,0,126.534,115)" gradientUnits="userSpaceOnUse"><stop offset="0%" stop-opacity="1" style="stop-color:rgb(255,108,50)"/><stop offset="100%" stop-opacity="1" style="stop-color:rgb(253,55,137)"/></linearGradient><path d=" M 152.102 115 C 137.991 115 126.534 103.543 126.534 89.432 L 152.102 89.432 L 152.102 115 Z " fill="url(#_lgradient_38)"/><linearGradient id="_lgradient_39" x1="0.04062499999999858" y1="0.9406249999999997" x2="0.9781249999999982" y2="0.059374999999999845" gradientTransform="matrix(0,-25.568,-25.568,0,89.568,41.999)" gradientUnits="userSpaceOnUse"><stop offset="0%" stop-opacity="1" style="stop-color:rgb(255,108,50)"/><stop offset="100%" stop-opacity="1" style="stop-color:rgb(253,55,137)"/></linearGradient><path d=" M 64 41.999 C 78.111 41.999 89.568 30.543 89.568 16.431 L 64 16.431 L 64 41.999 Z " fill="url(#_lgradient_39)"/><g opacity="0.25"><linearGradient id="_lgradient_40" x1="0.04062499999999858" y1="0.9406249999999997" x2="0.9781249999999982" y2="0.059374999999999845" gradientTransform="matrix(0,25.568,25.568,0,126.534,63.864)" gradientUnits="userSpaceOnUse"><stop offset="0%" stop-opacity="1" style="stop-color:rgb(255,108,50)"/><stop offset="100%" stop-opacity="1" style="stop-color:rgb(253,55,137)"/></linearGradient><path d=" M 152.102 63.864 C 137.991 63.864 126.534 75.32 126.534 89.432 L 152.102 89.432 L 152.102 63.864 Z " fill="url(#_lgradient_40)"/></g><path d=" M 64.339 81.728 L 64 105.142 L 92.017 105.142 L 64.339 81.728 Z " fill="rgb(255,37,129)"/><g opacity="0.71"><path d=" M 122.722 95.054 L 123.026 74.108 L 97.962 74.108 L 122.722 95.054 Z " fill="rgb(255,37,129)"/></g><linearGradient id="_lgradient_41" x1="0" y1="0.5" x2="1" y2="0.5" gradientTransform="matrix(-17.647,0,0,-14.747,132.783,13.549)" gradientUnits="userSpaceOnUse"><stop offset="0%" stop-opacity="1" style="stop-color:rgb(72,254,136)"/><stop offset="100%" stop-opacity="1" style="stop-color:rgb(46,220,181)"/></linearGradient><path d=" M 132.569 -1.198 L 132.783 13.549 L 115.136 13.549 L 132.569 -1.198 Z " fill="url(#_lgradient_41)"/><g opacity="0.42"><path d=" M 96.923 45.702 L 97.326 73.552 L 64 73.552 L 96.923 45.702 Z " fill="rgb(190,0,255)"/></g><g opacity="0.25"><linearGradient id="_lgradient_42" x1="0" y1="0.5" x2="1" y2="0.5" gradientTransform="matrix(17.647,0,0,14.747,133.088,-1.198)" gradientUnits="userSpaceOnUse"><stop offset="0%" stop-opacity="1" style="stop-color:rgb(255,109,50)"/><stop offset="100%" stop-opacity="1" style="stop-color:rgb(253,56,135)"/></linearGradient><path d=" M 133.302 13.549 L 133.088 -1.198 L 150.735 -1.198 L 133.302 13.549 Z " fill="url(#_lgradient_42)"/></g><path d=" M 98.306 73.552 L 97.903 45.702 L 131.229 45.702 L 98.306 73.552 Z " fill="rgb(190,0,255)"/><path d=" M 158.764 53.217 C 158.764 55.269 160.43 56.936 162.483 56.936 C 164.535 56.936 166.202 55.269 166.202 53.217 C 166.202 51.164 164.535 49.498 162.483 49.498 C 160.43 49.498 158.764 51.164 158.764 53.217 Z " fill="rgb(69,250,142)"/><path d=" M 88.029 95.054 C 88.029 96.593 89.279 97.843 90.818 97.843 C 92.357 97.843 93.607 96.593 93.607 95.054 C 93.607 93.515 92.357 92.265 90.818 92.265 C 89.279 92.265 88.029 93.515 88.029 95.054 Z " fill="rgb(255,100,63)"/><path d=" M 110.494 -14.033 C 110.494 -12.493 111.743 -11.244 113.283 -11.244 C 114.822 -11.244 116.072 -12.493 116.072 -14.033 C 116.072 -15.572 114.822 -16.822 113.283 -16.822 C 111.743 -16.822 110.494 -15.572 110.494 -14.033 Z " fill="rgb(235,235,235)"/><path d=" M 166.202 30.765 C 166.202 31.62 166.896 32.314 167.751 32.314 C 168.607 32.314 169.301 31.62 169.301 30.765 C 169.301 29.91 168.607 29.215 167.751 29.215 C 166.896 29.215 166.202 29.91 166.202 30.765 Z " fill="rgb(190,0,255)"/><path d=" M 133.088 33.864 C 133.088 34.719 133.782 35.413 134.638 35.413 C 135.493 35.413 136.187 34.719 136.187 33.864 C 136.187 33.009 135.493 32.314 134.638 32.314 C 133.782 32.314 133.088 33.009 133.088 33.864 Z " fill="rgb(253,62,125)"/></g><g style="opacity:0.17;"><linearGradient id="_lgradient_43" x1="1" y1="-8.881784197001252e-16" x2="-0.12187500000000018" y2="1.4562500000000014" gradientTransform="matrix(-25.568,0,0,25.568,295,5.089)" gradientUnits="userSpaceOnUse"><stop offset="0%" stop-opacity="1" style="stop-color:rgb(71,254,136)"/><stop offset="100%" stop-opacity="1" style="stop-color:rgb(45,220,182)"/></linearGradient><path d=" M 295 30.657 C 295 16.546 283.543 5.089 269.432 5.089 L 269.432 30.657 L 295 30.657 Z " fill="url(#_lgradient_43)"/><linearGradient id="_lgradient_44" x1="1" y1="-8.881784197001252e-16" x2="-0.12187500000000018" y2="1.4562500000000014" gradientTransform="matrix(25.568,0,0,25.568,206.898,78.09)" gradientUnits="userSpaceOnUse"><stop offset="0%" stop-opacity="1" style="stop-color:rgb(71,254,136)"/><stop offset="100%" stop-opacity="1" style="stop-color:rgb(45,220,182)"/></linearGradient><path d=" M 206.898 103.658 C 206.898 89.546 218.355 78.09 232.466 78.09 L 232.466 103.658 L 206.898 103.658 Z " fill="url(#_lgradient_44)"/><linearGradient id="_lgradient_45" x1="0.04062499999999858" y1="0.9406249999999997" x2="0.9781249999999982" y2="0.059374999999999845" gradientTransform="matrix(0,25.568,25.568,0,243.864,5.089)" gradientUnits="userSpaceOnUse"><stop offset="0%" stop-opacity="1" style="stop-color:rgb(255,108,50)"/><stop offset="100%" stop-opacity="1" style="stop-color:rgb(253,55,137)"/></linearGradient><path d=" M 269.432 5.089 C 255.32 5.089 243.864 16.546 243.864 30.657 L 269.432 30.657 L 269.432 5.089 Z " fill="url(#_lgradient_45)"/><linearGradient id="_lgradient_46" x1="0.04062499999999858" y1="0.9406249999999997" x2="0.9781249999999982" y2="0.059374999999999845" gradientTransform="matrix(0,25.568,-25.568,0,206.898,78.09)" gradientUnits="userSpaceOnUse"><stop offset="0%" stop-opacity="1" style="stop-color:rgb(255,108,50)"/><stop offset="100%" stop-opacity="1" style="stop-color:rgb(253,55,137)"/></linearGradient><path d=" M 181.33 78.09 C 195.441 78.09 206.898 89.546 206.898 103.658 L 181.33 103.658 L 181.33 78.09 Z " fill="url(#_lgradient_46)"/><g opacity="0.25"><linearGradient id="_lgradient_47" x1="0.04062499999999858" y1="0.9406249999999997" x2="0.9781249999999982" y2="0.059374999999999845" gradientTransform="matrix(0,-25.568,25.568,0,243.864,56.225)" gradientUnits="userSpaceOnUse"><stop offset="0%" stop-opacity="1" style="stop-color:rgb(255,108,50)"/><stop offset="100%" stop-opacity="1" style="stop-color:rgb(253,55,137)"/></linearGradient><path d=" M 269.432 56.225 C 255.32 56.225 243.864 44.769 243.864 30.657 L 269.432 30.657 L 269.432 56.225 Z " fill="url(#_lgradient_47)"/></g><path d=" M 181.669 38.361 L 181.33 14.947 L 209.347 14.947 L 181.669 38.361 Z " fill="rgb(255,37,129)"/><g opacity="0.71"><path d=" M 240.052 25.035 L 240.355 45.981 L 215.292 45.981 L 240.052 25.035 Z " fill="rgb(255,37,129)"/></g><linearGradient id="_lgradient_48" x1="0" y1="0.5" x2="1" y2="0.5" gradientTransform="matrix(-17.647,0,0,14.747,250.113,106.54)" gradientUnits="userSpaceOnUse"><stop offset="0%" stop-opacity="1" style="stop-color:rgb(72,254,136)"/><stop offset="100%" stop-opacity="1" style="stop-color:rgb(46,220,181)"/></linearGradient><path d=" M 249.899 121.287 L 250.113 106.54 L 232.466 106.54 L 249.899 121.287 Z " fill="url(#_lgradient_48)"/><g opacity="0.42"><path d=" M 214.252 74.388 L 214.656 46.537 L 181.33 46.537 L 214.252 74.388 Z " fill="rgb(190,0,255)"/></g><g opacity="0.25"><linearGradient id="_lgradient_49" x1="0" y1="0.5" x2="1" y2="0.5" gradientTransform="matrix(17.647,0,0,-14.747,250.418,121.287)" gradientUnits="userSpaceOnUse"><stop offset="0%" stop-opacity="1" style="stop-color:rgb(255,109,50)"/><stop offset="100%" stop-opacity="1" style="stop-color:rgb(253,56,135)"/></linearGradient><path d=" M 250.632 106.54 L 250.418 121.287 L 268.065 121.287 L 250.632 106.54 Z " fill="url(#_lgradient_49)"/></g><path d=" M 215.636 46.537 L 215.233 74.388 L 248.559 74.388 L 215.636 46.537 Z " fill="rgb(190,0,255)"/><circle vector-effect="non-scaling-stroke" cx="279.8127490008744" cy="66.87225519720658" r="3.718867907369088" fill="rgb(69,250,142)"/><circle vector-effect="non-scaling-stroke" cx="208.14774837655554" cy="25.03499123930476" r="2.789150930526688" fill="rgb(255,100,63)"/><circle vector-effect="non-scaling-stroke" cx="230.6126990234961" cy="134.12178318879683" r="2.789150930526688" fill="rgb(235,235,235)"/><circle vector-effect="non-scaling-stroke" cx="285.0811452029808" cy="89.32424611565541" r="1.5495282947371152" fill="rgb(190,0,255)"/><circle vector-effect="non-scaling-stroke" cx="251.96755201874157" cy="86.22518952618132" r="1.5495282947371152" fill="rgb(253,62,125)"/></g><g style="opacity:0.17;"><g opacity="0.1"><linearGradient id="_lgradient_50" x1="1" y1="-8.881784197001252e-16" x2="-0.12187500000000018" y2="1.4562500000000014" gradientTransform="matrix(0,12.787,12.787,0,486.213,36.241)" gradientUnits="userSpaceOnUse"><stop offset="0%" stop-opacity="1" style="stop-color:rgb(71,254,136)"/><stop offset="100%" stop-opacity="1" style="stop-color:rgb(45,220,182)"/></linearGradient><path d=" M 499 36.241 C 491.942 36.241 486.213 41.971 486.213 49.028 L 499 49.028 L 499 36.241 Z " fill="url(#_lgradient_50)"/></g><linearGradient id="_lgradient_51" x1="0.04062499999999858" y1="0.9406249999999997" x2="0.9781249999999982" y2="0.059374999999999845" gradientTransform="matrix(0,-12.787,-12.787,0,483.655,61.816)" gradientUnits="userSpaceOnUse"><stop offset="0%" stop-opacity="1" style="stop-color:rgb(255,108,50)"/><stop offset="100%" stop-opacity="1" style="stop-color:rgb(253,55,137)"/></linearGradient><path d=" M 470.868 61.816 C 477.925 61.816 483.655 56.086 483.655 49.028 L 470.868 49.028 L 470.868 61.816 Z " fill="url(#_lgradient_51)"/><path d=" M 460.217 79.441 L 460.043 67.473 C 460.019 65.762 461.387 64.373 463.098 64.373 L 478.637 64.373 C 480.348 64.373 480.677 65.27 479.37 66.375 L 462.628 80.538 C 461.322 81.643 460.242 81.151 460.217 79.441 Z " fill="rgb(190,0,255)"/><path d=" M 498.737 61.816 L 499 79.983 L 477.261 79.983 L 498.737 61.816 Z " fill="rgb(255,37,129)"/><g opacity="0.22"><path d=" M 454.711 64.953 L 454.883 76.845 L 440.653 76.845 L 454.711 64.953 Z " fill="rgb(255,37,129)"/></g><linearGradient id="_lgradient_52" x1="0" y1="0.5" x2="1" y2="0.5" gradientTransform="matrix(-21.739,0,0,18.167,473.049,84.833)" gradientUnits="userSpaceOnUse"><stop offset="0%" stop-opacity="1" style="stop-color:rgb(72,254,136)"/><stop offset="100%" stop-opacity="1" style="stop-color:rgb(46,220,181)"/></linearGradient><path d=" M 472.786 103 L 473.049 84.833 L 451.311 84.833 L 472.786 103 Z " fill="url(#_lgradient_52)"/><g opacity="0.42"><path d=" M 437.726 91.798 L 437.928 77.869 L 421.26 77.869 L 437.726 91.798 Z " fill="rgb(190,0,255)"/></g><g opacity="0.25"><linearGradient id="_lgradient_53" x1="0" y1="0.5" x2="1" y2="0.5" gradientTransform="matrix(21.739,0,0,-18.167,473.425,103)" gradientUnits="userSpaceOnUse"><stop offset="0%" stop-opacity="1" style="stop-color:rgb(255,109,50)"/><stop offset="100%" stop-opacity="1" style="stop-color:rgb(253,56,135)"/></linearGradient><path d=" M 473.689 84.833 L 473.425 103 L 495.164 103 L 473.689 84.833 Z " fill="url(#_lgradient_53)"/></g><path d=" M 438.418 77.869 L 438.216 91.798 L 454.883 91.798 L 438.418 77.869 Z " fill="rgb(190,0,255)"/><circle vector-effect="non-scaling-stroke" cx="458.138495764183" cy="54.741127114489494" r="1.8599180726910731" fill="rgb(69,250,142)"/><circle vector-effect="non-scaling-stroke" cx="437.92765259906315" cy="46.21650261465553" r="1.3949385545182622" fill="rgb(255,100,63)"/><circle vector-effect="non-scaling-stroke" cx="449.1630523903715" cy="100.77409941359304" r="1.3949385545182622" fill="rgb(235,235,235)"/><circle vector-effect="non-scaling-stroke" cx="426.4965645180998" cy="59.54591546894137" r="0.7749658636212757" fill="rgb(190,0,255)"/><circle vector-effect="non-scaling-stroke" cx="455.5036118278709" cy="37.84687128754578" r="0.7749658636212757" fill="rgb(253,62,125)"/></g><g style="opacity:0.17;"><g opacity="0.1"><linearGradient id="_lgradient_54" x1="1" y1="-8.881784197001252e-16" x2="-0.12187500000000018" y2="1.4562500000000014" gradientTransform="matrix(0,25.618,25.618,0,416.122,-22.742)" gradientUnits="userSpaceOnUse"><stop offset="0%" stop-opacity="1" style="stop-color:rgb(71,254,136)"/><stop offset="100%" stop-opacity="1" style="stop-color:rgb(45,220,182)"/></linearGradient><path d=" M 441.74 -22.742 C 427.601 -22.742 416.122 -11.263 416.122 2.876 L 441.74 2.876 L 441.74 -22.742 Z " fill="url(#_lgradient_54)"/></g><linearGradient id="_lgradient_55" x1="0.04062499999999858" y1="0.9406249999999997" x2="0.9781249999999982" y2="0.059374999999999845" gradientTransform="matrix(0,-25.618,-25.618,0,410.999,28.494)" gradientUnits="userSpaceOnUse"><stop offset="0%" stop-opacity="1" style="stop-color:rgb(255,108,50)"/><stop offset="100%" stop-opacity="1" style="stop-color:rgb(253,55,137)"/></linearGradient><path d=" M 385.381 28.494 C 399.52 28.494 410.999 17.015 410.999 2.876 L 385.381 2.876 L 385.381 28.494 Z " fill="url(#_lgradient_55)"/><path d=" M 364.044 63.802 L 363.696 39.827 C 363.646 36.4 366.389 33.617 369.816 33.617 L 400.946 33.617 C 404.373 33.617 405.032 35.414 402.415 37.628 L 368.875 66.001 C 366.258 68.215 364.093 67.229 364.044 63.802 Z " fill="rgb(190,0,255)"/><path d=" M 441.212 28.494 L 441.74 64.888 L 398.19 64.888 L 441.212 28.494 Z " fill="rgb(255,37,129)"/><g opacity="0.22"><path d=" M 353.014 34.779 L 353.359 58.603 L 324.85 58.603 L 353.014 34.779 Z " fill="rgb(255,37,129)"/></g><linearGradient id="_lgradient_56" x1="0" y1="0.5" x2="1" y2="0.5" gradientTransform="matrix(-43.55,0,0,36.395,389.751,74.605)" gradientUnits="userSpaceOnUse"><stop offset="0%" stop-opacity="1" style="stop-color:rgb(72,254,136)"/><stop offset="100%" stop-opacity="1" style="stop-color:rgb(46,220,181)"/></linearGradient><path d=" M 389.224 111 L 389.751 74.605 L 346.201 74.605 L 389.224 111 Z " fill="url(#_lgradient_56)"/><g opacity="0.42"><path d=" M 318.986 88.558 L 319.391 60.653 L 286 60.653 L 318.986 88.558 Z " fill="rgb(190,0,255)"/></g><g opacity="0.25"><linearGradient id="_lgradient_57" x1="0" y1="0.5" x2="1" y2="0.5" gradientTransform="matrix(43.55,0,0,-36.395,390.505,111)" gradientUnits="userSpaceOnUse"><stop offset="0%" stop-opacity="1" style="stop-color:rgb(255,109,50)"/><stop offset="100%" stop-opacity="1" style="stop-color:rgb(253,56,135)"/></linearGradient><path d=" M 391.032 74.605 L 390.505 111 L 434.055 111 L 391.032 74.605 Z " fill="url(#_lgradient_57)"/></g><path d=" M 320.373 60.653 L 319.968 88.558 L 353.359 88.558 L 320.373 60.653 Z " fill="rgb(190,0,255)"/><circle vector-effect="non-scaling-stroke" cx="359.8800774368268" cy="14.32074992409736" r="3.7260605919450995" fill="rgb(69,250,142)"/><circle vector-effect="non-scaling-stroke" cx="319.39075301267235" cy="-2.757027788984388" r="2.794545443958725" fill="rgb(255,100,63)"/><circle vector-effect="non-scaling-stroke" cx="341.89915325450204" cy="106.54074957473895" r="2.794545443958725" fill="rgb(235,235,235)"/><circle vector-effect="non-scaling-stroke" cx="296.49032129639534" cy="23.94640645328891" r="1.5525252466438246" fill="rgb(190,0,255)"/><circle vector-effect="non-scaling-stroke" cx="354.60149159823834" cy="-19.52430045273742" r="1.5525252466438246" fill="rgb(253,62,125)"/></g></svg>