<?xml version="1.0" encoding="UTF-8" standalone="no"?>
<!-- Generator: Gravit.io -->
<svg xmlns="http://www.w3.org/2000/svg" xmlns:xlink="http://www.w3.org/1999/xlink" style="isolation:isolate" viewBox="5.722 47.915 705.404 1041.085" width="705.404pt" height="1041.085pt"><path d=" M 382.767 351.125 L 382.767 351.125 Q 397.076 345.243 409.248 343.957 L 409.248 343.957 L 409.248 343.957 Q 421.419 342.671 425.093 348.596 L 425.093 348.596 L 425.093 348.596 Q 430.539 361.845 445.937 459.595 L 445.937 459.595 L 445.937 459.595 Q 461.335 557.344 471.635 633.648 L 471.635 633.648 L 471.635 633.648 Q 477.25 675.945 458.496 712.461 L 458.496 712.461 L 458.496 712.461 Q 439.742 748.977 392.574 768.365 L 392.574 768.365 L 392.574 768.365 Q 353.886 784.267 325.371 778.951 L 325.371 778.951 L 325.371 778.951 Q 296.857 773.635 279.834 757.09 L 279.834 757.09 L 279.834 757.09 Q 262.811 740.545 254.751 720.936 L 254.751 720.936 L 254.751 720.936 Q 242.117 690.198 244.029 672.994 L 244.029 672.994 L 244.029 672.994 Q 245.941 655.791 265.02 647.949 L 265.02 647.949 L 265.02 647.949 Q 283.569 640.325 296.238 641.003 L 296.238 641.003 L 296.238 641.003 Q 308.907 641.681 312.174 649.63 L 312.174 649.63 L 312.174 649.63 Q 314.353 654.93 310.666 670.075 L 310.666 670.075 L 310.666 670.075 Q 306.666 685.968 308.845 691.268 L 308.845 691.268 L 308.845 691.268 Q 319.613 715.959 334.399 721.033 L 334.399 721.033 L 334.399 721.033 Q 349.185 726.106 368.794 718.046 L 368.794 718.046 L 368.794 718.046 Q 382.573 712.383 390.983 695.916 L 390.983 695.916 L 390.983 695.916 Q 399.393 679.449 395.143 646.503 L 395.143 646.503 L 364.861 426.632 L 364.861 426.632 Q 332.809 446.621 312.51 460.54 L 312.51 460.54 L 312.51 460.54 Q 300.386 461.187 291.663 455.79 L 291.663 455.79 L 291.663 455.79 Q 282.939 450.392 278.582 439.793 L 278.582 439.793 L 278.582 439.793 Q 272.265 424.423 289.231 406.918 L 289.231 406.918 L 289.231 406.918 Q 327.614 381.229 345.495 370.472 L 345.495 370.472 L 345.495 370.472 Q 363.376 359.715 382.767 351.125 L 382.767 351.125 L 382.767 351.125 Z " fill="rgb(255,255,255)"/></svg>