<?xml version="1.0" encoding="UTF-8" standalone="no"?>
<!-- Generator: Gravit.io -->
<svg xmlns="http://www.w3.org/2000/svg" xmlns:xlink="http://www.w3.org/1999/xlink" style="isolation:isolate" viewBox="5.722 47.915 705.404 1041.085" width="705.404pt" height="1041.085pt"><path d=" M 382.767 351.125 L 382.767 351.125 Q 397.076 345.243 409.248 343.957 L 409.248 343.957 L 409.248 343.957 Q 421.419 342.671 425.093 348.596 L 425.093 348.596 L 425.093 348.596 Q 430.539 361.845 445.937 459.595 L 445.937 459.595 L 445.937 459.595 Q 461.335 557.344 471.635 633.648 L 471.635 633.648 L 471.635 633.648 Q 477.25 675.945 458.496 712.461 L 458.496 712.461 L 458.496 712.461 Q 439.742 748.977 392.574 768.365 L 392.574 768.365 L 392.574 768.365 Q 353.886 784.267 325.371 778.951 L 325.371 778.951 L 325.371 778.951 Q 296.857 773.635 279.834 757.09 L 279.834 757.09 L 279.834 757.09 Q 262.811 740.545 254.751 720.936 L 254.751 720.936 L 254.751 720.936 Q 242.117 690.198 244.029 672.994 L 244.029 672.994 L 244.029 672.994 Q 245.941 655.791 265.02 647.949 L 265.02 647.949 L 265.02 647.949 Q 283.569 640.325 296.238 641.003 L 296.238 641.003 L 296.238 641.003 Q 308.907 641.681 312.174 649.63 L 312.174 649.63 L 312.174 649.63 Q 314.353 654.93 310.666 670.075 L 310.666 670.075 L 310.666 670.075 Q 306.666 685.968 308.845 691.268 L 308.845 691.268 L 308.845 691.268 Q 319.613 715.959 334.399 721.033 L 334.399 721.033 L 334.399 721.033 Q 349.185 726.106 368.794 718.046 L 368.794 718.046 L 368.794 718.046 Q 382.573 712.383 390.983 695.916 L 390.983 695.916 L 390.983 695.916 Q 399.393 679.449 395.143 646.503 L 395.143 646.503 L 364.861 426.632 L 364.861 426.632 Q 332.809 446.621 312.51 460.54 L 312.51 460.54 L 312.51 460.54 Q 300.386 461.187 291.663 455.79 L 291.663 455.79 L 291.663 455.79 Q 282.939 450.392 278.582 439.793 L 278.582 439.793 L 278.582 439.793 Q 272.265 424.423 289.231 406.918 L 289.231 406.918 L 289.231 406.918 Q 327.614 381.229 345.495 370.472 L 345.495 370.472 L 345.495 370.472 Q 363.376 359.715 382.767 351.125 L 382.767 351.125 L 382.767 351.125 Z " fill="rgb(255,255,255)"/><clipPath id="_clipPath_dMpytKGjuIrnt7MgOFqe2Qv2nP5oyy5B"><path d=" M 382.767 351.125 L 382.767 351.125 Q 397.076 345.243 409.248 343.957 L 409.248 343.957 L 409.248 343.957 Q 421.419 342.671 425.093 348.596 L 425.093 348.596 L 425.093 348.596 Q 430.539 361.845 445.937 459.595 L 445.937 459.595 L 445.937 459.595 Q 461.335 557.344 471.635 633.648 L 471.635 633.648 L 471.635 633.648 Q 477.25 675.945 458.496 712.461 L 458.496 712.461 L 458.496 712.461 Q 439.742 748.977 392.574 768.365 L 392.574 768.365 L 392.574 768.365 Q 353.886 784.267 325.371 778.951 L 325.371 778.951 L 325.371 778.951 Q 296.857 773.635 279.834 757.09 L 279.834 757.09 L 279.834 757.09 Q 262.811 740.545 254.751 720.936 L 254.751 720.936 L 254.751 720.936 Q 242.117 690.198 244.029 672.994 L 244.029 672.994 L 244.029 672.994 Q 245.941 655.791 265.02 647.949 L 265.02 647.949 L 265.02 647.949 Q 283.569 640.325 296.238 641.003 L 296.238 641.003 L 296.238 641.003 Q 308.907 641.681 312.174 649.63 L 312.174 649.63 L 312.174 649.63 Q 314.353 654.93 310.666 670.075 L 310.666 670.075 L 310.666 670.075 Q 306.666 685.968 308.845 691.268 L 308.845 691.268 L 308.845 691.268 Q 319.613 715.959 334.399 721.033 L 334.399 721.033 L 334.399 721.033 Q 349.185 726.106 368.794 718.046 L 368.794 718.046 L 368.794 718.046 Q 382.573 712.383 390.983 695.916 L 390.983 695.916 L 390.983 695.916 Q 399.393 679.449 395.143 646.503 L 395.143 646.503 L 364.861 426.632 L 364.861 426.632 Q 332.809 446.621 312.51 460.54 L 312.51 460.54 L 312.51 460.54 Q 300.386 461.187 291.663 455.79 L 291.663 455.79 L 291.663 455.79 Q 282.939 450.392 278.582 439.793 L 278.582 439.793 L 278.582 439.793 Q 272.265 424.423 289.231 406.918 L 289.231 406.918 L 289.231 406.918 Q 327.614 381.229 345.495 370.472 L 345.495 370.472 L 345.495 370.472 Q 363.376 359.715 382.767 351.125 L 382.767 351.125 L 382.767 351.125 Z " fill="rgb(255,255,255)"/></clipPath><g clip-path="url(#_clipPath_dMpytKGjuIrnt7MgOFqe2Qv2nP5oyy5B)"><g filter="url(#1hUC0WuG6y2DB8soMNpj05FcLzNvwzE8)"><path d=" M 308.809 786.341 C 317.878 792.023 330.106 793.032 343.47 793.728 C 406.933 797.034 471.159 770.195 524.413 716.181 C 385.839 714.223 323.956 769.967 308.809 786.341 Z " fill="rgb(190,0,255)"/><path d=" M 499.679 622.183 C 504.697 610.868 509.358 599.255 513.645 587.341 C 444.057 614.798 317.319 669.184 258.338 722.179 C 215.484 760.684 202.337 799.415 199.699 828.031 L 199.699 828.031 C 229.916 745.938 335.033 722.584 404.247 710.58 C 442.781 703.896 477.656 671.829 499.679 622.183 Z " fill="rgb(255,37,129)"/><linearGradient id="_lgradient_1" x1="0" y1="0.5" x2="1" y2="0.5" gradientTransform="matrix(362.089,0,0,679.432,158.008,379.568)" gradientUnits="userSpaceOnUse"><stop offset="0%" stop-opacity="1" style="stop-color:rgb(255,110,48)"/><stop offset="100%" stop-opacity="1" style="stop-color:rgb(253,52,142)"/></linearGradient><path d=" M 280.526 732.416 C 340.893 666.297 404.868 612.056 458.178 575.493 C 492.967 551.633 518.133 473.396 520.061 381.299 C 520.074 380.722 520.086 380.145 520.097 379.568 C 520.097 379.568 393.232 482.297 314.803 569.909 C 278.833 610.091 242.344 658.026 212.886 724.406 C 181.83 794.381 147.866 886.408 160.85 1059 C 164.856 955.85 201.811 818.631 280.526 732.416 Z " fill="url(#_lgradient_1)"/><linearGradient id="_lgradient_2" x1="0" y1="0.5" x2="1" y2="0.5" gradientTransform="matrix(482.917,0,0,669.295,152.083,92)" gradientUnits="userSpaceOnUse"><stop offset="0%" stop-opacity="1" style="stop-color:rgb(18,170,243)"/><stop offset="100%" stop-opacity="1" style="stop-color:rgb(44,218,184)"/></linearGradient><path d=" M 635 92 C 520.488 202.716 405.973 313.43 291.459 424.145 C 254.944 459.45 223.049 503.568 193.519 552.184 C 151.16 621.925 151.807 712.69 152.152 761.295 C 168.787 635.959 204.497 587.606 369.351 467.466 C 407.97 439.323 447.762 415.554 487.001 389.568 C 575.871 330.714 614.846 217.19 635 92 Z " fill="url(#_lgradient_2)"/></g><defs><filter id="1hUC0WuG6y2DB8soMNpj05FcLzNvwzE8" x="-200%" y="-200%" width="400%" height="400%" filterUnits="objectBoundingBox" color-interpolation-filters="sRGB"><feGaussianBlur xmlns="http://www.w3.org/2000/svg" stdDeviation="21.46804531419514"/></filter></defs></g></svg>