<?xml version="1.0" encoding="UTF-8" standalone="no"?><!-- Generator: Gravit.io --><svg xmlns="http://www.w3.org/2000/svg" xmlns:xlink="http://www.w3.org/1999/xlink" style="isolation:isolate" viewBox="0 0 1024 1024" width="1024pt" height="1024pt"><g><g><path d=" M 399.792 672.175 C 411.506 676.893 427.299 677.73 444.56 678.307 C 526.528 681.052 609.481 658.771 678.263 613.93 C 499.282 612.304 419.356 658.582 399.792 672.175 Z " fill="rgb(190,0,255)"/><path d=" M 775.474 502.686 C 781.956 493.293 787.976 483.652 793.513 473.761 C 703.634 496.555 539.942 541.706 463.763 585.702 C 408.413 617.668 391.432 649.821 388.025 673.578 L 388.025 673.578 C 427.054 605.426 562.821 586.038 652.216 576.073 C 701.986 570.524 747.03 543.902 775.474 502.686 Z " fill="rgb(255,37,129)"/><linearGradient id="_lgradient_0" x1="0" y1="0.5" x2="1" y2="0.5" gradientTransform="matrix(467.668,0,0,342.67,372.926,327.301)" gradientUnits="userSpaceOnUse"><stop offset="0%" stop-opacity="1" style="stop-color:rgb(255,110,48)"/><stop offset="100%" stop-opacity="1" style="stop-color:rgb(253,52,142)"/></linearGradient><path d=" M 531.168 505.259 C 609.137 471.912 691.766 444.556 760.62 426.115 C 805.552 414.082 838.056 374.623 840.547 328.174 C 840.564 327.883 840.579 327.592 840.593 327.301 C 840.593 327.301 676.737 379.113 575.44 423.299 C 528.981 443.565 481.853 467.741 443.805 501.219 C 403.694 536.511 359.827 582.924 376.596 669.971 C 381.77 617.947 429.501 548.742 531.168 505.259 Z " fill="url(#_lgradient_0)"/><linearGradient id="_lgradient_1" x1="0" y1="0.5" x2="1" y2="0.5" gradientTransform="matrix(623.727,0,0,555.638,365.273,29.33)" gradientUnits="userSpaceOnUse"><stop offset="0%" stop-opacity="1" style="stop-color:rgb(18,170,243)"/><stop offset="100%" stop-opacity="1" style="stop-color:rgb(44,218,184)"/></linearGradient><path d=" M 989 29.33 C 841.098 121.245 693.193 213.158 545.289 305.071 C 498.127 334.381 456.931 371.007 418.792 411.367 C 364.08 469.265 364.916 544.616 365.363 584.967 C 386.848 480.916 432.97 440.774 645.893 341.036 C 695.772 317.672 747.167 297.939 797.847 276.366 C 912.63 227.506 962.969 133.26 989 29.33 Z " fill="url(#_lgradient_1)"/></g><path d=" M 242.433 354.178 L 242.433 354.178 Q 263.789 345.4 281.954 343.481 L 281.954 343.481 L 281.954 343.481 Q 300.12 341.562 305.603 350.403 L 305.603 350.403 L 305.603 350.403 Q 313.731 370.177 336.711 516.063 L 336.711 516.063 L 336.711 516.063 Q 359.692 661.948 375.064 775.826 L 375.064 775.826 L 375.064 775.826 Q 383.444 838.952 355.454 893.45 L 355.454 893.45 L 355.454 893.45 Q 327.465 947.948 257.07 976.883 L 257.07 976.883 L 257.07 976.883 Q 199.33 1000.616 156.774 992.682 L 156.774 992.682 L 156.774 992.682 Q 114.217 984.748 88.812 960.056 L 88.812 960.056 L 88.812 960.056 Q 63.407 935.364 51.378 906.099 L 51.378 906.099 L 51.378 906.099 Q 32.522 860.223 35.375 834.549 L 35.375 834.549 L 35.375 834.549 Q 38.228 808.874 66.703 797.17 L 66.703 797.17 L 66.703 797.17 Q 94.386 785.791 113.294 786.803 L 113.294 786.803 L 113.294 786.803 Q 132.202 787.815 137.078 799.679 L 137.078 799.679 L 137.078 799.679 Q 140.33 807.589 134.827 830.192 L 134.827 830.192 L 134.827 830.192 Q 128.858 853.911 132.109 861.82 L 132.109 861.82 L 132.109 861.82 Q 148.18 898.67 170.247 906.243 L 170.247 906.243 L 170.247 906.243 Q 192.314 913.815 221.579 901.786 L 221.579 901.786 L 221.579 901.786 Q 242.144 893.333 254.695 868.758 L 254.695 868.758 L 254.695 868.758 Q 267.246 844.182 260.904 795.012 L 260.904 795.012 L 215.71 466.867 L 215.71 466.867 Q 167.874 496.7 137.58 517.474 L 137.58 517.474 L 137.58 517.474 Q 119.485 518.439 106.466 510.384 L 106.466 510.384 L 106.466 510.384 Q 93.447 502.329 86.944 486.51 L 86.944 486.51 L 86.944 486.51 Q 77.516 463.572 102.837 437.446 L 102.837 437.446 L 102.837 437.446 Q 160.12 399.107 186.807 383.053 L 186.807 383.053 L 186.807 383.053 Q 213.493 366.998 242.433 354.178 L 242.433 354.178 Z " fill="rgb(255,255,255)"/></g></svg>