<?xml version="1.0" encoding="UTF-8" standalone="no"?>
<!-- Generator: Gravit.io -->
<svg xmlns="http://www.w3.org/2000/svg" xmlns:xlink="http://www.w3.org/1999/xlink" style="isolation:isolate" viewBox="0 0 512 151" width="512pt" height="151pt"><g><g><g><path d=" M 83.626 97.172 C 85.088 97.761 87.06 97.866 89.215 97.938 C 99.451 98.281 109.81 95.498 118.401 89.898 C 96.049 89.695 86.069 95.475 83.626 97.172 Z " fill="rgb(190,0,255)"/><path d=" M 130.539 76.006 C 131.35 74.833 132.102 73.63 132.793 72.394 C 121.569 75.241 101.127 80.879 91.613 86.373 C 84.701 90.365 82.582 94.38 82.155 97.347 L 82.155 97.347 C 87.03 88.836 103.985 86.415 115.147 85.171 C 121.363 84.478 126.988 81.153 130.539 76.006 Z " fill="rgb(255,37,129)"/><linearGradient id="_lgradient_0" x1="0.000006615239355189928" y1="0.5" x2="1.000019261193879" y2="0.5" gradientTransform="matrix(58.401,0,0,42.792,80.27,54.105)" gradientUnits="userSpaceOnUse"><stop offset="0%" stop-opacity="1" style="stop-color:rgb(255,110,48)"/><stop offset="100%" stop-opacity="1" style="stop-color:rgb(253,52,142)"/></linearGradient><path d=" M 100.031 76.328 C 109.767 72.163 120.086 68.747 128.684 66.444 C 134.296 64.942 138.356 60.014 138.666 54.214 C 138.668 54.177 138.671 54.141 138.671 54.105 C 138.671 54.105 118.21 60.575 105.559 66.093 C 99.758 68.623 93.873 71.643 89.122 75.823 C 84.113 80.23 78.635 86.026 80.728 96.897 C 81.375 90.4 87.335 81.758 100.031 76.328 Z " fill="url(#_lgradient_0)"/><linearGradient id="_lgradient_1" x1="0.000003567748898980483" y1="0.4999936939981904" x2="1.0000000000000002" y2="0.4999936939981904" gradientTransform="matrix(77.89,0,0,69.388,79.314,16.894)" gradientUnits="userSpaceOnUse"><stop offset="0%" stop-opacity="1" style="stop-color:rgb(72,255,135)"/><stop offset="100%" stop-opacity="1" style="stop-color:rgb(44,218,184)"/></linearGradient><path d=" M 157.205 16.894 C 138.735 28.373 120.265 39.851 101.794 51.329 C 95.905 54.989 90.761 59.563 85.998 64.603 C 79.166 71.833 79.269 81.243 79.325 86.282 C 82.008 73.288 87.768 68.275 114.358 55.82 C 120.586 52.902 127.004 50.438 133.334 47.744 C 147.668 41.642 153.955 29.873 157.205 16.894 Z " fill="url(#_lgradient_1)"/></g><path d=" M 77.339 87.516 L 76.621 89.769 L 76.621 89.769 Q 74.608 89.242 72.618 88.738 L 72.618 88.738 L 72.618 88.738 Q 70.629 88.235 68.568 87.804 L 68.568 87.804 L 68.568 87.804 Q 66.124 92.788 63.391 97.582 L 63.391 97.582 L 63.391 97.582 Q 60.66 102.375 57.592 107.024 L 57.592 107.024 L 57.592 107.024 Q 55.243 110.571 52.343 113.974 L 52.343 113.974 L 52.343 113.974 Q 49.444 117.377 46.208 120.373 L 46.208 120.373 L 46.208 120.373 Q 42.973 123.369 39.497 125.885 L 39.497 125.885 L 39.497 125.885 Q 36.023 128.402 32.499 130.247 L 32.499 130.247 L 32.499 130.247 Q 28.977 132.093 25.502 133.099 L 25.502 133.099 L 25.502 133.099 Q 22.026 134.106 18.766 134.106 L 18.766 134.106 L 18.766 134.106 Q 15.844 134.106 12.872 133.075 L 12.872 133.075 L 12.872 133.075 Q 9.9 132.045 7.526 129.984 L 7.526 129.984 L 7.526 129.984 Q 5.154 127.922 3.669 124.831 L 3.669 124.831 L 3.669 124.831 Q 2.183 121.739 2.183 117.569 L 2.183 117.569 L 2.183 117.569 Q 2.183 115.412 2.686 113.016 L 2.686 113.016 L 2.686 113.016 Q 3.189 110.619 4.34 108.079 L 4.34 108.079 L 4.34 108.079 Q 5.49 105.538 7.312 102.878 L 7.312 102.878 L 7.312 102.878 Q 9.132 100.218 11.769 97.438 L 11.769 97.438 L 11.769 97.438 Q 15.268 93.747 19.606 91.063 L 19.606 91.063 L 19.606 91.063 Q 23.943 88.379 28.832 86.629 L 28.832 86.629 L 28.832 86.629 Q 33.722 84.88 39.043 84.041 L 39.043 84.041 L 39.043 84.041 Q 44.363 83.202 49.827 83.202 L 49.827 83.202 L 49.827 83.202 Q 53.421 83.202 56.993 83.538 L 56.993 83.538 L 56.993 83.538 Q 60.564 83.873 64.159 84.496 L 64.159 84.496 L 64.159 84.496 Q 66.698 79.224 68.76 73.999 L 68.76 73.999 L 68.76 73.999 Q 70.821 68.775 72.354 63.694 L 72.354 63.694 L 72.354 63.694 Q 74.655 55.929 75.661 50.225 L 75.661 50.225 L 75.661 50.225 Q 76.669 44.521 76.669 40.351 L 76.669 40.351 L 76.669 40.351 Q 76.669 36.804 76.094 34.24 L 76.094 34.24 L 76.094 34.24 Q 75.518 31.676 74.608 29.878 L 74.608 29.878 L 74.608 29.878 Q 73.696 28.081 72.499 26.954 L 72.499 26.954 L 72.499 26.954 Q 71.3 25.828 70.077 25.229 L 70.077 25.229 L 70.077 25.229 Q 68.855 24.63 67.682 24.414 L 67.682 24.414 L 67.682 24.414 Q 66.506 24.198 65.597 24.198 L 65.597 24.198 L 65.597 24.198 Q 61.761 24.198 58.741 26.02 L 58.741 26.02 L 58.741 26.02 Q 55.723 27.841 53.638 31.148 L 53.638 31.148 L 53.638 31.148 Q 51.552 34.456 50.449 39.129 L 50.449 39.129 L 50.449 39.129 Q 49.348 43.802 49.348 49.506 L 49.348 49.506 L 49.348 49.506 Q 49.348 53.964 50.114 57.75 L 50.114 57.75 L 50.114 57.75 Q 50.882 61.537 52.031 64.653 L 52.031 64.653 L 52.031 64.653 Q 53.182 67.768 54.548 70.165 L 54.548 70.165 L 54.548 70.165 Q 55.913 72.561 57.088 74.191 L 57.088 74.191 L 57.088 74.191 Q 58.263 75.821 59.03 76.683 L 59.03 76.683 L 59.03 76.683 Q 59.796 77.546 59.844 77.546 L 59.844 77.546 L 58.358 79.08 L 58.358 79.08 Q 55.291 76.444 52.606 73.232 L 52.606 73.232 L 52.606 73.232 Q 49.923 70.021 47.958 66.33 L 47.958 66.33 L 47.958 66.33 Q 45.993 62.639 44.842 58.493 L 44.842 58.493 L 44.842 58.493 Q 43.691 54.347 43.691 49.794 L 43.691 49.794 L 43.691 49.794 Q 43.691 44.617 45.177 39.584 L 45.177 39.584 L 45.177 39.584 Q 46.663 34.551 49.491 30.549 L 49.491 30.549 L 49.491 30.549 Q 52.32 26.547 56.441 24.102 L 56.441 24.102 L 56.441 24.102 Q 60.564 21.658 65.835 21.658 L 65.835 21.658 L 65.835 21.658 Q 67.034 21.658 68.615 21.897 L 68.615 21.897 L 68.615 21.897 Q 70.197 22.137 71.876 22.88 L 71.876 22.88 L 71.876 22.88 Q 73.553 23.623 75.207 24.965 L 75.207 24.965 L 75.207 24.965 Q 76.861 26.307 78.13 28.536 L 78.13 28.536 L 78.13 28.536 Q 79.401 30.765 80.192 34 L 80.192 34 L 80.192 34 Q 80.983 37.236 80.983 41.741 L 80.983 41.741 L 80.983 41.741 Q 80.983 43.802 80.791 46.127 L 80.791 46.127 L 80.791 46.127 Q 80.599 48.452 80.215 51.136 L 80.215 51.136 L 80.215 51.136 Q 78.874 60.051 76.19 68.655 L 76.19 68.655 L 76.19 68.655 Q 73.504 77.259 69.623 85.599 L 69.623 85.599 L 69.623 85.599 Q 71.636 86.03 73.553 86.509 L 73.553 86.509 L 73.553 86.509 Q 75.471 86.989 77.339 87.516 L 77.339 87.516 Z  M 18.718 131.613 L 18.718 131.613 L 18.718 131.613 Q 22.314 131.805 26.196 130.223 L 26.196 130.223 L 26.196 130.223 Q 30.078 128.641 34.009 125.646 L 34.009 125.646 L 34.009 125.646 Q 37.939 122.65 41.847 118.432 L 41.847 118.432 L 41.847 118.432 Q 45.752 114.214 49.467 109.181 L 49.467 109.181 L 49.467 109.181 Q 53.182 104.148 56.609 98.492 L 56.609 98.492 L 56.609 98.492 Q 60.037 92.836 63.008 86.893 L 63.008 86.893 L 63.008 86.893 Q 60.564 86.557 58.142 86.366 L 58.142 86.366 L 58.142 86.366 Q 55.723 86.174 53.182 86.174 L 53.182 86.174 L 53.182 86.174 Q 45.704 86.174 39.354 87.852 L 39.354 87.852 L 39.354 87.852 Q 33.002 89.529 27.803 92.309 L 27.803 92.309 L 27.803 92.309 Q 22.602 95.089 18.623 98.684 L 18.623 98.684 L 18.623 98.684 Q 14.644 102.279 11.96 106.09 L 11.96 106.09 L 11.96 106.09 Q 9.276 109.9 7.886 113.663 L 7.886 113.663 L 7.886 113.663 Q 6.497 117.425 6.497 120.541 L 6.497 120.541 L 6.497 120.541 Q 6.497 122.985 7.335 125.023 L 7.335 125.023 L 7.335 125.023 Q 8.174 127.06 9.731 128.522 L 9.731 128.522 L 9.731 128.522 Q 11.29 129.984 13.566 130.798 L 13.566 130.798 L 13.566 130.798 Q 15.844 131.613 18.718 131.613 Z " fill="rgb(0,0,0)"/></g></g><line x1="160.692" y1="113.607" x2="160.692" y2="37.393" vector-effect="non-scaling-stroke" stroke-width="1" stroke="rgb(96,96,96)" stroke-opacity="100" stroke-linejoin="miter" stroke-linecap="square" stroke-miterlimit="3"/><linearGradient id="_lgradient_2" x1="0.4436648178653881" y1="1.1076129904185978" x2="0.5974752403672374" y2="-0.049119319495168234" gradientTransform="matrix(331.992,0,0,43.262,177.826,53.625)" gradientUnits="userSpaceOnUse"><stop offset="2.083333333333333%" stop-opacity="1" style="stop-color:rgb(74,86,104)"/><stop offset="52.916666666666664%" stop-opacity="1" style="stop-color:rgb(142,142,142)"/><stop offset="100%" stop-opacity="1" style="stop-color:rgb(0,0,0)"/></linearGradient><path d=" M 384.076 62.336 L 384.076 62.336 L 384.076 62.336 Q 383.548 62.336 382.845 62.551 L 382.845 62.551 L 382.845 62.551 Q 382.142 62.766 381.409 63.361 L 381.409 63.361 L 381.409 63.361 Q 380.677 63.957 379.974 65.031 L 379.974 65.031 L 379.974 65.031 Q 379.271 66.105 378.715 67.814 L 378.715 67.814 L 378.715 67.814 Q 378.158 69.523 377.815 71.965 L 377.815 71.965 L 377.815 71.965 Q 377.474 74.406 377.474 77.727 L 377.474 77.727 L 377.474 77.727 Q 377.474 80.891 377.815 83.215 L 377.815 83.215 L 377.815 83.215 Q 378.158 85.539 378.733 87.17 L 378.733 87.17 L 378.733 87.17 Q 379.31 88.801 380.052 89.836 L 380.052 89.836 L 380.052 89.836 Q 380.794 90.871 381.615 91.447 L 381.615 91.447 L 381.615 91.447 Q 382.435 92.023 383.255 92.238 L 383.255 92.238 L 383.255 92.238 Q 384.076 92.453 384.798 92.453 L 384.798 92.453 L 384.798 92.453 Q 385.56 92.453 386.341 92.258 L 386.341 92.258 L 386.341 92.258 Q 387.123 92.062 387.874 91.691 L 387.874 91.691 L 387.874 91.691 Q 388.627 91.32 389.319 90.793 L 389.319 90.793 L 389.319 90.793 Q 390.013 90.266 390.599 89.582 L 390.599 89.582 L 391.478 90.461 L 391.478 90.461 Q 390.892 91.184 390.072 91.936 L 390.072 91.936 L 390.072 91.936 Q 389.252 92.687 388.167 93.303 L 388.167 93.303 L 388.167 93.303 Q 387.084 93.918 385.736 94.309 L 385.736 94.309 L 385.736 94.309 Q 384.388 94.699 382.748 94.699 L 382.748 94.699 L 382.748 94.699 Q 380.189 94.699 377.991 93.723 L 377.991 93.723 L 377.991 93.723 Q 375.794 92.746 374.163 90.686 L 374.163 90.686 L 374.163 90.686 Q 372.533 88.625 371.604 85.402 L 371.604 85.402 L 371.604 85.402 Q 370.677 82.18 370.677 77.687 L 370.677 77.687 L 370.677 77.687 Q 370.677 73.469 371.654 70.285 L 371.654 70.285 L 371.654 70.285 Q 372.63 67.102 374.31 64.963 L 374.31 64.963 L 374.31 64.963 Q 375.99 62.824 378.255 61.74 L 378.255 61.74 L 378.255 61.74 Q 380.521 60.656 383.08 60.656 L 383.08 60.656 L 383.08 60.656 Q 384.779 60.656 386.176 60.979 L 386.176 60.979 L 386.176 60.979 Q 387.572 61.301 388.587 61.916 L 388.587 61.916 L 388.587 61.916 Q 389.603 62.531 390.159 63.439 L 390.159 63.439 L 390.159 63.439 Q 390.716 64.348 390.716 65.5 L 390.716 65.5 L 390.716 65.5 Q 390.716 66.027 390.541 66.604 L 390.541 66.604 L 390.541 66.604 Q 390.365 67.18 390.004 67.658 L 390.004 67.658 L 390.004 67.658 Q 389.642 68.137 389.115 68.439 L 389.115 68.439 L 389.115 68.439 Q 388.587 68.742 387.884 68.742 L 387.884 68.742 L 387.884 68.742 Q 387.259 68.742 386.917 68.469 L 386.917 68.469 L 386.917 68.469 Q 386.576 68.195 386.409 67.746 L 386.409 67.746 L 386.409 67.746 Q 386.244 67.297 386.194 66.721 L 386.194 66.721 L 386.194 66.721 Q 386.146 66.145 386.127 65.539 L 386.127 65.539 L 386.127 65.539 Q 386.107 64.934 386.038 64.357 L 386.038 64.357 L 386.038 64.357 Q 385.97 63.781 385.766 63.332 L 385.766 63.332 L 385.766 63.332 Q 385.56 62.883 385.169 62.609 L 385.169 62.609 L 385.169 62.609 Q 384.779 62.336 384.076 62.336 Z  M 399.544 73.703 L 399.544 73.703 L 399.544 73.703 Q 400.287 72.57 401.127 71.652 L 401.127 71.652 L 401.127 71.652 Q 401.478 71.262 401.888 70.891 L 401.888 70.891 L 401.888 70.891 Q 402.298 70.52 402.737 70.227 L 402.737 70.227 L 402.737 70.227 Q 403.177 69.934 403.646 69.758 L 403.646 69.758 L 403.646 69.758 Q 404.115 69.582 404.584 69.582 L 404.584 69.582 L 404.584 69.582 Q 405.58 69.582 406.146 70.178 L 406.146 70.178 L 406.146 70.178 Q 406.712 70.773 406.712 71.848 L 406.712 71.848 L 406.712 71.848 Q 406.712 72.512 406.604 73.127 L 406.604 73.127 L 406.604 73.127 Q 406.498 73.742 406.185 74.621 L 406.185 74.621 L 405.638 74.621 L 405.638 74.621 Q 405.521 74.016 405.091 73.615 L 405.091 73.615 L 405.091 73.615 Q 404.662 73.215 403.841 73.215 L 403.841 73.215 L 403.841 73.215 Q 403.236 73.215 402.65 73.439 L 402.65 73.439 L 402.65 73.439 Q 402.064 73.664 401.508 73.996 L 401.508 73.996 L 401.508 73.996 Q 400.951 74.328 400.452 74.719 L 400.452 74.719 L 400.452 74.719 Q 399.955 75.109 399.544 75.461 L 399.544 75.461 L 399.544 88.137 L 399.544 88.137 Q 399.544 88.391 399.466 88.742 L 399.466 88.742 L 399.466 88.742 Q 399.388 89.094 399.086 89.406 L 399.086 89.406 L 399.086 89.406 Q 398.783 89.719 398.186 89.943 L 398.186 89.943 L 398.186 89.943 Q 397.591 90.168 396.556 90.168 L 396.556 90.168 L 396.556 90.168 Q 395.521 90.168 394.926 89.924 L 394.926 89.924 L 394.926 89.924 Q 394.33 89.68 394.017 89.348 L 394.017 89.348 L 394.017 89.348 Q 393.705 89.016 393.627 88.664 L 393.627 88.664 L 393.627 88.664 Q 393.548 88.312 393.548 88.098 L 393.548 88.098 L 393.548 73.02 L 393.548 73.02 Q 393.548 72.453 393.284 72.033 L 393.284 72.033 L 393.284 72.033 Q 393.021 71.613 392.396 71.613 L 392.396 71.613 L 392.396 71.613 Q 392.064 71.613 391.83 71.73 L 391.83 71.73 L 391.83 71.73 Q 391.595 71.848 391.322 72.062 L 391.322 72.062 L 390.912 71.574 L 390.912 71.574 Q 391.361 71.203 391.917 70.842 L 391.917 70.842 L 391.917 70.842 Q 392.474 70.48 393.119 70.207 L 393.119 70.207 L 393.119 70.207 Q 393.763 69.934 394.505 69.758 L 394.505 69.758 L 394.505 69.758 Q 395.248 69.582 396.068 69.582 L 396.068 69.582 L 396.068 69.582 Q 396.908 69.582 397.504 69.807 L 397.504 69.807 L 397.504 69.807 Q 398.099 70.031 398.479 70.393 L 398.479 70.393 L 398.479 70.393 Q 398.861 70.754 399.076 71.203 L 399.076 71.203 L 399.076 71.203 Q 399.291 71.652 399.397 72.111 L 399.397 72.111 L 399.397 72.111 Q 399.505 72.57 399.525 72.99 L 399.525 72.99 L 399.525 72.99 Q 399.544 73.41 399.544 73.703 Z  M 421.146 76.34 L 413.431 80.891 L 413.431 80.891 Q 413.431 81.516 413.616 82.248 L 413.616 82.248 L 413.616 82.248 Q 413.802 82.98 414.154 83.723 L 414.154 83.723 L 414.154 83.723 Q 414.505 84.465 415.022 85.139 L 415.022 85.139 L 415.022 85.139 Q 415.541 85.812 416.215 86.34 L 416.215 86.34 L 416.215 86.34 Q 416.888 86.867 417.709 87.18 L 417.709 87.18 L 417.709 87.18 Q 418.529 87.492 419.505 87.492 L 419.505 87.492 L 419.505 87.492 Q 420.189 87.492 420.775 87.336 L 420.775 87.336 L 420.775 87.336 Q 421.361 87.18 421.869 86.906 L 421.869 86.906 L 421.869 86.906 Q 422.377 86.633 422.845 86.271 L 422.845 86.271 L 422.845 86.271 Q 423.314 85.91 423.783 85.5 L 423.783 85.5 L 424.271 85.969 L 424.271 85.969 Q 423.822 86.574 423.119 87.297 L 423.119 87.297 L 423.119 87.297 Q 422.416 88.02 421.419 88.654 L 421.419 88.654 L 421.419 88.654 Q 420.423 89.289 419.095 89.709 L 419.095 89.709 L 419.095 89.709 Q 417.767 90.129 416.068 90.129 L 416.068 90.129 L 416.068 90.129 Q 414.369 90.129 412.758 89.514 L 412.758 89.514 L 412.758 89.514 Q 411.146 88.898 409.896 87.668 L 409.896 87.668 L 409.896 87.668 Q 408.646 86.437 407.895 84.602 L 407.895 84.602 L 407.895 84.602 Q 407.142 82.766 407.142 80.305 L 407.142 80.305 L 407.142 80.305 Q 407.142 78.527 407.591 77.043 L 407.591 77.043 L 407.591 77.043 Q 408.041 75.559 408.811 74.367 L 408.811 74.367 L 408.811 74.367 Q 409.584 73.176 410.608 72.277 L 410.608 72.277 L 410.608 72.277 Q 411.634 71.379 412.767 70.783 L 412.767 70.783 L 412.767 70.783 Q 413.9 70.187 415.081 69.885 L 415.081 69.885 L 415.081 69.885 Q 416.263 69.582 417.357 69.582 L 417.357 69.582 L 417.357 69.582 Q 418.802 69.582 419.877 69.895 L 419.877 69.895 L 419.877 69.895 Q 420.951 70.207 421.663 70.734 L 421.663 70.734 L 421.663 70.734 Q 422.377 71.262 422.728 71.955 L 422.728 71.955 L 422.728 71.955 Q 423.08 72.648 423.08 73.41 L 423.08 73.41 L 423.08 73.41 Q 423.08 74.328 422.552 75.061 L 422.552 75.061 L 422.552 75.061 Q 422.025 75.793 421.146 76.34 L 421.146 76.34 L 421.146 76.34 Z  M 413.236 79.289 L 417.357 76.926 L 417.357 76.926 Q 417.611 76.77 417.776 76.623 L 417.776 76.623 L 417.776 76.623 Q 417.943 76.477 418.041 76.271 L 418.041 76.271 L 418.041 76.271 Q 418.138 76.066 418.186 75.764 L 418.186 75.764 L 418.186 75.764 Q 418.236 75.461 418.236 75.012 L 418.236 75.012 L 418.236 75.012 Q 418.236 74.523 418.129 73.928 L 418.129 73.928 L 418.129 73.928 Q 418.021 73.332 417.767 72.805 L 417.767 72.805 L 417.767 72.805 Q 417.513 72.277 417.123 71.926 L 417.123 71.926 L 417.123 71.926 Q 416.732 71.574 416.185 71.574 L 416.185 71.574 L 416.185 71.574 Q 415.482 71.574 414.983 71.994 L 414.983 71.994 L 414.983 71.994 Q 414.486 72.414 414.163 73.078 L 414.163 73.078 L 414.163 73.078 Q 413.841 73.742 413.655 74.592 L 413.655 74.592 L 413.655 74.592 Q 413.47 75.441 413.373 76.301 L 413.373 76.301 L 413.373 76.301 Q 413.275 77.16 413.255 77.951 L 413.255 77.951 L 413.255 77.951 Q 413.236 78.742 413.236 79.289 L 413.236 79.289 L 413.236 79.289 Z  M 435.697 84.504 L 435.697 79.738 L 435.697 79.738 Q 435.697 79.25 435.384 78.996 L 435.384 78.996 L 435.384 78.996 Q 435.072 78.742 434.584 78.742 L 434.584 78.742 L 434.584 78.742 Q 433.9 78.742 433.284 79.055 L 433.284 79.055 L 433.284 79.055 Q 432.669 79.367 432.201 79.973 L 432.201 79.973 L 432.201 79.973 Q 431.732 80.578 431.459 81.467 L 431.459 81.467 L 431.459 81.467 Q 431.185 82.355 431.185 83.527 L 431.185 83.527 L 431.185 83.527 Q 431.185 84.66 431.352 85.402 L 431.352 85.402 L 431.352 85.402 Q 431.517 86.145 431.801 86.584 L 431.801 86.584 L 431.801 86.584 Q 432.084 87.023 432.455 87.199 L 432.455 87.199 L 432.455 87.199 Q 432.826 87.375 433.236 87.375 L 433.236 87.375 L 433.236 87.375 Q 433.744 87.375 434.193 87.111 L 434.193 87.111 L 434.193 87.111 Q 434.642 86.848 434.974 86.437 L 434.974 86.437 L 434.974 86.437 Q 435.306 86.027 435.502 85.52 L 435.502 85.52 L 435.502 85.52 Q 435.697 85.012 435.697 84.504 L 435.697 84.504 L 435.697 84.504 Z  M 432.591 71.184 L 432.591 71.184 L 432.591 71.184 Q 431.927 71.184 431.361 71.34 L 431.361 71.34 L 431.361 71.34 Q 430.794 71.496 430.384 71.73 L 430.384 71.73 L 430.384 71.73 Q 429.974 71.965 429.74 72.248 L 429.74 72.248 L 429.74 72.248 Q 429.505 72.531 429.505 72.785 L 429.505 72.785 L 429.505 72.785 Q 429.505 73.078 429.809 73.205 L 429.809 73.205 L 429.809 73.205 Q 430.111 73.332 430.482 73.498 L 430.482 73.498 L 430.482 73.498 Q 430.853 73.664 431.155 73.967 L 431.155 73.967 L 431.155 73.967 Q 431.459 74.27 431.459 74.895 L 431.459 74.895 L 431.459 74.895 Q 431.459 75.305 431.292 75.646 L 431.292 75.646 L 431.292 75.646 Q 431.127 75.988 430.844 76.252 L 430.844 76.252 L 430.844 76.252 Q 430.56 76.516 430.18 76.662 L 430.18 76.662 L 430.18 76.662 Q 429.798 76.809 429.388 76.809 L 429.388 76.809 L 429.388 76.809 Q 428.294 76.809 427.62 76.066 L 427.62 76.066 L 427.62 76.066 Q 426.947 75.324 426.947 74.094 L 426.947 74.094 L 426.947 74.094 Q 426.947 72.902 427.572 72.053 L 427.572 72.053 L 427.572 72.053 Q 428.197 71.203 429.202 70.656 L 429.202 70.656 L 429.202 70.656 Q 430.209 70.109 431.478 69.846 L 431.478 69.846 L 431.478 69.846 Q 432.748 69.582 434.017 69.582 L 434.017 69.582 L 434.017 69.582 Q 435.541 69.582 436.927 69.914 L 436.927 69.914 L 436.927 69.914 Q 438.314 70.246 439.379 70.969 L 439.379 70.969 L 439.379 70.969 Q 440.443 71.691 441.077 72.805 L 441.077 72.805 L 441.077 72.805 Q 441.712 73.918 441.712 75.5 L 441.712 75.5 L 441.712 86.535 L 441.712 86.535 Q 441.712 86.711 441.732 86.926 L 441.732 86.926 L 441.732 86.926 Q 441.752 87.141 441.83 87.316 L 441.83 87.316 L 441.83 87.316 Q 441.908 87.492 442.064 87.609 L 442.064 87.609 L 442.064 87.609 Q 442.22 87.727 442.513 87.727 L 442.513 87.727 L 442.513 87.727 Q 442.865 87.727 443.167 87.463 L 443.167 87.463 L 443.167 87.463 Q 443.47 87.199 443.705 86.926 L 443.705 86.926 L 444.193 87.336 L 444.193 87.336 Q 443.9 87.746 443.49 88.234 L 443.49 88.234 L 443.49 88.234 Q 443.08 88.723 442.494 89.152 L 442.494 89.152 L 442.494 89.152 Q 441.908 89.582 441.127 89.875 L 441.127 89.875 L 441.127 89.875 Q 440.345 90.168 439.349 90.168 L 439.349 90.168 L 439.349 90.168 Q 438.119 90.168 437.162 89.436 L 437.162 89.436 L 437.162 89.436 Q 436.205 88.703 435.912 87.18 L 435.912 87.18 L 435.912 87.18 Q 435.287 88.02 434.612 88.586 L 434.612 88.586 L 434.612 88.586 Q 433.939 89.152 433.236 89.504 L 433.236 89.504 L 433.236 89.504 Q 432.533 89.855 431.819 90.012 L 431.819 90.012 L 431.819 90.012 Q 431.107 90.168 430.384 90.168 L 430.384 90.168 L 430.384 90.168 Q 429.447 90.168 428.568 89.875 L 428.568 89.875 L 428.568 89.875 Q 427.689 89.582 426.995 88.947 L 426.995 88.947 L 426.995 88.947 Q 426.302 88.312 425.883 87.297 L 425.883 87.297 L 425.883 87.297 Q 425.462 86.281 425.462 84.816 L 425.462 84.816 L 425.462 84.816 Q 425.462 83.039 426.166 81.906 L 426.166 81.906 L 426.166 81.906 Q 426.869 80.773 428.012 80.002 L 428.012 80.002 L 428.012 80.002 Q 429.154 79.23 430.608 78.684 L 430.608 78.684 L 430.608 78.684 Q 432.064 78.137 433.587 77.531 L 433.587 77.531 L 433.587 77.531 Q 434.72 77.082 435.237 76.193 L 435.237 76.193 L 435.237 76.193 Q 435.755 75.305 435.755 74.367 L 435.755 74.367 L 435.755 74.367 Q 435.755 72.922 434.905 72.053 L 434.905 72.053 L 434.905 72.053 Q 434.056 71.184 432.591 71.184 Z  M 456.185 71.262 L 453.158 71.262 L 453.158 85.695 L 453.158 85.695 Q 453.158 86.73 453.548 87.131 L 453.548 87.131 L 453.548 87.131 Q 453.939 87.531 454.623 87.531 L 454.623 87.531 L 454.623 87.531 Q 455.15 87.531 455.56 87.238 L 455.56 87.238 L 455.56 87.238 Q 455.97 86.945 456.263 86.574 L 456.263 86.574 L 456.263 86.574 Q 456.615 86.164 456.869 85.617 L 456.869 85.617 L 457.474 85.891 L 457.474 85.891 Q 457.181 86.516 456.78 87.258 L 456.78 87.258 L 456.78 87.258 Q 456.38 88 455.716 88.635 L 455.716 88.635 L 455.716 88.635 Q 455.052 89.27 454.047 89.699 L 454.047 89.699 L 454.047 89.699 Q 453.041 90.129 451.517 90.129 L 451.517 90.129 L 451.517 90.129 Q 450.658 90.129 449.866 89.875 L 449.866 89.875 L 449.866 89.875 Q 449.076 89.621 448.461 89.074 L 448.461 89.074 L 448.461 89.074 Q 447.845 88.527 447.474 87.707 L 447.474 87.707 L 447.474 87.707 Q 447.103 86.887 447.103 85.734 L 447.103 85.734 L 447.103 71.262 L 444.916 71.262 L 444.916 69.855 L 444.916 69.855 Q 445.462 69.855 446.439 69.572 L 446.439 69.572 L 446.439 69.572 Q 447.416 69.289 448.44 68.625 L 448.44 68.625 L 448.44 68.625 Q 449.466 67.961 450.345 66.848 L 450.345 66.848 L 450.345 66.848 Q 451.224 65.734 451.595 64.094 L 451.595 64.094 L 453.158 64.094 L 453.158 69.855 L 456.341 69.855 L 456.341 69.855 Q 457.904 69.855 457.904 69.328 L 457.904 69.328 L 457.904 69.328 Q 457.904 69.133 457.709 69.064 L 457.709 69.064 L 457.709 69.064 Q 457.513 68.996 457.27 68.889 L 457.27 68.889 L 457.27 68.889 Q 457.025 68.781 456.83 68.586 L 456.83 68.586 L 456.83 68.586 Q 456.634 68.391 456.634 67.941 L 456.634 67.941 L 456.634 67.941 Q 456.634 67.395 456.977 67.082 L 456.977 67.082 L 456.977 67.082 Q 457.318 66.77 457.865 66.77 L 457.865 66.77 L 457.865 66.77 Q 458.216 66.77 458.479 66.916 L 458.479 66.916 L 458.479 66.916 Q 458.744 67.062 458.919 67.307 L 458.919 67.307 L 458.919 67.307 Q 459.095 67.551 459.184 67.863 L 459.184 67.863 L 459.184 67.863 Q 459.271 68.176 459.271 68.488 L 459.271 68.488 L 459.271 68.488 Q 459.271 69.758 458.538 70.51 L 458.538 70.51 L 458.538 70.51 Q 457.806 71.262 456.185 71.262 L 456.185 71.262 L 456.185 71.262 Z  M 466.927 72.824 L 466.927 88.098 L 466.927 88.098 Q 466.927 88.352 466.84 88.713 L 466.84 88.713 L 466.84 88.713 Q 466.752 89.074 466.43 89.396 L 466.43 89.396 L 466.43 89.396 Q 466.107 89.719 465.502 89.943 L 465.502 89.943 L 465.502 89.943 Q 464.896 90.168 463.861 90.168 L 463.861 90.168 L 463.861 90.168 Q 462.826 90.168 462.24 89.924 L 462.24 89.924 L 462.24 89.924 Q 461.654 89.68 461.361 89.348 L 461.361 89.348 L 461.361 89.348 Q 461.068 89.016 460.999 88.664 L 460.999 88.664 L 460.999 88.664 Q 460.931 88.312 460.931 88.098 L 460.931 88.098 L 460.931 73.02 L 460.931 73.02 Q 460.931 72.453 460.667 72.033 L 460.667 72.033 L 460.667 72.033 Q 460.404 71.613 459.779 71.613 L 459.779 71.613 L 459.779 71.613 Q 459.447 71.613 459.212 71.73 L 459.212 71.73 L 459.212 71.73 Q 458.978 71.848 458.705 72.062 L 458.705 72.062 L 458.294 71.574 L 458.294 71.574 Q 458.744 71.203 459.301 70.842 L 459.301 70.842 L 459.301 70.842 Q 459.857 70.48 460.502 70.207 L 460.502 70.207 L 460.502 70.207 Q 461.146 69.934 461.888 69.758 L 461.888 69.758 L 461.888 69.758 Q 462.63 69.582 463.451 69.582 L 463.451 69.582 L 463.451 69.582 Q 464.72 69.582 465.423 69.924 L 465.423 69.924 L 465.423 69.924 Q 466.127 70.266 466.459 70.764 L 466.459 70.764 L 466.459 70.764 Q 466.791 71.262 466.858 71.828 L 466.858 71.828 L 466.858 71.828 Q 466.927 72.395 466.927 72.824 L 466.927 72.824 L 466.927 72.824 Z  M 460.326 65.129 L 460.326 65.129 L 460.326 65.129 Q 460.326 64.582 460.569 64.084 L 460.569 64.084 L 460.569 64.084 Q 460.814 63.586 461.254 63.215 L 461.254 63.215 L 461.254 63.215 Q 461.693 62.844 462.27 62.629 L 462.27 62.629 L 462.27 62.629 Q 462.845 62.414 463.529 62.414 L 463.529 62.414 L 463.529 62.414 Q 464.193 62.414 464.77 62.629 L 464.77 62.629 L 464.77 62.629 Q 465.345 62.844 465.775 63.215 L 465.775 63.215 L 465.775 63.215 Q 466.205 63.586 466.448 64.084 L 466.448 64.084 L 466.448 64.084 Q 466.693 64.582 466.693 65.129 L 466.693 65.129 L 466.693 65.129 Q 466.693 65.695 466.448 66.184 L 466.448 66.184 L 466.448 66.184 Q 466.205 66.672 465.775 67.033 L 465.775 67.033 L 465.775 67.033 Q 465.345 67.395 464.77 67.609 L 464.77 67.609 L 464.77 67.609 Q 464.193 67.824 463.529 67.824 L 463.529 67.824 L 463.529 67.824 Q 462.845 67.824 462.27 67.609 L 462.27 67.609 L 462.27 67.609 Q 461.693 67.395 461.254 67.033 L 461.254 67.033 L 461.254 67.033 Q 460.814 66.672 460.569 66.184 L 460.569 66.184 L 460.569 66.184 Q 460.326 65.695 460.326 65.129 Z  M 470.599 79.855 L 470.599 79.855 L 470.599 79.855 Q 470.599 77.297 471.341 75.373 L 471.341 75.373 L 471.341 75.373 Q 472.084 73.449 473.323 72.16 L 473.323 72.16 L 473.323 72.16 Q 474.564 70.871 476.205 70.227 L 476.205 70.227 L 476.205 70.227 Q 477.845 69.582 479.642 69.582 L 479.642 69.582 L 479.642 69.582 Q 481.439 69.582 483.08 70.178 L 483.08 70.178 L 483.08 70.178 Q 484.72 70.773 485.961 72.004 L 485.961 72.004 L 485.961 72.004 Q 487.201 73.234 487.943 75.119 L 487.943 75.119 L 487.943 75.119 Q 488.685 77.004 488.685 79.582 L 488.685 79.582 L 488.685 79.582 Q 488.685 82.141 487.943 84.113 L 487.943 84.113 L 487.943 84.113 Q 487.201 86.086 485.961 87.434 L 485.961 87.434 L 485.961 87.434 Q 484.72 88.781 483.08 89.475 L 483.08 89.475 L 483.08 89.475 Q 481.439 90.168 479.642 90.168 L 479.642 90.168 L 479.642 90.168 Q 477.845 90.168 476.205 89.514 L 476.205 89.514 L 476.205 89.514 Q 474.564 88.859 473.323 87.57 L 473.323 87.57 L 473.323 87.57 Q 472.084 86.281 471.341 84.348 L 471.341 84.348 L 471.341 84.348 Q 470.599 82.414 470.599 79.855 Z  M 482.611 79.66 L 482.611 79.66 L 482.611 79.66 Q 482.611 78.098 482.504 76.643 L 482.504 76.643 L 482.504 76.643 Q 482.396 75.187 482.084 74.055 L 482.084 74.055 L 482.084 74.055 Q 481.771 72.922 481.185 72.248 L 481.185 72.248 L 481.185 72.248 Q 480.599 71.574 479.642 71.574 L 479.642 71.574 L 479.642 71.574 Q 478.685 71.574 478.099 72.287 L 478.099 72.287 L 478.099 72.287 Q 477.513 73 477.201 74.162 L 477.201 74.162 L 477.201 74.162 Q 476.888 75.324 476.791 76.809 L 476.791 76.809 L 476.791 76.809 Q 476.693 78.293 476.693 79.855 L 476.693 79.855 L 476.693 79.855 Q 476.693 81.418 476.791 82.912 L 476.791 82.912 L 476.791 82.912 Q 476.888 84.406 477.201 85.578 L 477.201 85.578 L 477.201 85.578 Q 477.513 86.75 478.099 87.463 L 478.099 87.463 L 478.099 87.463 Q 478.685 88.176 479.642 88.176 L 479.642 88.176 L 479.642 88.176 Q 480.599 88.176 481.185 87.434 L 481.185 87.434 L 481.185 87.434 Q 481.771 86.691 482.084 85.48 L 482.084 85.48 L 482.084 85.48 Q 482.396 84.27 482.504 82.746 L 482.504 82.746 L 482.504 82.746 Q 482.611 81.223 482.611 79.66 Z  M 503.822 80.129 L 503.822 80.129 L 503.822 80.129 Q 503.822 77.668 503.598 76.193 L 503.598 76.193 L 503.598 76.193 Q 503.373 74.719 503.002 73.947 L 503.002 73.947 L 503.002 73.947 Q 502.63 73.176 502.181 72.932 L 502.181 72.932 L 502.181 72.932 Q 501.732 72.687 501.263 72.687 L 501.263 72.687 L 501.263 72.687 Q 500.697 72.687 500.258 72.99 L 500.258 72.99 L 500.258 72.99 Q 499.818 73.293 499.495 73.684 L 499.495 73.684 L 499.495 73.684 Q 499.173 74.074 498.948 74.465 L 498.948 74.465 L 498.948 74.465 Q 498.724 74.855 498.568 75.051 L 498.568 75.051 L 498.568 88.098 L 498.568 88.098 Q 498.568 88.352 498.49 88.713 L 498.49 88.713 L 498.49 88.713 Q 498.412 89.074 498.108 89.396 L 498.108 89.396 L 498.108 89.396 Q 497.806 89.719 497.211 89.943 L 497.211 89.943 L 497.211 89.943 Q 496.615 90.168 495.58 90.168 L 495.58 90.168 L 495.58 90.168 Q 494.544 90.168 493.948 89.924 L 493.948 89.924 L 493.948 89.924 Q 493.353 89.68 493.041 89.348 L 493.041 89.348 L 493.041 89.348 Q 492.728 89.016 492.65 88.664 L 492.65 88.664 L 492.65 88.664 Q 492.572 88.312 492.572 88.098 L 492.572 88.098 L 492.572 73.02 L 492.572 73.02 Q 492.572 72.453 492.309 72.033 L 492.309 72.033 L 492.309 72.033 Q 492.044 71.613 491.419 71.613 L 491.419 71.613 L 491.419 71.613 Q 491.087 71.613 490.853 71.73 L 490.853 71.73 L 490.853 71.73 Q 490.619 71.848 490.345 72.062 L 490.345 72.062 L 489.935 71.574 L 489.935 71.574 Q 490.384 71.203 490.94 70.842 L 490.94 70.842 L 490.94 70.842 Q 491.498 70.48 492.142 70.207 L 492.142 70.207 L 492.142 70.207 Q 492.787 69.934 493.529 69.758 L 493.529 69.758 L 493.529 69.758 Q 494.271 69.582 495.091 69.582 L 495.091 69.582 L 495.091 69.582 Q 496.361 69.582 497.064 70.002 L 497.064 70.002 L 497.064 70.002 Q 497.767 70.422 498.099 71.008 L 498.099 71.008 L 498.099 71.008 Q 498.431 71.594 498.499 72.229 L 498.499 72.229 L 498.499 72.229 Q 498.568 72.863 498.568 73.293 L 498.568 73.293 L 498.568 73.293 Q 499.291 72.258 500.209 71.437 L 500.209 71.437 L 500.209 71.437 Q 500.58 71.086 501.038 70.754 L 501.038 70.754 L 501.038 70.754 Q 501.498 70.422 502.016 70.158 L 502.016 70.158 L 502.016 70.158 Q 502.533 69.895 503.108 69.738 L 503.108 69.738 L 503.108 69.738 Q 503.685 69.582 504.291 69.582 L 504.291 69.582 L 504.291 69.582 Q 505.619 69.582 506.645 70.09 L 506.645 70.09 L 506.645 70.09 Q 507.669 70.598 508.373 71.789 L 508.373 71.789 L 508.373 71.789 Q 509.076 72.98 509.447 74.943 L 509.447 74.943 L 509.447 74.943 Q 509.818 76.906 509.818 79.816 L 509.818 79.816 L 509.818 79.816 Q 509.818 82.648 509.31 84.738 L 509.31 84.738 L 509.31 84.738 Q 508.802 86.828 507.982 88.293 L 507.982 88.293 L 507.982 88.293 Q 507.162 89.758 506.127 90.686 L 506.127 90.686 L 506.127 90.686 Q 505.091 91.613 504.037 92.141 L 504.037 92.141 L 504.037 92.141 Q 502.982 92.668 502.016 92.873 L 502.016 92.873 L 502.016 92.873 Q 501.048 93.078 500.345 93.098 L 500.345 93.098 L 500.13 92.297 L 500.13 92.297 Q 500.716 92.16 501.215 91.867 L 501.215 91.867 L 501.215 91.867 Q 501.712 91.574 502.123 91.008 L 502.123 91.008 L 502.123 91.008 Q 502.533 90.441 502.845 89.572 L 502.845 89.572 L 502.845 89.572 Q 503.158 88.703 503.383 87.395 L 503.383 87.395 L 503.383 87.395 Q 503.607 86.086 503.715 84.299 L 503.715 84.299 L 503.715 84.299 Q 503.822 82.512 503.822 80.129 Z  M 283.412 82.863 L 281.498 82.863 L 274.466 68.859 L 274.212 73.566 L 274.212 73.566 Q 274.095 75.617 274.008 77.639 L 274.008 77.639 L 274.008 77.639 Q 273.919 79.66 273.685 81.486 L 273.685 81.486 L 273.685 81.486 Q 273.451 83.312 272.952 84.875 L 272.952 84.875 L 272.952 84.875 Q 272.455 86.437 271.508 87.58 L 271.508 87.58 L 271.508 87.58 Q 270.56 88.723 269.047 89.367 L 269.047 89.367 L 269.047 89.367 Q 267.533 90.012 265.267 90.012 L 265.267 90.012 L 265.267 90.012 Q 264.271 90.012 263.353 89.846 L 263.353 89.846 L 263.353 89.846 Q 262.435 89.68 261.732 89.387 L 261.732 89.387 L 261.732 89.387 Q 261.029 89.094 260.608 88.693 L 260.608 88.693 L 260.608 88.693 Q 260.189 88.293 260.189 87.824 L 260.189 87.824 L 260.189 87.824 Q 260.189 87.473 260.287 87.111 L 260.287 87.111 L 260.287 87.111 Q 260.384 86.75 260.58 86.447 L 260.58 86.447 L 260.58 86.447 Q 260.775 86.145 261.059 85.959 L 261.059 85.959 L 261.059 85.959 Q 261.341 85.773 261.693 85.773 L 261.693 85.773 L 261.693 85.773 Q 261.908 85.773 262.073 85.988 L 262.073 85.988 L 262.073 85.988 Q 262.24 86.203 262.416 86.525 L 262.416 86.525 L 262.416 86.525 Q 262.591 86.848 262.815 87.219 L 262.815 87.219 L 262.815 87.219 Q 263.041 87.59 263.401 87.912 L 263.401 87.912 L 263.401 87.912 Q 263.763 88.234 264.271 88.449 L 264.271 88.449 L 264.271 88.449 Q 264.779 88.664 265.541 88.664 L 265.541 88.664 L 265.541 88.664 Q 267.044 88.664 268.069 88.146 L 268.069 88.146 L 268.069 88.146 Q 269.095 87.629 269.759 86.652 L 269.759 86.652 L 269.759 86.652 Q 270.423 85.676 270.775 84.289 L 270.775 84.289 L 270.775 84.289 Q 271.127 82.902 271.302 81.145 L 271.302 81.145 L 271.302 81.145 Q 271.38 80.168 271.459 79.26 L 271.459 79.26 L 271.459 79.26 Q 271.537 78.352 271.615 77.453 L 271.615 77.453 L 271.615 77.453 Q 271.693 76.555 271.762 75.627 L 271.762 75.627 L 271.762 75.627 Q 271.83 74.699 271.908 73.664 L 271.908 73.664 L 271.908 73.664 Q 272.005 72.16 272.084 70.803 L 272.084 70.803 L 272.084 70.803 Q 272.162 69.445 272.211 68.273 L 272.211 68.273 L 272.211 68.273 Q 272.259 67.102 272.288 66.164 L 272.288 66.164 L 272.288 66.164 Q 272.318 65.227 272.337 64.543 L 272.337 64.543 L 272.337 64.543 Q 272.005 63.859 271.752 63.439 L 271.752 63.439 L 271.752 63.439 Q 271.498 63.02 271.224 62.795 L 271.224 62.795 L 271.224 62.795 Q 270.951 62.57 270.619 62.492 L 270.619 62.492 L 270.619 62.492 Q 270.287 62.414 269.818 62.414 L 269.818 62.414 L 269.818 62.414 Q 269.427 62.414 268.852 62.561 L 268.852 62.561 L 268.852 62.561 Q 268.275 62.707 267.659 62.98 L 267.659 62.98 L 267.659 62.98 Q 267.044 63.254 266.43 63.654 L 266.43 63.654 L 266.43 63.654 Q 265.814 64.055 265.336 64.572 L 265.336 64.572 L 265.336 64.572 Q 264.857 65.09 264.555 65.715 L 264.555 65.715 L 264.555 65.715 Q 264.252 66.34 264.252 67.062 L 264.252 67.062 L 264.252 67.062 Q 264.252 67.687 264.417 68.059 L 264.417 68.059 L 264.417 68.059 Q 264.584 68.43 264.809 68.615 L 264.809 68.615 L 264.809 68.615 Q 265.033 68.801 265.258 68.85 L 265.258 68.85 L 265.258 68.85 Q 265.482 68.898 265.58 68.898 L 265.58 68.898 L 265.58 68.898 Q 266.068 68.898 266.38 68.732 L 266.38 68.732 L 266.38 68.732 Q 266.693 68.566 266.947 68.381 L 266.947 68.381 L 266.947 68.381 Q 267.201 68.195 267.426 68.029 L 267.426 68.029 L 267.426 68.029 Q 267.65 67.863 267.943 67.863 L 267.943 67.863 L 267.943 67.863 Q 268.177 67.863 268.44 67.971 L 268.44 67.971 L 268.44 67.971 Q 268.705 68.078 268.93 68.312 L 268.93 68.312 L 268.93 68.312 Q 269.154 68.547 269.31 68.928 L 269.31 68.928 L 269.31 68.928 Q 269.466 69.309 269.466 69.855 L 269.466 69.855 L 269.466 69.855 Q 269.466 70.637 269.163 71.203 L 269.163 71.203 L 269.163 71.203 Q 268.861 71.77 268.383 72.15 L 268.383 72.15 L 268.383 72.15 Q 267.904 72.531 267.288 72.717 L 267.288 72.717 L 267.288 72.717 Q 266.673 72.902 266.068 72.902 L 266.068 72.902 L 266.068 72.902 Q 265.13 72.902 264.379 72.58 L 264.379 72.58 L 264.379 72.58 Q 263.627 72.258 263.099 71.691 L 263.099 71.691 L 263.099 71.691 Q 262.572 71.125 262.298 70.363 L 262.298 70.363 L 262.298 70.363 Q 262.025 69.602 262.025 68.742 L 262.025 68.742 L 262.025 68.742 Q 262.025 66.711 262.962 65.197 L 262.962 65.197 L 262.962 65.197 Q 263.9 63.684 265.423 62.668 L 265.423 62.668 L 265.423 62.668 Q 266.947 61.652 268.87 61.154 L 268.87 61.154 L 268.87 61.154 Q 270.794 60.656 272.787 60.656 L 272.787 60.656 L 272.787 60.656 Q 274.388 60.656 275.462 60.979 L 275.462 60.979 L 275.462 60.979 Q 276.537 61.301 277.259 61.838 L 277.259 61.838 L 277.259 61.838 Q 277.982 62.375 278.451 63.098 L 278.451 63.098 L 278.451 63.098 Q 278.919 63.82 279.31 64.621 L 279.31 64.621 L 284.466 75.09 L 284.466 75.09 Q 286.478 71.125 288.129 67.99 L 288.129 67.99 L 288.129 67.99 Q 289.779 64.855 291.185 62.473 L 291.185 62.473 L 291.185 62.473 Q 292.591 60.09 293.811 58.41 L 293.811 58.41 L 293.811 58.41 Q 295.033 56.73 296.176 55.666 L 296.176 55.666 L 296.176 55.666 Q 297.318 54.602 298.44 54.113 L 298.44 54.113 L 298.44 54.113 Q 299.564 53.625 300.775 53.625 L 300.775 53.625 L 300.775 53.625 Q 301.81 53.625 302.455 54.064 L 302.455 54.064 L 302.455 54.064 Q 303.099 54.504 303.099 55.383 L 303.099 55.383 L 303.099 55.383 Q 303.099 56.164 302.845 56.672 L 302.845 56.672 L 302.845 56.672 Q 302.591 57.18 302.142 57.18 L 302.142 57.18 L 302.142 57.18 Q 301.771 57.18 301.576 56.896 L 301.576 56.896 L 301.576 56.896 Q 301.38 56.613 301.194 56.281 L 301.194 56.281 L 301.194 56.281 Q 301.009 55.949 300.736 55.666 L 300.736 55.666 L 300.736 55.666 Q 300.462 55.383 299.935 55.383 L 299.935 55.383 L 299.935 55.383 Q 299.623 55.383 299.173 55.559 L 299.173 55.559 L 299.173 55.559 Q 298.724 55.734 298.245 56.086 L 298.245 56.086 L 298.245 56.086 Q 297.767 56.437 297.298 56.965 L 297.298 56.965 L 297.298 56.965 Q 296.83 57.492 296.478 58.195 L 296.478 58.195 L 296.478 58.195 Q 296.127 58.898 295.931 59.797 L 295.931 59.797 L 295.931 59.797 Q 295.736 60.695 295.814 61.77 L 295.814 61.77 L 295.814 61.77 Q 295.892 63 296.029 64.65 L 296.029 64.65 L 296.029 64.65 Q 296.166 66.301 296.331 68.186 L 296.331 68.186 L 296.331 68.186 Q 296.498 70.07 296.684 72.082 L 296.684 72.082 L 296.684 72.082 Q 296.869 74.094 297.064 76.047 L 297.064 76.047 L 297.064 76.047 Q 297.259 78 297.444 79.797 L 297.444 79.797 L 297.444 79.797 Q 297.63 81.594 297.787 83.049 L 297.787 83.049 L 297.787 83.049 Q 297.943 84.504 298.08 85.51 L 298.08 85.51 L 298.08 85.51 Q 298.216 86.516 298.294 86.887 L 298.294 86.887 L 298.294 86.887 Q 298.412 87.453 298.607 87.795 L 298.607 87.795 L 298.607 87.795 Q 298.802 88.137 299.31 88.137 L 299.31 88.137 L 299.31 88.137 Q 299.837 88.137 300.306 87.951 L 300.306 87.951 L 300.306 87.951 Q 300.775 87.766 301.146 87.57 L 301.146 87.57 L 301.459 88.293 L 301.459 88.293 Q 301.107 88.547 300.569 88.869 L 300.569 88.869 L 300.569 88.869 Q 300.033 89.191 299.34 89.484 L 299.34 89.484 L 299.34 89.484 Q 298.646 89.777 297.815 89.973 L 297.815 89.973 L 297.815 89.973 Q 296.986 90.168 296.029 90.168 L 296.029 90.168 L 296.029 90.168 Q 294.681 90.168 293.9 89.826 L 293.9 89.826 L 293.9 89.826 Q 293.119 89.484 292.698 88.986 L 292.698 88.986 L 292.698 88.986 Q 292.279 88.488 292.133 87.932 L 292.133 87.932 L 292.133 87.932 Q 291.986 87.375 291.908 86.926 L 291.908 86.926 L 291.908 86.926 Q 291.732 85.93 291.537 84.523 L 291.537 84.523 L 291.537 84.523 Q 291.341 83.117 291.155 81.506 L 291.155 81.506 L 291.155 81.506 Q 290.97 79.895 290.794 78.186 L 290.794 78.186 L 290.794 78.186 Q 290.619 76.477 290.473 74.846 L 290.473 74.846 L 290.473 74.846 Q 290.326 73.215 290.209 71.77 L 290.209 71.77 L 290.209 71.77 Q 290.091 70.324 290.013 69.25 L 290.013 69.25 L 290.013 69.25 Q 289.427 70.207 288.93 71.096 L 288.93 71.096 L 288.93 71.096 Q 288.431 71.984 287.962 72.912 L 287.962 72.912 L 287.962 72.912 Q 287.494 73.84 287.005 74.855 L 287.005 74.855 L 287.005 74.855 Q 286.517 75.871 285.979 77.062 L 285.979 77.062 L 285.979 77.062 Q 285.443 78.254 284.809 79.68 L 284.809 79.68 L 284.809 79.68 Q 284.173 81.105 283.412 82.863 L 283.412 82.863 L 283.412 82.863 Z  M 321.009 72.414 L 321.009 86.457 L 321.009 86.457 Q 321.009 86.633 321.029 86.838 L 321.029 86.838 L 321.029 86.838 Q 321.048 87.043 321.127 87.229 L 321.127 87.229 L 321.127 87.229 Q 321.205 87.414 321.361 87.531 L 321.361 87.531 L 321.361 87.531 Q 321.517 87.648 321.81 87.648 L 321.81 87.648 L 321.81 87.648 Q 322.181 87.648 322.474 87.385 L 322.474 87.385 L 322.474 87.385 Q 322.767 87.121 323.021 86.848 L 323.021 86.848 L 323.49 87.258 L 323.49 87.258 Q 323.197 87.668 322.758 88.166 L 322.758 88.166 L 322.758 88.166 Q 322.318 88.664 321.693 89.113 L 321.693 89.113 L 321.693 89.113 Q 321.068 89.562 320.267 89.865 L 320.267 89.865 L 320.267 89.865 Q 319.466 90.168 318.451 90.168 L 318.451 90.168 L 318.451 90.168 Q 317.591 90.168 316.956 89.943 L 316.956 89.943 L 316.956 89.943 Q 316.322 89.719 315.883 89.338 L 315.883 89.338 L 315.883 89.338 Q 315.443 88.957 315.228 88.439 L 315.228 88.439 L 315.228 88.439 Q 315.013 87.922 315.013 87.336 L 315.013 87.336 L 315.013 86.457 L 315.013 86.457 Q 314.037 87.512 312.962 88.312 L 312.962 88.312 L 312.962 88.312 Q 312.494 88.664 311.966 88.996 L 311.966 88.996 L 311.966 88.996 Q 311.439 89.328 310.873 89.592 L 310.873 89.592 L 310.873 89.592 Q 310.306 89.855 309.701 90.012 L 309.701 90.012 L 309.701 90.012 Q 309.095 90.168 308.49 90.168 L 308.49 90.168 L 308.49 90.168 Q 307.318 90.168 306.487 89.748 L 306.487 89.748 L 306.487 89.748 Q 305.658 89.328 305.15 88.645 L 305.15 88.645 L 305.15 88.645 Q 304.642 87.961 304.408 87.102 L 304.408 87.102 L 304.408 87.102 Q 304.173 86.242 304.173 85.383 L 304.173 85.383 L 304.173 73.293 L 304.173 73.293 Q 304.173 73.117 304.154 72.912 L 304.154 72.912 L 304.154 72.912 Q 304.134 72.707 304.056 72.521 L 304.056 72.521 L 304.056 72.521 Q 303.978 72.336 303.822 72.219 L 303.822 72.219 L 303.822 72.219 Q 303.666 72.102 303.373 72.102 L 303.373 72.102 L 303.373 72.102 Q 303.021 72.102 302.719 72.365 L 302.719 72.365 L 302.719 72.365 Q 302.416 72.629 302.181 72.902 L 302.181 72.902 L 301.693 72.492 L 301.693 72.492 Q 301.986 72.082 302.426 71.584 L 302.426 71.584 L 302.426 71.584 Q 302.865 71.086 303.49 70.637 L 303.49 70.637 L 303.49 70.637 Q 304.115 70.187 304.926 69.885 L 304.926 69.885 L 304.926 69.885 Q 305.736 69.582 306.732 69.582 L 306.732 69.582 L 306.732 69.582 Q 307.591 69.582 308.236 69.807 L 308.236 69.807 L 308.236 69.807 Q 308.88 70.031 309.31 70.412 L 309.31 70.412 L 309.31 70.412 Q 309.74 70.793 309.955 71.311 L 309.955 71.311 L 309.955 71.311 Q 310.169 71.828 310.169 72.414 L 310.169 72.414 L 310.169 85.461 L 310.169 85.461 Q 310.169 85.734 310.258 86.018 L 310.258 86.018 L 310.258 86.018 Q 310.345 86.301 310.512 86.535 L 310.512 86.535 L 310.512 86.535 Q 310.677 86.77 310.931 86.916 L 310.931 86.916 L 310.931 86.916 Q 311.185 87.062 311.537 87.062 L 311.537 87.062 L 311.537 87.062 Q 312.103 87.062 312.669 86.77 L 312.669 86.77 L 312.669 86.77 Q 313.236 86.477 313.705 86.076 L 313.705 86.076 L 313.705 86.076 Q 314.173 85.676 314.516 85.285 L 314.516 85.285 L 314.516 85.285 Q 314.857 84.895 315.013 84.699 L 315.013 84.699 L 315.013 73.293 L 315.013 73.293 Q 315.013 73.117 314.994 72.912 L 314.994 72.912 L 314.994 72.912 Q 314.974 72.707 314.896 72.521 L 314.896 72.521 L 314.896 72.521 Q 314.818 72.336 314.662 72.219 L 314.662 72.219 L 314.662 72.219 Q 314.505 72.102 314.212 72.102 L 314.212 72.102 L 314.212 72.102 Q 313.861 72.102 313.559 72.365 L 313.559 72.365 L 313.559 72.365 Q 313.255 72.629 313.021 72.902 L 313.021 72.902 L 312.533 72.492 L 312.533 72.492 Q 312.826 72.082 313.266 71.584 L 313.266 71.584 L 313.266 71.584 Q 313.705 71.086 314.33 70.637 L 314.33 70.637 L 314.33 70.637 Q 314.955 70.187 315.766 69.885 L 315.766 69.885 L 315.766 69.885 Q 316.576 69.582 317.572 69.582 L 317.572 69.582 L 317.572 69.582 Q 318.431 69.582 319.076 69.807 L 319.076 69.807 L 319.076 69.807 Q 319.72 70.031 320.15 70.412 L 320.15 70.412 L 320.15 70.412 Q 320.58 70.793 320.794 71.311 L 320.794 71.311 L 320.794 71.311 Q 321.009 71.828 321.009 72.414 L 321.009 72.414 L 321.009 72.414 Z  M 332.181 62.687 L 332.181 88.137 L 332.181 88.137 Q 332.181 88.391 332.094 88.742 L 332.094 88.742 L 332.094 88.742 Q 332.005 89.094 331.684 89.406 L 331.684 89.406 L 331.684 89.406 Q 331.361 89.719 330.745 89.943 L 330.745 89.943 L 330.745 89.943 Q 330.13 90.168 329.095 90.168 L 329.095 90.168 L 329.095 90.168 Q 328.06 90.168 327.474 89.924 L 327.474 89.924 L 327.474 89.924 Q 326.888 89.68 326.604 89.348 L 326.604 89.348 L 326.604 89.348 Q 326.322 89.016 326.254 88.664 L 326.254 88.664 L 326.254 88.664 Q 326.185 88.312 326.185 88.098 L 326.185 88.098 L 326.185 62.902 L 326.185 62.902 Q 326.185 62.336 325.922 61.916 L 325.922 61.916 L 325.922 61.916 Q 325.658 61.496 325.033 61.496 L 325.033 61.496 L 325.033 61.496 Q 324.701 61.496 324.456 61.604 L 324.456 61.604 L 324.456 61.604 Q 324.212 61.711 323.939 61.926 L 323.939 61.926 L 323.548 61.457 L 323.548 61.457 Q 323.998 61.086 324.544 60.725 L 324.544 60.725 L 324.544 60.725 Q 325.091 60.363 325.745 60.09 L 325.745 60.09 L 325.745 60.09 Q 326.4 59.816 327.142 59.641 L 327.142 59.641 L 327.142 59.641 Q 327.884 59.465 328.705 59.465 L 328.705 59.465 L 328.705 59.465 Q 329.974 59.465 330.677 59.807 L 330.677 59.807 L 330.677 59.807 Q 331.38 60.148 331.712 60.646 L 331.712 60.646 L 331.712 60.646 Q 332.044 61.145 332.112 61.701 L 332.112 61.701 L 332.112 61.701 Q 332.181 62.258 332.181 62.687 L 332.181 62.687 L 332.181 62.687 Z  M 346.459 71.262 L 343.431 71.262 L 343.431 85.695 L 343.431 85.695 Q 343.431 86.73 343.822 87.131 L 343.822 87.131 L 343.822 87.131 Q 344.212 87.531 344.896 87.531 L 344.896 87.531 L 344.896 87.531 Q 345.423 87.531 345.834 87.238 L 345.834 87.238 L 345.834 87.238 Q 346.244 86.945 346.537 86.574 L 346.537 86.574 L 346.537 86.574 Q 346.888 86.164 347.142 85.617 L 347.142 85.617 L 347.748 85.891 L 347.748 85.891 Q 347.455 86.516 347.055 87.258 L 347.055 87.258 L 347.055 87.258 Q 346.654 88 345.99 88.635 L 345.99 88.635 L 345.99 88.635 Q 345.326 89.27 344.319 89.699 L 344.319 89.699 L 344.319 89.699 Q 343.314 90.129 341.791 90.129 L 341.791 90.129 L 341.791 90.129 Q 340.931 90.129 340.141 89.875 L 340.141 89.875 L 340.141 89.875 Q 339.349 89.621 338.733 89.074 L 338.733 89.074 L 338.733 89.074 Q 338.119 88.527 337.748 87.707 L 337.748 87.707 L 337.748 87.707 Q 337.377 86.887 337.377 85.734 L 337.377 85.734 L 337.377 71.262 L 335.189 71.262 L 335.189 69.855 L 335.189 69.855 Q 335.736 69.855 336.712 69.572 L 336.712 69.572 L 336.712 69.572 Q 337.689 69.289 338.715 68.625 L 338.715 68.625 L 338.715 68.625 Q 339.74 67.961 340.619 66.848 L 340.619 66.848 L 340.619 66.848 Q 341.498 65.734 341.869 64.094 L 341.869 64.094 L 343.431 64.094 L 343.431 69.855 L 346.615 69.855 L 346.615 69.855 Q 348.177 69.855 348.177 69.328 L 348.177 69.328 L 348.177 69.328 Q 348.177 69.133 347.982 69.064 L 347.982 69.064 L 347.982 69.064 Q 347.787 68.996 347.542 68.889 L 347.542 68.889 L 347.542 68.889 Q 347.298 68.781 347.103 68.586 L 347.103 68.586 L 347.103 68.586 Q 346.908 68.391 346.908 67.941 L 346.908 67.941 L 346.908 67.941 Q 346.908 67.395 347.249 67.082 L 347.249 67.082 L 347.249 67.082 Q 347.591 66.77 348.138 66.77 L 348.138 66.77 L 348.138 66.77 Q 348.49 66.77 348.754 66.916 L 348.754 66.916 L 348.754 66.916 Q 349.017 67.062 349.193 67.307 L 349.193 67.307 L 349.193 67.307 Q 349.369 67.551 349.456 67.863 L 349.456 67.863 L 349.456 67.863 Q 349.544 68.176 349.544 68.488 L 349.544 68.488 L 349.544 68.488 Q 349.544 69.758 348.811 70.51 L 348.811 70.51 L 348.811 70.51 Q 348.08 71.262 346.459 71.262 L 346.459 71.262 L 346.459 71.262 Z  M 357.201 72.824 L 357.201 88.098 L 357.201 88.098 Q 357.201 88.352 357.112 88.713 L 357.112 88.713 L 357.112 88.713 Q 357.025 89.074 356.702 89.396 L 356.702 89.396 L 356.702 89.396 Q 356.38 89.719 355.775 89.943 L 355.775 89.943 L 355.775 89.943 Q 355.169 90.168 354.134 90.168 L 354.134 90.168 L 354.134 90.168 Q 353.099 90.168 352.513 89.924 L 352.513 89.924 L 352.513 89.924 Q 351.927 89.68 351.634 89.348 L 351.634 89.348 L 351.634 89.348 Q 351.341 89.016 351.272 88.664 L 351.272 88.664 L 351.272 88.664 Q 351.205 88.312 351.205 88.098 L 351.205 88.098 L 351.205 73.02 L 351.205 73.02 Q 351.205 72.453 350.94 72.033 L 350.94 72.033 L 350.94 72.033 Q 350.677 71.613 350.052 71.613 L 350.052 71.613 L 350.052 71.613 Q 349.72 71.613 349.486 71.73 L 349.486 71.73 L 349.486 71.73 Q 349.252 71.848 348.978 72.062 L 348.978 72.062 L 348.568 71.574 L 348.568 71.574 Q 349.017 71.203 349.573 70.842 L 349.573 70.842 L 349.573 70.842 Q 350.13 70.48 350.775 70.207 L 350.775 70.207 L 350.775 70.207 Q 351.419 69.934 352.162 69.758 L 352.162 69.758 L 352.162 69.758 Q 352.904 69.582 353.724 69.582 L 353.724 69.582 L 353.724 69.582 Q 354.994 69.582 355.697 69.924 L 355.697 69.924 L 355.697 69.924 Q 356.4 70.266 356.732 70.764 L 356.732 70.764 L 356.732 70.764 Q 357.064 71.262 357.133 71.828 L 357.133 71.828 L 357.133 71.828 Q 357.201 72.395 357.201 72.824 L 357.201 72.824 L 357.201 72.824 Z  M 350.599 65.129 L 350.599 65.129 L 350.599 65.129 Q 350.599 64.582 350.844 64.084 L 350.844 64.084 L 350.844 64.084 Q 351.087 63.586 351.526 63.215 L 351.526 63.215 L 351.526 63.215 Q 351.966 62.844 352.542 62.629 L 352.542 62.629 L 352.542 62.629 Q 353.119 62.414 353.802 62.414 L 353.802 62.414 L 353.802 62.414 Q 354.466 62.414 355.042 62.629 L 355.042 62.629 L 355.042 62.629 Q 355.619 62.844 356.048 63.215 L 356.048 63.215 L 356.048 63.215 Q 356.478 63.586 356.723 64.084 L 356.723 64.084 L 356.723 64.084 Q 356.966 64.582 356.966 65.129 L 356.966 65.129 L 356.966 65.129 Q 356.966 65.695 356.723 66.184 L 356.723 66.184 L 356.723 66.184 Q 356.478 66.672 356.048 67.033 L 356.048 67.033 L 356.048 67.033 Q 355.619 67.395 355.042 67.609 L 355.042 67.609 L 355.042 67.609 Q 354.466 67.824 353.802 67.824 L 353.802 67.824 L 353.802 67.824 Q 353.119 67.824 352.542 67.609 L 352.542 67.609 L 352.542 67.609 Q 351.966 67.395 351.526 67.033 L 351.526 67.033 L 351.526 67.033 Q 351.087 66.672 350.844 66.184 L 350.844 66.184 L 350.844 66.184 Q 350.599 65.695 350.599 65.129 Z  M 195.345 86.34 L 195.345 86.34 L 195.345 86.34 Q 195.345 88.996 194.378 90.969 L 194.378 90.969 L 194.378 90.969 Q 193.412 92.941 191.731 94.26 L 191.731 94.26 L 191.731 94.26 Q 190.052 95.578 187.776 96.232 L 187.776 96.232 L 187.776 96.232 Q 185.502 96.887 182.903 96.887 L 182.903 96.887 L 182.903 96.887 Q 181.908 96.887 180.99 96.721 L 180.99 96.721 L 180.99 96.721 Q 180.072 96.555 179.369 96.262 L 179.369 96.262 L 179.369 96.262 Q 178.666 95.969 178.246 95.568 L 178.246 95.568 L 178.246 95.568 Q 177.826 95.168 177.826 94.699 L 177.826 94.699 L 177.826 94.699 Q 177.826 94.348 177.923 93.986 L 177.923 93.986 L 177.923 93.986 Q 178.02 93.625 178.216 93.332 L 178.216 93.332 L 178.216 93.332 Q 178.412 93.039 178.694 92.844 L 178.694 92.844 L 178.694 92.844 Q 178.979 92.648 179.33 92.648 L 179.33 92.648 L 179.33 92.648 Q 179.544 92.648 179.71 92.863 L 179.71 92.863 L 179.71 92.863 Q 179.877 93.078 180.052 93.4 L 180.052 93.4 L 180.052 93.4 Q 180.229 93.723 180.453 94.094 L 180.453 94.094 L 180.453 94.094 Q 180.677 94.465 181.039 94.787 L 181.039 94.787 L 181.039 94.787 Q 181.399 95.109 181.908 95.324 L 181.908 95.324 L 181.908 95.324 Q 182.416 95.539 183.177 95.539 L 183.177 95.539 L 183.177 95.539 Q 184.681 95.539 185.765 94.992 L 185.765 94.992 L 185.765 94.992 Q 186.85 94.445 187.552 93.449 L 187.552 93.449 L 187.552 93.449 Q 188.255 92.453 188.597 91.076 L 188.597 91.076 L 188.597 91.076 Q 188.938 89.699 188.938 88.059 L 188.938 88.059 L 188.938 63.781 L 188.938 63.781 Q 188.938 63.352 188.841 63.098 L 188.841 63.098 L 188.841 63.098 Q 188.744 62.844 188.567 62.697 L 188.567 62.697 L 188.567 62.697 Q 188.393 62.551 188.147 62.502 L 188.147 62.502 L 188.147 62.502 Q 187.903 62.453 187.61 62.453 L 187.61 62.453 L 187.61 62.453 Q 187.181 62.453 186.546 62.59 L 186.546 62.59 L 186.546 62.59 Q 185.912 62.727 185.209 63 L 185.209 63 L 185.209 63 Q 184.505 63.273 183.793 63.674 L 183.793 63.674 L 183.793 63.674 Q 183.08 64.074 182.522 64.582 L 182.522 64.582 L 182.522 64.582 Q 181.966 65.09 181.615 65.715 L 181.615 65.715 L 181.615 65.715 Q 181.263 66.34 181.263 67.062 L 181.263 67.062 L 181.263 67.062 Q 181.263 67.687 181.429 68.059 L 181.429 68.059 L 181.429 68.059 Q 181.595 68.43 181.811 68.615 L 181.811 68.615 L 181.811 68.615 Q 182.024 68.801 182.25 68.85 L 182.25 68.85 L 182.25 68.85 Q 182.475 68.898 182.572 68.898 L 182.572 68.898 L 182.572 68.898 Q 183.061 68.898 183.373 68.732 L 183.373 68.732 L 183.373 68.732 Q 183.686 68.566 183.938 68.381 L 183.938 68.381 L 183.938 68.381 Q 184.192 68.195 184.418 68.029 L 184.418 68.029 L 184.418 68.029 Q 184.643 67.863 184.936 67.863 L 184.936 67.863 L 184.936 67.863 Q 185.169 67.863 185.434 67.971 L 185.434 67.971 L 185.434 67.971 Q 185.697 68.078 185.921 68.312 L 185.921 68.312 L 185.921 68.312 Q 186.145 68.547 186.302 68.928 L 186.302 68.928 L 186.302 68.928 Q 186.459 69.309 186.459 69.855 L 186.459 69.855 L 186.459 69.855 Q 186.459 70.637 186.156 71.203 L 186.156 71.203 L 186.156 71.203 Q 185.854 71.77 185.375 72.15 L 185.375 72.15 L 185.375 72.15 Q 184.895 72.531 184.281 72.717 L 184.281 72.717 L 184.281 72.717 Q 183.666 72.902 183.061 72.902 L 183.061 72.902 L 183.061 72.902 Q 182.123 72.902 181.371 72.58 L 181.371 72.58 L 181.371 72.58 Q 180.619 72.258 180.091 71.691 L 180.091 71.691 L 180.091 71.691 Q 179.563 71.125 179.291 70.363 L 179.291 70.363 L 179.291 70.363 Q 179.018 69.602 179.018 68.742 L 179.018 68.742 L 179.018 68.742 Q 179.018 67.395 179.505 66.271 L 179.505 66.271 L 179.505 66.271 Q 179.994 65.148 180.843 64.25 L 180.843 64.25 L 180.843 64.25 Q 181.692 63.352 182.835 62.678 L 182.835 62.678 L 182.835 62.678 Q 183.979 62.004 185.306 61.555 L 185.306 61.555 L 185.306 61.555 Q 186.634 61.105 188.08 60.881 L 188.08 60.881 L 188.08 60.881 Q 189.524 60.656 190.97 60.656 L 190.97 60.656 L 190.97 60.656 Q 192.572 60.656 193.46 60.959 L 193.46 60.959 L 193.46 60.959 Q 194.35 61.262 194.77 61.691 L 194.77 61.691 L 194.77 61.691 Q 195.188 62.121 195.268 62.59 L 195.268 62.59 L 195.268 62.59 Q 195.345 63.059 195.345 63.371 L 195.345 63.371 L 195.345 86.34 L 195.345 86.34 Z  M 225.854 90.168 L 225.854 90.168 L 225.854 90.168 Q 224.856 90.168 224.212 89.982 L 224.212 89.982 L 224.212 89.982 Q 223.567 89.797 223.168 89.484 L 223.168 89.484 L 223.168 89.484 Q 222.768 89.172 222.572 88.791 L 222.572 88.791 L 222.572 88.791 Q 222.377 88.41 222.298 88.02 L 222.298 88.02 L 222.298 88.02 Q 221.067 88.918 219.466 89.543 L 219.466 89.543 L 219.466 89.543 Q 217.865 90.168 215.854 90.168 L 215.854 90.168 L 215.854 90.168 Q 214.056 90.168 212.522 89.66 L 212.522 89.66 L 212.522 89.66 Q 210.99 89.152 209.847 88.088 L 209.847 88.088 L 209.847 88.088 Q 208.705 87.023 208.061 85.354 L 208.061 85.354 L 208.061 85.354 Q 207.416 83.684 207.416 81.34 L 207.416 81.34 L 207.416 81.34 Q 207.416 79.621 207.475 78.254 L 207.475 78.254 L 207.475 78.254 Q 207.533 76.887 207.621 75.686 L 207.621 75.686 L 207.621 75.686 Q 207.709 74.484 207.815 73.371 L 207.815 73.371 L 207.815 73.371 Q 207.923 72.258 208.011 71.047 L 208.011 71.047 L 208.011 71.047 Q 208.1 69.836 208.158 68.449 L 208.158 68.449 L 208.158 68.449 Q 208.216 67.062 208.216 65.305 L 208.216 65.305 L 208.216 65.305 Q 208.216 64.758 208.108 64.26 L 208.108 64.26 L 208.108 64.26 Q 208.002 63.762 207.757 63.381 L 207.757 63.381 L 207.757 63.381 Q 207.513 63 207.084 62.766 L 207.084 62.766 L 207.084 62.766 Q 206.653 62.531 206.009 62.531 L 206.009 62.531 L 206.009 62.531 Q 205.384 62.531 204.447 62.834 L 204.447 62.834 L 204.447 62.834 Q 203.509 63.137 202.64 63.713 L 202.64 63.713 L 202.64 63.713 Q 201.77 64.289 201.156 65.139 L 201.156 65.139 L 201.156 65.139 Q 200.541 65.988 200.541 67.062 L 200.541 67.062 L 200.541 67.062 Q 200.541 67.687 200.707 68.059 L 200.707 68.059 L 200.707 68.059 Q 200.873 68.43 201.087 68.615 L 201.087 68.615 L 201.087 68.615 Q 201.302 68.801 201.526 68.85 L 201.526 68.85 L 201.526 68.85 Q 201.752 68.898 201.85 68.898 L 201.85 68.898 L 201.85 68.898 Q 202.337 68.898 202.649 68.732 L 202.649 68.732 L 202.649 68.732 Q 202.962 68.566 203.216 68.381 L 203.216 68.381 L 203.216 68.381 Q 203.47 68.195 203.694 68.029 L 203.694 68.029 L 203.694 68.029 Q 203.919 67.863 204.212 67.863 L 204.212 67.863 L 204.212 67.863 Q 204.447 67.863 204.71 67.971 L 204.71 67.971 L 204.71 67.971 Q 204.975 68.078 205.199 68.312 L 205.199 68.312 L 205.199 68.312 Q 205.423 68.547 205.58 68.928 L 205.58 68.928 L 205.58 68.928 Q 205.735 69.309 205.735 69.855 L 205.735 69.855 L 205.735 69.855 Q 205.735 70.637 205.434 71.203 L 205.434 71.203 L 205.434 71.203 Q 205.13 71.77 204.651 72.15 L 204.651 72.15 L 204.651 72.15 Q 204.173 72.531 203.559 72.717 L 203.559 72.717 L 203.559 72.717 Q 202.942 72.902 202.337 72.902 L 202.337 72.902 L 202.337 72.902 Q 201.399 72.902 200.647 72.58 L 200.647 72.58 L 200.647 72.58 Q 199.895 72.258 199.369 71.691 L 199.369 71.691 L 199.369 71.691 Q 198.841 71.125 198.567 70.363 L 198.567 70.363 L 198.567 70.363 Q 198.294 69.602 198.294 68.742 L 198.294 68.742 L 198.294 68.742 Q 198.294 67.395 198.744 66.271 L 198.744 66.271 L 198.744 66.271 Q 199.192 65.148 199.975 64.25 L 199.975 64.25 L 199.975 64.25 Q 200.755 63.352 201.781 62.678 L 201.781 62.678 L 201.781 62.678 Q 202.806 62.004 203.979 61.555 L 203.979 61.555 L 203.979 61.555 Q 205.149 61.105 206.38 60.881 L 206.38 60.881 L 206.38 60.881 Q 207.61 60.656 208.783 60.656 L 208.783 60.656 L 208.783 60.656 Q 210.13 60.656 211.078 60.939 L 211.078 60.939 L 211.078 60.939 Q 212.024 61.223 212.679 61.672 L 212.679 61.672 L 212.679 61.672 Q 213.334 62.121 213.714 62.668 L 213.714 62.668 L 213.714 62.668 Q 214.095 63.215 214.3 63.732 L 214.3 63.732 L 214.3 63.732 Q 214.505 64.25 214.563 64.67 L 214.563 64.67 L 214.563 64.67 Q 214.623 65.09 214.623 65.305 L 214.623 65.305 L 214.623 65.305 Q 214.623 66.887 214.563 68.205 L 214.563 68.205 L 214.563 68.205 Q 214.505 69.523 214.418 70.734 L 214.418 70.734 L 214.418 70.734 Q 214.33 71.945 214.222 73.107 L 214.222 73.107 L 214.222 73.107 Q 214.115 74.27 214.026 75.529 L 214.026 75.529 L 214.026 75.529 Q 213.938 76.789 213.88 78.205 L 213.88 78.205 L 213.88 78.205 Q 213.822 79.621 213.822 81.34 L 213.822 81.34 L 213.822 81.34 Q 213.822 83.469 214.242 84.768 L 214.242 84.768 L 214.242 84.768 Q 214.662 86.066 215.287 86.77 L 215.287 86.77 L 215.287 86.77 Q 215.912 87.473 216.625 87.707 L 216.625 87.707 L 216.625 87.707 Q 217.337 87.941 217.903 87.941 L 217.903 87.941 L 217.903 87.941 Q 218.979 87.941 220.082 87.59 L 220.082 87.59 L 220.082 87.59 Q 221.186 87.238 222.22 86.574 L 222.22 86.574 L 222.22 63.937 L 222.22 63.937 Q 222.22 63.371 221.977 63.029 L 221.977 63.029 L 221.977 63.029 Q 221.731 62.687 221.225 62.687 L 221.225 62.687 L 221.225 62.687 Q 220.677 62.687 220.209 62.883 L 220.209 62.883 L 220.209 62.883 Q 219.74 63.078 219.369 63.254 L 219.369 63.254 L 219.056 62.531 L 219.056 62.531 Q 219.544 62.277 220.248 61.955 L 220.248 61.955 L 220.248 61.955 Q 220.951 61.633 221.752 61.34 L 221.752 61.34 L 221.752 61.34 Q 222.552 61.047 223.393 60.852 L 223.393 60.852 L 223.393 60.852 Q 224.231 60.656 224.975 60.656 L 224.975 60.656 L 224.975 60.656 Q 226.302 60.656 227.035 60.998 L 227.035 60.998 L 227.035 60.998 Q 227.768 61.34 228.119 61.838 L 228.119 61.838 L 228.119 61.838 Q 228.47 62.336 228.539 62.902 L 228.539 62.902 L 228.539 62.902 Q 228.606 63.469 228.606 63.898 L 228.606 63.898 L 228.606 86.887 L 228.606 86.887 Q 228.606 87.453 228.86 87.795 L 228.86 87.795 L 228.86 87.795 Q 229.115 88.137 229.623 88.137 L 229.623 88.137 L 229.623 88.137 Q 230.149 88.137 230.619 87.951 L 230.619 87.951 L 230.619 87.951 Q 231.087 87.766 231.459 87.57 L 231.459 87.57 L 231.77 88.293 L 231.77 88.293 Q 231.283 88.547 230.58 88.869 L 230.58 88.869 L 230.58 88.869 Q 229.877 89.191 229.076 89.484 L 229.076 89.484 L 229.076 89.484 Q 228.274 89.777 227.436 89.973 L 227.436 89.973 L 227.436 89.973 Q 226.595 90.168 225.854 90.168 Z  M 240.326 92.687 L 240.326 92.687 L 240.326 92.687 Q 241.106 92.687 241.869 92.404 L 241.869 92.404 L 241.869 92.404 Q 242.63 92.121 243.227 91.467 L 243.227 91.467 L 243.227 91.467 Q 243.822 90.812 244.192 89.758 L 244.192 89.758 L 244.192 89.758 Q 244.563 88.703 244.563 87.18 L 244.563 87.18 L 244.563 87.18 Q 244.563 85.539 243.753 83.996 L 243.753 83.996 L 243.753 83.996 Q 242.942 82.453 241.722 80.959 L 241.722 80.959 L 241.722 80.959 Q 240.502 79.465 239.085 77.99 L 239.085 77.99 L 239.085 77.99 Q 237.669 76.516 236.449 74.982 L 236.449 74.982 L 236.449 74.982 Q 235.229 73.449 234.418 71.818 L 234.418 71.818 L 234.418 71.818 Q 233.606 70.187 233.606 68.41 L 233.606 68.41 L 233.606 68.41 Q 233.606 66.633 234.261 65.197 L 234.261 65.197 L 234.261 65.197 Q 234.916 63.762 236.039 62.756 L 236.039 62.756 L 236.039 62.756 Q 237.162 61.75 238.656 61.203 L 238.656 61.203 L 238.656 61.203 Q 240.149 60.656 241.85 60.656 L 241.85 60.656 L 241.85 60.656 Q 243.666 60.656 245.082 61.037 L 245.082 61.037 L 245.082 61.037 Q 246.498 61.418 247.483 62.072 L 247.483 62.072 L 247.483 62.072 Q 248.47 62.727 248.979 63.615 L 248.979 63.615 L 248.979 63.615 Q 249.485 64.504 249.485 65.5 L 249.485 65.5 L 249.485 65.5 Q 249.485 65.969 249.35 66.467 L 249.35 66.467 L 249.35 66.467 Q 249.212 66.965 248.919 67.375 L 248.919 67.375 L 248.919 67.375 Q 248.627 67.785 248.177 68.059 L 248.177 68.059 L 248.177 68.059 Q 247.729 68.332 247.123 68.332 L 247.123 68.332 L 247.123 68.332 Q 246.399 68.332 246.059 67.893 L 246.059 67.893 L 246.059 67.893 Q 245.716 67.453 245.55 66.809 L 245.55 66.809 L 245.55 66.809 Q 245.384 66.164 245.268 65.393 L 245.268 65.393 L 245.268 65.393 Q 245.149 64.621 244.895 63.977 L 244.895 63.977 L 244.895 63.977 Q 244.643 63.332 244.134 62.893 L 244.134 62.893 L 244.134 62.893 Q 243.627 62.453 242.649 62.453 L 242.649 62.453 L 242.649 62.453 Q 242.123 62.453 241.604 62.687 L 241.604 62.687 L 241.604 62.687 Q 241.087 62.922 240.668 63.4 L 240.668 63.4 L 240.668 63.4 Q 240.248 63.879 239.994 64.621 L 239.994 64.621 L 239.994 64.621 Q 239.74 65.363 239.74 66.379 L 239.74 66.379 L 239.74 66.379 Q 239.74 67.551 240.229 68.664 L 240.229 68.664 L 240.229 68.664 Q 240.716 69.777 241.518 70.861 L 241.518 70.861 L 241.518 70.861 Q 242.317 71.945 243.343 73.029 L 243.343 73.029 L 243.343 73.029 Q 244.369 74.113 245.434 75.217 L 245.434 75.217 L 245.434 75.217 Q 246.498 76.32 247.522 77.482 L 247.522 77.482 L 247.522 77.482 Q 248.548 78.645 249.35 79.895 L 249.35 79.895 L 249.35 79.895 Q 250.149 81.145 250.638 82.512 L 250.638 82.512 L 250.638 82.512 Q 251.127 83.879 251.127 85.383 L 251.127 85.383 L 251.127 85.383 Q 251.127 87.59 250.276 89.318 L 250.276 89.318 L 250.276 89.318 Q 249.427 91.047 247.972 92.229 L 247.972 92.229 L 247.972 92.229 Q 246.518 93.41 244.563 94.035 L 244.563 94.035 L 244.563 94.035 Q 242.61 94.66 240.403 94.66 L 240.403 94.66 L 240.403 94.66 Q 238.412 94.66 236.878 94.162 L 236.878 94.162 L 236.878 94.162 Q 235.345 93.664 234.291 92.844 L 234.291 92.844 L 234.291 92.844 Q 233.235 92.023 232.699 90.979 L 232.699 90.979 L 232.699 90.979 Q 232.162 89.934 232.162 88.82 L 232.162 88.82 L 232.162 88.82 Q 232.162 88.352 232.309 87.814 L 232.309 87.814 L 232.309 87.814 Q 232.455 87.277 232.737 86.828 L 232.737 86.828 L 232.737 86.828 Q 233.02 86.379 233.451 86.076 L 233.451 86.076 L 233.451 86.076 Q 233.88 85.773 234.447 85.773 L 234.447 85.773 L 234.447 85.773 Q 235.033 85.773 235.395 86.066 L 235.395 86.066 L 235.395 86.066 Q 235.755 86.359 235.97 86.848 L 235.97 86.848 L 235.97 86.848 Q 236.186 87.336 236.322 87.961 L 236.322 87.961 L 236.322 87.961 Q 236.459 88.586 236.615 89.23 L 236.615 89.23 L 236.615 89.23 Q 236.77 89.875 237.005 90.5 L 237.005 90.5 L 237.005 90.5 Q 237.24 91.125 237.649 91.613 L 237.649 91.613 L 237.649 91.613 Q 238.061 92.102 238.705 92.395 L 238.705 92.395 L 238.705 92.395 Q 239.35 92.687 240.326 92.687 Z " fill="url(#_lgradient_2)"/><path d=" M 412.932 67.31 L 412.54 66.76 L 417.881 61.596 L 417.881 61.596 Q 418.215 61.301 418.588 61.115 L 418.588 61.115 L 418.588 61.115 Q 418.961 60.928 419.334 60.928 L 419.334 60.928 L 419.334 60.928 Q 419.687 60.928 420.001 61.095 L 420.001 61.095 L 420.001 61.095 Q 420.316 61.262 420.551 61.537 L 420.551 61.537 L 420.551 61.537 Q 420.787 61.812 420.924 62.156 L 420.924 62.156 L 420.924 62.156 Q 421.062 62.499 421.062 62.853 L 421.062 62.853 L 421.062 62.853 Q 421.062 63.363 420.718 63.746 L 420.718 63.746 L 420.718 63.746 Q 420.375 64.129 419.903 64.345 L 419.903 64.345 L 412.932 67.31 L 412.932 67.31 Z " fill="rgb(109,109,109)"/></svg>