<?xml version="1.0" encoding="UTF-8" standalone="no"?>
<!-- Generator: Gravit.io -->
<svg xmlns="http://www.w3.org/2000/svg" xmlns:xlink="http://www.w3.org/1999/xlink" style="isolation:isolate" viewBox="0 0 512 120" width="512pt" height="120pt"><g><g><path d=" M 82.443 81.672 C 83.906 82.261 85.878 82.366 88.033 82.438 C 98.269 82.781 108.628 79.998 117.218 74.398 C 94.867 74.195 84.886 79.975 82.443 81.672 Z " fill="rgb(190,0,255)"/><path d=" M 129.357 60.506 C 130.167 59.333 130.919 58.13 131.61 56.894 C 120.386 59.741 99.944 65.379 90.431 70.873 C 83.519 74.865 81.399 78.88 80.973 81.847 L 80.973 81.847 C 85.847 73.336 102.802 70.915 113.965 69.671 C 120.18 68.978 125.805 65.653 129.357 60.506 Z " fill="rgb(255,37,129)"/><linearGradient id="_lgradient_2" x1="9.702246193121766e-7" y1="0.5" x2="1.0000021382715265" y2="0.5" gradientTransform="matrix(58.402,0,0,42.792,79.088,38.605)" gradientUnits="userSpaceOnUse"><stop offset="0%" stop-opacity="1" style="stop-color:rgb(255,110,48)"/><stop offset="100%" stop-opacity="1" style="stop-color:rgb(253,52,142)"/></linearGradient><path d=" M 98.849 60.828 C 108.585 56.663 118.904 53.247 127.502 50.944 C 133.113 49.442 137.173 44.514 137.484 38.714 C 137.486 38.677 137.488 38.641 137.489 38.605 C 137.489 38.605 117.027 45.075 104.377 50.593 C 98.576 53.123 92.69 56.143 87.939 60.323 C 82.93 64.73 77.452 70.526 79.546 81.397 C 80.192 74.9 86.153 66.258 98.849 60.828 Z " fill="url(#_lgradient_2)"/><linearGradient id="_lgradient_3" x1="1.1732936178177056e-8" y1="0.5000008998680795" x2="1" y2="0.5000008998680795" gradientTransform="matrix(77.89,0,0,69.387,78.132,1.394)" gradientUnits="userSpaceOnUse"><stop offset="0%" stop-opacity="1" style="stop-color:rgb(18,170,243)"/><stop offset="100%" stop-opacity="1" style="stop-color:rgb(44,218,184)"/></linearGradient><path d=" M 156.022 1.394 C 137.552 12.873 119.082 24.351 100.612 35.829 C 94.723 39.489 89.578 44.063 84.815 49.103 C 77.983 56.333 78.087 65.743 78.143 70.782 C 80.826 57.788 86.586 52.775 113.175 40.32 C 119.404 37.402 125.822 34.938 132.151 32.244 C 146.485 26.142 152.772 14.373 156.022 1.394 Z " fill="url(#_lgradient_3)"/></g><path d=" M 76.157 72.016 L 75.438 74.269 L 75.438 74.269 Q 73.425 73.742 71.436 73.238 L 71.436 73.238 L 71.436 73.238 Q 69.447 72.735 67.385 72.304 L 67.385 72.304 L 67.385 72.304 Q 64.941 77.288 62.209 82.082 L 62.209 82.082 L 62.209 82.082 Q 59.477 86.875 56.409 91.524 L 56.409 91.524 L 56.409 91.524 Q 54.06 95.071 51.161 98.474 L 51.161 98.474 L 51.161 98.474 Q 48.261 101.877 45.025 104.873 L 45.025 104.873 L 45.025 104.873 Q 41.79 107.869 38.315 110.385 L 38.315 110.385 L 38.315 110.385 Q 34.84 112.902 31.317 114.747 L 31.317 114.747 L 31.317 114.747 Q 27.794 116.593 24.319 117.599 L 24.319 117.599 L 24.319 117.599 Q 20.844 118.606 17.584 118.606 L 17.584 118.606 L 17.584 118.606 Q 14.661 118.606 11.689 117.575 L 11.689 117.575 L 11.689 117.575 Q 8.717 116.545 6.344 114.484 L 6.344 114.484 L 6.344 114.484 Q 3.972 112.422 2.486 109.331 L 2.486 109.331 L 2.486 109.331 Q 1 106.239 1 102.069 L 1 102.069 L 1 102.069 Q 1 99.912 1.503 97.516 L 1.503 97.516 L 1.503 97.516 Q 2.007 95.119 3.157 92.579 L 3.157 92.579 L 3.157 92.579 Q 4.307 90.038 6.129 87.378 L 6.129 87.378 L 6.129 87.378 Q 7.95 84.718 10.586 81.938 L 10.586 81.938 L 10.586 81.938 Q 14.085 78.247 18.423 75.563 L 18.423 75.563 L 18.423 75.563 Q 22.761 72.879 27.65 71.129 L 27.65 71.129 L 27.65 71.129 Q 32.539 69.38 37.86 68.541 L 37.86 68.541 L 37.86 68.541 Q 43.18 67.702 48.644 67.702 L 48.644 67.702 L 48.644 67.702 Q 52.239 67.702 55.81 68.038 L 55.81 68.038 L 55.81 68.038 Q 59.381 68.373 62.976 68.996 L 62.976 68.996 L 62.976 68.996 Q 65.516 63.724 67.577 58.499 L 67.577 58.499 L 67.577 58.499 Q 69.638 53.275 71.172 48.194 L 71.172 48.194 L 71.172 48.194 Q 73.473 40.429 74.479 34.725 L 74.479 34.725 L 74.479 34.725 Q 75.486 29.021 75.486 24.851 L 75.486 24.851 L 75.486 24.851 Q 75.486 21.304 74.911 18.74 L 74.911 18.74 L 74.911 18.74 Q 74.336 16.176 73.425 14.378 L 73.425 14.378 L 73.425 14.378 Q 72.514 12.581 71.316 11.454 L 71.316 11.454 L 71.316 11.454 Q 70.118 10.328 68.895 9.729 L 68.895 9.729 L 68.895 9.729 Q 67.673 9.13 66.499 8.914 L 66.499 8.914 L 66.499 8.914 Q 65.324 8.698 64.414 8.698 L 64.414 8.698 L 64.414 8.698 Q 60.579 8.698 57.559 10.52 L 57.559 10.52 L 57.559 10.52 Q 54.54 12.341 52.455 15.648 L 52.455 15.648 L 52.455 15.648 Q 50.37 18.956 49.267 23.629 L 49.267 23.629 L 49.267 23.629 Q 48.165 28.302 48.165 34.006 L 48.165 34.006 L 48.165 34.006 Q 48.165 38.464 48.932 42.25 L 48.932 42.25 L 48.932 42.25 Q 49.699 46.037 50.849 49.153 L 50.849 49.153 L 50.849 49.153 Q 51.999 52.268 53.365 54.665 L 53.365 54.665 L 53.365 54.665 Q 54.731 57.061 55.906 58.691 L 55.906 58.691 L 55.906 58.691 Q 57.08 60.321 57.847 61.183 L 57.847 61.183 L 57.847 61.183 Q 58.614 62.046 58.662 62.046 L 58.662 62.046 L 57.176 63.58 L 57.176 63.58 Q 54.108 60.944 51.424 57.732 L 51.424 57.732 L 51.424 57.732 Q 48.74 54.521 46.775 50.83 L 46.775 50.83 L 46.775 50.83 Q 44.81 47.139 43.659 42.993 L 43.659 42.993 L 43.659 42.993 Q 42.509 38.847 42.509 34.294 L 42.509 34.294 L 42.509 34.294 Q 42.509 29.117 43.995 24.084 L 43.995 24.084 L 43.995 24.084 Q 45.481 19.051 48.309 15.049 L 48.309 15.049 L 48.309 15.049 Q 51.137 11.047 55.259 8.602 L 55.259 8.602 L 55.259 8.602 Q 59.381 6.158 64.653 6.158 L 64.653 6.158 L 64.653 6.158 Q 65.852 6.158 67.433 6.397 L 67.433 6.397 L 67.433 6.397 Q 69.015 6.637 70.693 7.38 L 70.693 7.38 L 70.693 7.38 Q 72.37 8.123 74.024 9.465 L 74.024 9.465 L 74.024 9.465 Q 75.678 10.807 76.948 13.036 L 76.948 13.036 L 76.948 13.036 Q 78.218 15.265 79.009 18.5 L 79.009 18.5 L 79.009 18.5 Q 79.8 21.736 79.8 26.241 L 79.8 26.241 L 79.8 26.241 Q 79.8 28.302 79.608 30.627 L 79.608 30.627 L 79.608 30.627 Q 79.416 32.952 79.033 35.636 L 79.033 35.636 L 79.033 35.636 Q 77.691 44.551 75.007 53.155 L 75.007 53.155 L 75.007 53.155 Q 72.322 61.759 68.44 70.099 L 68.44 70.099 L 68.44 70.099 Q 70.453 70.53 72.37 71.009 L 72.37 71.009 L 72.37 71.009 Q 74.288 71.489 76.157 72.016 L 76.157 72.016 Z  M 17.536 116.113 L 17.536 116.113 L 17.536 116.113 Q 21.131 116.305 25.014 114.723 L 25.014 114.723 L 25.014 114.723 Q 28.896 113.141 32.827 110.146 L 32.827 110.146 L 32.827 110.146 Q 36.757 107.15 40.664 102.932 L 40.664 102.932 L 40.664 102.932 Q 44.57 98.714 48.285 93.681 L 48.285 93.681 L 48.285 93.681 Q 51.999 88.648 55.427 82.992 L 55.427 82.992 L 55.427 82.992 Q 58.854 77.336 61.825 71.393 L 61.825 71.393 L 61.825 71.393 Q 59.381 71.057 56.96 70.866 L 56.96 70.866 L 56.96 70.866 Q 54.54 70.674 51.999 70.674 L 51.999 70.674 L 51.999 70.674 Q 44.522 70.674 38.171 72.352 L 38.171 72.352 L 38.171 72.352 Q 31.82 74.029 26.62 76.809 L 26.62 76.809 L 26.62 76.809 Q 21.419 79.589 17.441 83.184 L 17.441 83.184 L 17.441 83.184 Q 13.462 86.779 10.778 90.59 L 10.778 90.59 L 10.778 90.59 Q 8.094 94.4 6.704 98.163 L 6.704 98.163 L 6.704 98.163 Q 5.314 101.925 5.314 105.041 L 5.314 105.041 L 5.314 105.041 Q 5.314 107.485 6.153 109.523 L 6.153 109.523 L 6.153 109.523 Q 6.991 111.56 8.549 113.022 L 8.549 113.022 L 8.549 113.022 Q 10.107 114.484 12.384 115.298 L 12.384 115.298 L 12.384 115.298 Q 14.661 116.113 17.536 116.113 Z " fill="rgb(0,0,0)"/></g><line x1="159.509" y1="98.107" x2="159.509" y2="21.893" vector-effect="non-scaling-stroke" stroke-width="1" stroke="rgb(96,96,96)" stroke-linejoin="miter" stroke-linecap="square" stroke-miterlimit="3"/><linearGradient id="_lgradient_4" x1="0.43180785861697896" y1="1.0912264860797607" x2="0.5121310338925011" y2="0.043340857787811604" gradientTransform="matrix(331.992,0,0,43.262,176.643,38.125)" gradientUnits="userSpaceOnUse"><stop offset="2.083333333333333%" stop-opacity="1" style="stop-color:rgb(74,86,104)"/><stop offset="52.916666666666664%" stop-opacity="1" style="stop-color:rgb(142,142,142)"/><stop offset="100%" stop-opacity="1" style="stop-color:rgb(0,0,0)"/></linearGradient><path d=" M 382.893 46.836 L 382.893 46.836 L 382.893 46.836 Q 382.366 46.836 381.663 47.051 L 381.663 47.051 L 381.663 47.051 Q 380.96 47.266 380.227 47.861 L 380.227 47.861 L 380.227 47.861 Q 379.495 48.457 378.792 49.531 L 378.792 49.531 L 378.792 49.531 Q 378.088 50.605 377.532 52.314 L 377.532 52.314 L 377.532 52.314 Q 376.975 54.023 376.633 56.465 L 376.633 56.465 L 376.633 56.465 Q 376.292 58.906 376.292 62.227 L 376.292 62.227 L 376.292 62.227 Q 376.292 65.391 376.633 67.715 L 376.633 67.715 L 376.633 67.715 Q 376.975 70.039 377.551 71.67 L 377.551 71.67 L 377.551 71.67 Q 378.128 73.301 378.87 74.336 L 378.87 74.336 L 378.87 74.336 Q 379.612 75.371 380.432 75.947 L 380.432 75.947 L 380.432 75.947 Q 381.253 76.523 382.073 76.738 L 382.073 76.738 L 382.073 76.738 Q 382.893 76.953 383.616 76.953 L 383.616 76.953 L 383.616 76.953 Q 384.378 76.953 385.159 76.758 L 385.159 76.758 L 385.159 76.758 Q 385.94 76.562 386.692 76.191 L 386.692 76.191 L 386.692 76.191 Q 387.444 75.82 388.137 75.293 L 388.137 75.293 L 388.137 75.293 Q 388.831 74.766 389.417 74.082 L 389.417 74.082 L 390.296 74.961 L 390.296 74.961 Q 389.71 75.684 388.889 76.436 L 388.889 76.436 L 388.889 76.436 Q 388.069 77.187 386.985 77.803 L 386.985 77.803 L 386.985 77.803 Q 385.901 78.418 384.553 78.809 L 384.553 78.809 L 384.553 78.809 Q 383.206 79.199 381.565 79.199 L 381.565 79.199 L 381.565 79.199 Q 379.006 79.199 376.809 78.223 L 376.809 78.223 L 376.809 78.223 Q 374.612 77.246 372.981 75.186 L 372.981 75.186 L 372.981 75.186 Q 371.35 73.125 370.422 69.902 L 370.422 69.902 L 370.422 69.902 Q 369.495 66.68 369.495 62.187 L 369.495 62.187 L 369.495 62.187 Q 369.495 57.969 370.471 54.785 L 370.471 54.785 L 370.471 54.785 Q 371.448 51.602 373.128 49.463 L 373.128 49.463 L 373.128 49.463 Q 374.807 47.324 377.073 46.24 L 377.073 46.24 L 377.073 46.24 Q 379.338 45.156 381.897 45.156 L 381.897 45.156 L 381.897 45.156 Q 383.596 45.156 384.993 45.479 L 384.993 45.479 L 384.993 45.479 Q 386.389 45.801 387.405 46.416 L 387.405 46.416 L 387.405 46.416 Q 388.421 47.031 388.977 47.939 L 388.977 47.939 L 388.977 47.939 Q 389.534 48.848 389.534 50 L 389.534 50 L 389.534 50 Q 389.534 50.527 389.358 51.104 L 389.358 51.104 L 389.358 51.104 Q 389.182 51.68 388.821 52.158 L 388.821 52.158 L 388.821 52.158 Q 388.46 52.637 387.932 52.939 L 387.932 52.939 L 387.932 52.939 Q 387.405 53.242 386.702 53.242 L 386.702 53.242 L 386.702 53.242 Q 386.077 53.242 385.735 52.969 L 385.735 52.969 L 385.735 52.969 Q 385.393 52.695 385.227 52.246 L 385.227 52.246 L 385.227 52.246 Q 385.061 51.797 385.012 51.221 L 385.012 51.221 L 385.012 51.221 Q 384.963 50.645 384.944 50.039 L 384.944 50.039 L 384.944 50.039 Q 384.924 49.434 384.856 48.857 L 384.856 48.857 L 384.856 48.857 Q 384.788 48.281 384.583 47.832 L 384.583 47.832 L 384.583 47.832 Q 384.378 47.383 383.987 47.109 L 383.987 47.109 L 383.987 47.109 Q 383.596 46.836 382.893 46.836 Z  M 398.362 58.203 L 398.362 58.203 L 398.362 58.203 Q 399.104 57.07 399.944 56.152 L 399.944 56.152 L 399.944 56.152 Q 400.296 55.762 400.706 55.391 L 400.706 55.391 L 400.706 55.391 Q 401.116 55.02 401.555 54.727 L 401.555 54.727 L 401.555 54.727 Q 401.995 54.434 402.463 54.258 L 402.463 54.258 L 402.463 54.258 Q 402.932 54.082 403.401 54.082 L 403.401 54.082 L 403.401 54.082 Q 404.397 54.082 404.963 54.678 L 404.963 54.678 L 404.963 54.678 Q 405.53 55.273 405.53 56.348 L 405.53 56.348 L 405.53 56.348 Q 405.53 57.012 405.422 57.627 L 405.422 57.627 L 405.422 57.627 Q 405.315 58.242 405.003 59.121 L 405.003 59.121 L 404.456 59.121 L 404.456 59.121 Q 404.338 58.516 403.909 58.115 L 403.909 58.115 L 403.909 58.115 Q 403.479 57.715 402.659 57.715 L 402.659 57.715 L 402.659 57.715 Q 402.053 57.715 401.467 57.939 L 401.467 57.939 L 401.467 57.939 Q 400.881 58.164 400.325 58.496 L 400.325 58.496 L 400.325 58.496 Q 399.768 58.828 399.27 59.219 L 399.27 59.219 L 399.27 59.219 Q 398.772 59.609 398.362 59.961 L 398.362 59.961 L 398.362 72.637 L 398.362 72.637 Q 398.362 72.891 398.284 73.242 L 398.284 73.242 L 398.284 73.242 Q 398.206 73.594 397.903 73.906 L 397.903 73.906 L 397.903 73.906 Q 397.6 74.219 397.004 74.443 L 397.004 74.443 L 397.004 74.443 Q 396.409 74.668 395.374 74.668 L 395.374 74.668 L 395.374 74.668 Q 394.338 74.668 393.743 74.424 L 393.743 74.424 L 393.743 74.424 Q 393.147 74.18 392.835 73.848 L 392.835 73.848 L 392.835 73.848 Q 392.522 73.516 392.444 73.164 L 392.444 73.164 L 392.444 73.164 Q 392.366 72.812 392.366 72.598 L 392.366 72.598 L 392.366 57.52 L 392.366 57.52 Q 392.366 56.953 392.102 56.533 L 392.102 56.533 L 392.102 56.533 Q 391.838 56.113 391.213 56.113 L 391.213 56.113 L 391.213 56.113 Q 390.881 56.113 390.647 56.23 L 390.647 56.23 L 390.647 56.23 Q 390.413 56.348 390.139 56.562 L 390.139 56.562 L 389.729 56.074 L 389.729 56.074 Q 390.178 55.703 390.735 55.342 L 390.735 55.342 L 390.735 55.342 Q 391.292 54.98 391.936 54.707 L 391.936 54.707 L 391.936 54.707 Q 392.581 54.434 393.323 54.258 L 393.323 54.258 L 393.323 54.258 Q 394.065 54.082 394.885 54.082 L 394.885 54.082 L 394.885 54.082 Q 395.725 54.082 396.321 54.307 L 396.321 54.307 L 396.321 54.307 Q 396.917 54.531 397.297 54.893 L 397.297 54.893 L 397.297 54.893 Q 397.678 55.254 397.893 55.703 L 397.893 55.703 L 397.893 55.703 Q 398.108 56.152 398.215 56.611 L 398.215 56.611 L 398.215 56.611 Q 398.323 57.07 398.342 57.49 L 398.342 57.49 L 398.342 57.49 Q 398.362 57.91 398.362 58.203 Z  M 419.963 60.84 L 412.249 65.391 L 412.249 65.391 Q 412.249 66.016 412.434 66.748 L 412.434 66.748 L 412.434 66.748 Q 412.62 67.48 412.971 68.223 L 412.971 68.223 L 412.971 68.223 Q 413.323 68.965 413.84 69.639 L 413.84 69.639 L 413.84 69.639 Q 414.358 70.312 415.032 70.84 L 415.032 70.84 L 415.032 70.84 Q 415.706 71.367 416.526 71.68 L 416.526 71.68 L 416.526 71.68 Q 417.346 71.992 418.323 71.992 L 418.323 71.992 L 418.323 71.992 Q 419.006 71.992 419.592 71.836 L 419.592 71.836 L 419.592 71.836 Q 420.178 71.68 420.686 71.406 L 420.686 71.406 L 420.686 71.406 Q 421.194 71.133 421.663 70.771 L 421.663 70.771 L 421.663 70.771 Q 422.131 70.41 422.6 70 L 422.6 70 L 423.088 70.469 L 423.088 70.469 Q 422.639 71.074 421.936 71.797 L 421.936 71.797 L 421.936 71.797 Q 421.233 72.52 420.237 73.154 L 420.237 73.154 L 420.237 73.154 Q 419.241 73.789 417.913 74.209 L 417.913 74.209 L 417.913 74.209 Q 416.585 74.629 414.885 74.629 L 414.885 74.629 L 414.885 74.629 Q 413.186 74.629 411.575 74.014 L 411.575 74.014 L 411.575 74.014 Q 409.963 73.398 408.713 72.168 L 408.713 72.168 L 408.713 72.168 Q 407.463 70.937 406.712 69.102 L 406.712 69.102 L 406.712 69.102 Q 405.96 67.266 405.96 64.805 L 405.96 64.805 L 405.96 64.805 Q 405.96 63.027 406.409 61.543 L 406.409 61.543 L 406.409 61.543 Q 406.858 60.059 407.629 58.867 L 407.629 58.867 L 407.629 58.867 Q 408.401 57.676 409.426 56.777 L 409.426 56.777 L 409.426 56.777 Q 410.452 55.879 411.585 55.283 L 411.585 55.283 L 411.585 55.283 Q 412.717 54.687 413.899 54.385 L 413.899 54.385 L 413.899 54.385 Q 415.081 54.082 416.174 54.082 L 416.174 54.082 L 416.174 54.082 Q 417.62 54.082 418.694 54.395 L 418.694 54.395 L 418.694 54.395 Q 419.768 54.707 420.481 55.234 L 420.481 55.234 L 420.481 55.234 Q 421.194 55.762 421.546 56.455 L 421.546 56.455 L 421.546 56.455 Q 421.897 57.148 421.897 57.91 L 421.897 57.91 L 421.897 57.91 Q 421.897 58.828 421.37 59.561 L 421.37 59.561 L 421.37 59.561 Q 420.842 60.293 419.963 60.84 L 419.963 60.84 L 419.963 60.84 Z  M 412.053 63.789 L 416.174 61.426 L 416.174 61.426 Q 416.428 61.27 416.594 61.123 L 416.594 61.123 L 416.594 61.123 Q 416.76 60.977 416.858 60.771 L 416.858 60.771 L 416.858 60.771 Q 416.956 60.566 417.004 60.264 L 417.004 60.264 L 417.004 60.264 Q 417.053 59.961 417.053 59.512 L 417.053 59.512 L 417.053 59.512 Q 417.053 59.023 416.946 58.428 L 416.946 58.428 L 416.946 58.428 Q 416.838 57.832 416.585 57.305 L 416.585 57.305 L 416.585 57.305 Q 416.331 56.777 415.94 56.426 L 415.94 56.426 L 415.94 56.426 Q 415.549 56.074 415.003 56.074 L 415.003 56.074 L 415.003 56.074 Q 414.299 56.074 413.801 56.494 L 413.801 56.494 L 413.801 56.494 Q 413.303 56.914 412.981 57.578 L 412.981 57.578 L 412.981 57.578 Q 412.659 58.242 412.473 59.092 L 412.473 59.092 L 412.473 59.092 Q 412.288 59.941 412.19 60.801 L 412.19 60.801 L 412.19 60.801 Q 412.092 61.66 412.073 62.451 L 412.073 62.451 L 412.073 62.451 Q 412.053 63.242 412.053 63.789 L 412.053 63.789 L 412.053 63.789 Z  M 434.514 69.004 L 434.514 64.238 L 434.514 64.238 Q 434.514 63.75 434.202 63.496 L 434.202 63.496 L 434.202 63.496 Q 433.889 63.242 433.401 63.242 L 433.401 63.242 L 433.401 63.242 Q 432.717 63.242 432.102 63.555 L 432.102 63.555 L 432.102 63.555 Q 431.487 63.867 431.018 64.473 L 431.018 64.473 L 431.018 64.473 Q 430.549 65.078 430.276 65.967 L 430.276 65.967 L 430.276 65.967 Q 430.003 66.855 430.003 68.027 L 430.003 68.027 L 430.003 68.027 Q 430.003 69.16 430.169 69.902 L 430.169 69.902 L 430.169 69.902 Q 430.335 70.645 430.618 71.084 L 430.618 71.084 L 430.618 71.084 Q 430.901 71.523 431.272 71.699 L 431.272 71.699 L 431.272 71.699 Q 431.643 71.875 432.053 71.875 L 432.053 71.875 L 432.053 71.875 Q 432.561 71.875 433.01 71.611 L 433.01 71.611 L 433.01 71.611 Q 433.46 71.348 433.792 70.937 L 433.792 70.937 L 433.792 70.937 Q 434.124 70.527 434.319 70.02 L 434.319 70.02 L 434.319 70.02 Q 434.514 69.512 434.514 69.004 L 434.514 69.004 L 434.514 69.004 Z  M 431.409 55.684 L 431.409 55.684 L 431.409 55.684 Q 430.745 55.684 430.178 55.84 L 430.178 55.84 L 430.178 55.84 Q 429.612 55.996 429.202 56.23 L 429.202 56.23 L 429.202 56.23 Q 428.792 56.465 428.557 56.748 L 428.557 56.748 L 428.557 56.748 Q 428.323 57.031 428.323 57.285 L 428.323 57.285 L 428.323 57.285 Q 428.323 57.578 428.626 57.705 L 428.626 57.705 L 428.626 57.705 Q 428.928 57.832 429.299 57.998 L 429.299 57.998 L 429.299 57.998 Q 429.671 58.164 429.973 58.467 L 429.973 58.467 L 429.973 58.467 Q 430.276 58.77 430.276 59.395 L 430.276 59.395 L 430.276 59.395 Q 430.276 59.805 430.11 60.146 L 430.11 60.146 L 430.11 60.146 Q 429.944 60.488 429.661 60.752 L 429.661 60.752 L 429.661 60.752 Q 429.378 61.016 428.997 61.162 L 428.997 61.162 L 428.997 61.162 Q 428.616 61.309 428.206 61.309 L 428.206 61.309 L 428.206 61.309 Q 427.112 61.309 426.438 60.566 L 426.438 60.566 L 426.438 60.566 Q 425.764 59.824 425.764 58.594 L 425.764 58.594 L 425.764 58.594 Q 425.764 57.402 426.389 56.553 L 426.389 56.553 L 426.389 56.553 Q 427.014 55.703 428.02 55.156 L 428.02 55.156 L 428.02 55.156 Q 429.026 54.609 430.296 54.346 L 430.296 54.346 L 430.296 54.346 Q 431.565 54.082 432.835 54.082 L 432.835 54.082 L 432.835 54.082 Q 434.358 54.082 435.745 54.414 L 435.745 54.414 L 435.745 54.414 Q 437.131 54.746 438.196 55.469 L 438.196 55.469 L 438.196 55.469 Q 439.26 56.191 439.895 57.305 L 439.895 57.305 L 439.895 57.305 Q 440.53 58.418 440.53 60 L 440.53 60 L 440.53 71.035 L 440.53 71.035 Q 440.53 71.211 440.549 71.426 L 440.549 71.426 L 440.549 71.426 Q 440.569 71.641 440.647 71.816 L 440.647 71.816 L 440.647 71.816 Q 440.725 71.992 440.881 72.109 L 440.881 72.109 L 440.881 72.109 Q 441.038 72.227 441.331 72.227 L 441.331 72.227 L 441.331 72.227 Q 441.682 72.227 441.985 71.963 L 441.985 71.963 L 441.985 71.963 Q 442.288 71.699 442.522 71.426 L 442.522 71.426 L 443.01 71.836 L 443.01 71.836 Q 442.717 72.246 442.307 72.734 L 442.307 72.734 L 442.307 72.734 Q 441.897 73.223 441.311 73.652 L 441.311 73.652 L 441.311 73.652 Q 440.725 74.082 439.944 74.375 L 439.944 74.375 L 439.944 74.375 Q 439.163 74.668 438.167 74.668 L 438.167 74.668 L 438.167 74.668 Q 436.936 74.668 435.979 73.936 L 435.979 73.936 L 435.979 73.936 Q 435.022 73.203 434.729 71.68 L 434.729 71.68 L 434.729 71.68 Q 434.104 72.52 433.43 73.086 L 433.43 73.086 L 433.43 73.086 Q 432.756 73.652 432.053 74.004 L 432.053 74.004 L 432.053 74.004 Q 431.35 74.355 430.637 74.512 L 430.637 74.512 L 430.637 74.512 Q 429.924 74.668 429.202 74.668 L 429.202 74.668 L 429.202 74.668 Q 428.264 74.668 427.385 74.375 L 427.385 74.375 L 427.385 74.375 Q 426.506 74.082 425.813 73.447 L 425.813 73.447 L 425.813 73.447 Q 425.12 72.812 424.7 71.797 L 424.7 71.797 L 424.7 71.797 Q 424.28 70.781 424.28 69.316 L 424.28 69.316 L 424.28 69.316 Q 424.28 67.539 424.983 66.406 L 424.983 66.406 L 424.983 66.406 Q 425.686 65.273 426.829 64.502 L 426.829 64.502 L 426.829 64.502 Q 427.971 63.73 429.426 63.184 L 429.426 63.184 L 429.426 63.184 Q 430.881 62.637 432.405 62.031 L 432.405 62.031 L 432.405 62.031 Q 433.538 61.582 434.055 60.693 L 434.055 60.693 L 434.055 60.693 Q 434.573 59.805 434.573 58.867 L 434.573 58.867 L 434.573 58.867 Q 434.573 57.422 433.723 56.553 L 433.723 56.553 L 433.723 56.553 Q 432.874 55.684 431.409 55.684 Z  M 455.003 55.762 L 451.975 55.762 L 451.975 70.195 L 451.975 70.195 Q 451.975 71.23 452.366 71.631 L 452.366 71.631 L 452.366 71.631 Q 452.756 72.031 453.44 72.031 L 453.44 72.031 L 453.44 72.031 Q 453.967 72.031 454.378 71.738 L 454.378 71.738 L 454.378 71.738 Q 454.788 71.445 455.081 71.074 L 455.081 71.074 L 455.081 71.074 Q 455.432 70.664 455.686 70.117 L 455.686 70.117 L 456.292 70.391 L 456.292 70.391 Q 455.999 71.016 455.598 71.758 L 455.598 71.758 L 455.598 71.758 Q 455.198 72.5 454.534 73.135 L 454.534 73.135 L 454.534 73.135 Q 453.87 73.77 452.864 74.199 L 452.864 74.199 L 452.864 74.199 Q 451.858 74.629 450.335 74.629 L 450.335 74.629 L 450.335 74.629 Q 449.475 74.629 448.684 74.375 L 448.684 74.375 L 448.684 74.375 Q 447.893 74.121 447.278 73.574 L 447.278 73.574 L 447.278 73.574 Q 446.663 73.027 446.292 72.207 L 446.292 72.207 L 446.292 72.207 Q 445.921 71.387 445.921 70.234 L 445.921 70.234 L 445.921 55.762 L 443.733 55.762 L 443.733 54.355 L 443.733 54.355 Q 444.28 54.355 445.256 54.072 L 445.256 54.072 L 445.256 54.072 Q 446.233 53.789 447.258 53.125 L 447.258 53.125 L 447.258 53.125 Q 448.284 52.461 449.163 51.348 L 449.163 51.348 L 449.163 51.348 Q 450.042 50.234 450.413 48.594 L 450.413 48.594 L 451.975 48.594 L 451.975 54.355 L 455.159 54.355 L 455.159 54.355 Q 456.721 54.355 456.721 53.828 L 456.721 53.828 L 456.721 53.828 Q 456.721 53.633 456.526 53.564 L 456.526 53.564 L 456.526 53.564 Q 456.331 53.496 456.087 53.389 L 456.087 53.389 L 456.087 53.389 Q 455.842 53.281 455.647 53.086 L 455.647 53.086 L 455.647 53.086 Q 455.452 52.891 455.452 52.441 L 455.452 52.441 L 455.452 52.441 Q 455.452 51.895 455.794 51.582 L 455.794 51.582 L 455.794 51.582 Q 456.135 51.27 456.682 51.27 L 456.682 51.27 L 456.682 51.27 Q 457.034 51.27 457.297 51.416 L 457.297 51.416 L 457.297 51.416 Q 457.561 51.562 457.737 51.807 L 457.737 51.807 L 457.737 51.807 Q 457.913 52.051 458.001 52.363 L 458.001 52.363 L 458.001 52.363 Q 458.088 52.676 458.088 52.988 L 458.088 52.988 L 458.088 52.988 Q 458.088 54.258 457.356 55.01 L 457.356 55.01 L 457.356 55.01 Q 456.624 55.762 455.003 55.762 L 455.003 55.762 L 455.003 55.762 Z  M 465.745 57.324 L 465.745 72.598 L 465.745 72.598 Q 465.745 72.852 465.657 73.213 L 465.657 73.213 L 465.657 73.213 Q 465.569 73.574 465.247 73.896 L 465.247 73.896 L 465.247 73.896 Q 464.924 74.219 464.319 74.443 L 464.319 74.443 L 464.319 74.443 Q 463.713 74.668 462.678 74.668 L 462.678 74.668 L 462.678 74.668 Q 461.643 74.668 461.057 74.424 L 461.057 74.424 L 461.057 74.424 Q 460.471 74.18 460.178 73.848 L 460.178 73.848 L 460.178 73.848 Q 459.885 73.516 459.817 73.164 L 459.817 73.164 L 459.817 73.164 Q 459.749 72.812 459.749 72.598 L 459.749 72.598 L 459.749 57.52 L 459.749 57.52 Q 459.749 56.953 459.485 56.533 L 459.485 56.533 L 459.485 56.533 Q 459.221 56.113 458.596 56.113 L 458.596 56.113 L 458.596 56.113 Q 458.264 56.113 458.03 56.23 L 458.03 56.23 L 458.03 56.23 Q 457.796 56.348 457.522 56.562 L 457.522 56.562 L 457.112 56.074 L 457.112 56.074 Q 457.561 55.703 458.118 55.342 L 458.118 55.342 L 458.118 55.342 Q 458.674 54.98 459.319 54.707 L 459.319 54.707 L 459.319 54.707 Q 459.963 54.434 460.706 54.258 L 460.706 54.258 L 460.706 54.258 Q 461.448 54.082 462.268 54.082 L 462.268 54.082 L 462.268 54.082 Q 463.538 54.082 464.241 54.424 L 464.241 54.424 L 464.241 54.424 Q 464.944 54.766 465.276 55.264 L 465.276 55.264 L 465.276 55.264 Q 465.608 55.762 465.676 56.328 L 465.676 56.328 L 465.676 56.328 Q 465.745 56.895 465.745 57.324 L 465.745 57.324 L 465.745 57.324 Z  M 459.143 49.629 L 459.143 49.629 L 459.143 49.629 Q 459.143 49.082 459.387 48.584 L 459.387 48.584 L 459.387 48.584 Q 459.631 48.086 460.071 47.715 L 460.071 47.715 L 460.071 47.715 Q 460.51 47.344 461.087 47.129 L 461.087 47.129 L 461.087 47.129 Q 461.663 46.914 462.346 46.914 L 462.346 46.914 L 462.346 46.914 Q 463.01 46.914 463.587 47.129 L 463.587 47.129 L 463.587 47.129 Q 464.163 47.344 464.592 47.715 L 464.592 47.715 L 464.592 47.715 Q 465.022 48.086 465.266 48.584 L 465.266 48.584 L 465.266 48.584 Q 465.51 49.082 465.51 49.629 L 465.51 49.629 L 465.51 49.629 Q 465.51 50.195 465.266 50.684 L 465.266 50.684 L 465.266 50.684 Q 465.022 51.172 464.592 51.533 L 464.592 51.533 L 464.592 51.533 Q 464.163 51.895 463.587 52.109 L 463.587 52.109 L 463.587 52.109 Q 463.01 52.324 462.346 52.324 L 462.346 52.324 L 462.346 52.324 Q 461.663 52.324 461.087 52.109 L 461.087 52.109 L 461.087 52.109 Q 460.51 51.895 460.071 51.533 L 460.071 51.533 L 460.071 51.533 Q 459.631 51.172 459.387 50.684 L 459.387 50.684 L 459.387 50.684 Q 459.143 50.195 459.143 49.629 Z  M 469.417 64.355 L 469.417 64.355 L 469.417 64.355 Q 469.417 61.797 470.159 59.873 L 470.159 59.873 L 470.159 59.873 Q 470.901 57.949 472.141 56.66 L 472.141 56.66 L 472.141 56.66 Q 473.381 55.371 475.022 54.727 L 475.022 54.727 L 475.022 54.727 Q 476.663 54.082 478.46 54.082 L 478.46 54.082 L 478.46 54.082 Q 480.256 54.082 481.897 54.678 L 481.897 54.678 L 481.897 54.678 Q 483.538 55.273 484.778 56.504 L 484.778 56.504 L 484.778 56.504 Q 486.018 57.734 486.76 59.619 L 486.76 59.619 L 486.76 59.619 Q 487.503 61.504 487.503 64.082 L 487.503 64.082 L 487.503 64.082 Q 487.503 66.641 486.76 68.613 L 486.76 68.613 L 486.76 68.613 Q 486.018 70.586 484.778 71.934 L 484.778 71.934 L 484.778 71.934 Q 483.538 73.281 481.897 73.975 L 481.897 73.975 L 481.897 73.975 Q 480.256 74.668 478.46 74.668 L 478.46 74.668 L 478.46 74.668 Q 476.663 74.668 475.022 74.014 L 475.022 74.014 L 475.022 74.014 Q 473.381 73.359 472.141 72.07 L 472.141 72.07 L 472.141 72.07 Q 470.901 70.781 470.159 68.848 L 470.159 68.848 L 470.159 68.848 Q 469.417 66.914 469.417 64.355 Z  M 481.428 64.16 L 481.428 64.16 L 481.428 64.16 Q 481.428 62.598 481.321 61.143 L 481.321 61.143 L 481.321 61.143 Q 481.213 59.687 480.901 58.555 L 480.901 58.555 L 480.901 58.555 Q 480.588 57.422 480.003 56.748 L 480.003 56.748 L 480.003 56.748 Q 479.417 56.074 478.46 56.074 L 478.46 56.074 L 478.46 56.074 Q 477.503 56.074 476.917 56.787 L 476.917 56.787 L 476.917 56.787 Q 476.331 57.5 476.018 58.662 L 476.018 58.662 L 476.018 58.662 Q 475.706 59.824 475.608 61.309 L 475.608 61.309 L 475.608 61.309 Q 475.51 62.793 475.51 64.355 L 475.51 64.355 L 475.51 64.355 Q 475.51 65.918 475.608 67.412 L 475.608 67.412 L 475.608 67.412 Q 475.706 68.906 476.018 70.078 L 476.018 70.078 L 476.018 70.078 Q 476.331 71.25 476.917 71.963 L 476.917 71.963 L 476.917 71.963 Q 477.503 72.676 478.46 72.676 L 478.46 72.676 L 478.46 72.676 Q 479.417 72.676 480.003 71.934 L 480.003 71.934 L 480.003 71.934 Q 480.588 71.191 480.901 69.98 L 480.901 69.98 L 480.901 69.98 Q 481.213 68.77 481.321 67.246 L 481.321 67.246 L 481.321 67.246 Q 481.428 65.723 481.428 64.16 Z  M 502.639 64.629 L 502.639 64.629 L 502.639 64.629 Q 502.639 62.168 502.415 60.693 L 502.415 60.693 L 502.415 60.693 Q 502.19 59.219 501.819 58.447 L 501.819 58.447 L 501.819 58.447 Q 501.448 57.676 500.999 57.432 L 500.999 57.432 L 500.999 57.432 Q 500.549 57.187 500.081 57.187 L 500.081 57.187 L 500.081 57.187 Q 499.514 57.187 499.075 57.49 L 499.075 57.49 L 499.075 57.49 Q 498.635 57.793 498.313 58.184 L 498.313 58.184 L 498.313 58.184 Q 497.991 58.574 497.766 58.965 L 497.766 58.965 L 497.766 58.965 Q 497.542 59.355 497.385 59.551 L 497.385 59.551 L 497.385 72.598 L 497.385 72.598 Q 497.385 72.852 497.307 73.213 L 497.307 73.213 L 497.307 73.213 Q 497.229 73.574 496.926 73.896 L 496.926 73.896 L 496.926 73.896 Q 496.624 74.219 496.028 74.443 L 496.028 74.443 L 496.028 74.443 Q 495.432 74.668 494.397 74.668 L 494.397 74.668 L 494.397 74.668 Q 493.362 74.668 492.766 74.424 L 492.766 74.424 L 492.766 74.424 Q 492.171 74.18 491.858 73.848 L 491.858 73.848 L 491.858 73.848 Q 491.546 73.516 491.467 73.164 L 491.467 73.164 L 491.467 73.164 Q 491.389 72.812 491.389 72.598 L 491.389 72.598 L 491.389 57.52 L 491.389 57.52 Q 491.389 56.953 491.126 56.533 L 491.126 56.533 L 491.126 56.533 Q 490.862 56.113 490.237 56.113 L 490.237 56.113 L 490.237 56.113 Q 489.905 56.113 489.671 56.23 L 489.671 56.23 L 489.671 56.23 Q 489.436 56.348 489.163 56.562 L 489.163 56.562 L 488.753 56.074 L 488.753 56.074 Q 489.202 55.703 489.758 55.342 L 489.758 55.342 L 489.758 55.342 Q 490.315 54.98 490.96 54.707 L 490.96 54.707 L 490.96 54.707 Q 491.604 54.434 492.346 54.258 L 492.346 54.258 L 492.346 54.258 Q 493.088 54.082 493.909 54.082 L 493.909 54.082 L 493.909 54.082 Q 495.178 54.082 495.881 54.502 L 495.881 54.502 L 495.881 54.502 Q 496.585 54.922 496.917 55.508 L 496.917 55.508 L 496.917 55.508 Q 497.249 56.094 497.317 56.729 L 497.317 56.729 L 497.317 56.729 Q 497.385 57.363 497.385 57.793 L 497.385 57.793 L 497.385 57.793 Q 498.108 56.758 499.026 55.937 L 499.026 55.937 L 499.026 55.937 Q 499.397 55.586 499.856 55.254 L 499.856 55.254 L 499.856 55.254 Q 500.315 54.922 500.833 54.658 L 500.833 54.658 L 500.833 54.658 Q 501.35 54.395 501.926 54.238 L 501.926 54.238 L 501.926 54.238 Q 502.503 54.082 503.108 54.082 L 503.108 54.082 L 503.108 54.082 Q 504.436 54.082 505.462 54.59 L 505.462 54.59 L 505.462 54.59 Q 506.487 55.098 507.19 56.289 L 507.19 56.289 L 507.19 56.289 Q 507.893 57.48 508.264 59.443 L 508.264 59.443 L 508.264 59.443 Q 508.635 61.406 508.635 64.316 L 508.635 64.316 L 508.635 64.316 Q 508.635 67.148 508.128 69.238 L 508.128 69.238 L 508.128 69.238 Q 507.62 71.328 506.799 72.793 L 506.799 72.793 L 506.799 72.793 Q 505.979 74.258 504.944 75.186 L 504.944 75.186 L 504.944 75.186 Q 503.909 76.113 502.854 76.641 L 502.854 76.641 L 502.854 76.641 Q 501.799 77.168 500.833 77.373 L 500.833 77.373 L 500.833 77.373 Q 499.866 77.578 499.163 77.598 L 499.163 77.598 L 498.948 76.797 L 498.948 76.797 Q 499.534 76.66 500.032 76.367 L 500.032 76.367 L 500.032 76.367 Q 500.53 76.074 500.94 75.508 L 500.94 75.508 L 500.94 75.508 Q 501.35 74.941 501.663 74.072 L 501.663 74.072 L 501.663 74.072 Q 501.975 73.203 502.2 71.895 L 502.2 71.895 L 502.2 71.895 Q 502.424 70.586 502.532 68.799 L 502.532 68.799 L 502.532 68.799 Q 502.639 67.012 502.639 64.629 Z  M 282.229 67.363 L 280.315 67.363 L 273.284 53.359 L 273.03 58.066 L 273.03 58.066 Q 272.913 60.117 272.825 62.139 L 272.825 62.139 L 272.825 62.139 Q 272.737 64.16 272.503 65.986 L 272.503 65.986 L 272.503 65.986 Q 272.268 67.812 271.77 69.375 L 271.77 69.375 L 271.77 69.375 Q 271.272 70.937 270.325 72.08 L 270.325 72.08 L 270.325 72.08 Q 269.378 73.223 267.864 73.867 L 267.864 73.867 L 267.864 73.867 Q 266.35 74.512 264.085 74.512 L 264.085 74.512 L 264.085 74.512 Q 263.088 74.512 262.171 74.346 L 262.171 74.346 L 262.171 74.346 Q 261.253 74.18 260.549 73.887 L 260.549 73.887 L 260.549 73.887 Q 259.846 73.594 259.426 73.193 L 259.426 73.193 L 259.426 73.193 Q 259.006 72.793 259.006 72.324 L 259.006 72.324 L 259.006 72.324 Q 259.006 71.973 259.104 71.611 L 259.104 71.611 L 259.104 71.611 Q 259.202 71.25 259.397 70.947 L 259.397 70.947 L 259.397 70.947 Q 259.592 70.645 259.876 70.459 L 259.876 70.459 L 259.876 70.459 Q 260.159 70.273 260.51 70.273 L 260.51 70.273 L 260.51 70.273 Q 260.725 70.273 260.891 70.488 L 260.891 70.488 L 260.891 70.488 Q 261.057 70.703 261.233 71.025 L 261.233 71.025 L 261.233 71.025 Q 261.409 71.348 261.633 71.719 L 261.633 71.719 L 261.633 71.719 Q 261.858 72.09 262.219 72.412 L 262.219 72.412 L 262.219 72.412 Q 262.581 72.734 263.088 72.949 L 263.088 72.949 L 263.088 72.949 Q 263.596 73.164 264.358 73.164 L 264.358 73.164 L 264.358 73.164 Q 265.862 73.164 266.887 72.646 L 266.887 72.646 L 266.887 72.646 Q 267.913 72.129 268.577 71.152 L 268.577 71.152 L 268.577 71.152 Q 269.241 70.176 269.592 68.789 L 269.592 68.789 L 269.592 68.789 Q 269.944 67.402 270.12 65.645 L 270.12 65.645 L 270.12 65.645 Q 270.198 64.668 270.276 63.76 L 270.276 63.76 L 270.276 63.76 Q 270.354 62.852 270.432 61.953 L 270.432 61.953 L 270.432 61.953 Q 270.51 61.055 270.579 60.127 L 270.579 60.127 L 270.579 60.127 Q 270.647 59.199 270.725 58.164 L 270.725 58.164 L 270.725 58.164 Q 270.823 56.66 270.901 55.303 L 270.901 55.303 L 270.901 55.303 Q 270.979 53.945 271.028 52.773 L 271.028 52.773 L 271.028 52.773 Q 271.077 51.602 271.106 50.664 L 271.106 50.664 L 271.106 50.664 Q 271.135 49.727 271.155 49.043 L 271.155 49.043 L 271.155 49.043 Q 270.823 48.359 270.569 47.939 L 270.569 47.939 L 270.569 47.939 Q 270.315 47.52 270.042 47.295 L 270.042 47.295 L 270.042 47.295 Q 269.768 47.07 269.436 46.992 L 269.436 46.992 L 269.436 46.992 Q 269.104 46.914 268.635 46.914 L 268.635 46.914 L 268.635 46.914 Q 268.245 46.914 267.669 47.061 L 267.669 47.061 L 267.669 47.061 Q 267.092 47.207 266.477 47.48 L 266.477 47.48 L 266.477 47.48 Q 265.862 47.754 265.247 48.154 L 265.247 48.154 L 265.247 48.154 Q 264.631 48.555 264.153 49.072 L 264.153 49.072 L 264.153 49.072 Q 263.674 49.59 263.372 50.215 L 263.372 50.215 L 263.372 50.215 Q 263.069 50.84 263.069 51.562 L 263.069 51.562 L 263.069 51.562 Q 263.069 52.187 263.235 52.559 L 263.235 52.559 L 263.235 52.559 Q 263.401 52.93 263.626 53.115 L 263.626 53.115 L 263.626 53.115 Q 263.85 53.301 264.075 53.35 L 264.075 53.35 L 264.075 53.35 Q 264.299 53.398 264.397 53.398 L 264.397 53.398 L 264.397 53.398 Q 264.885 53.398 265.198 53.232 L 265.198 53.232 L 265.198 53.232 Q 265.51 53.066 265.764 52.881 L 265.764 52.881 L 265.764 52.881 Q 266.018 52.695 266.243 52.529 L 266.243 52.529 L 266.243 52.529 Q 266.467 52.363 266.76 52.363 L 266.76 52.363 L 266.76 52.363 Q 266.995 52.363 267.258 52.471 L 267.258 52.471 L 267.258 52.471 Q 267.522 52.578 267.747 52.812 L 267.747 52.812 L 267.747 52.812 Q 267.971 53.047 268.128 53.428 L 268.128 53.428 L 268.128 53.428 Q 268.284 53.809 268.284 54.355 L 268.284 54.355 L 268.284 54.355 Q 268.284 55.137 267.981 55.703 L 267.981 55.703 L 267.981 55.703 Q 267.678 56.27 267.2 56.65 L 267.2 56.65 L 267.2 56.65 Q 266.721 57.031 266.106 57.217 L 266.106 57.217 L 266.106 57.217 Q 265.491 57.402 264.885 57.402 L 264.885 57.402 L 264.885 57.402 Q 263.948 57.402 263.196 57.08 L 263.196 57.08 L 263.196 57.08 Q 262.444 56.758 261.917 56.191 L 261.917 56.191 L 261.917 56.191 Q 261.389 55.625 261.116 54.863 L 261.116 54.863 L 261.116 54.863 Q 260.842 54.102 260.842 53.242 L 260.842 53.242 L 260.842 53.242 Q 260.842 51.211 261.78 49.697 L 261.78 49.697 L 261.78 49.697 Q 262.717 48.184 264.241 47.168 L 264.241 47.168 L 264.241 47.168 Q 265.764 46.152 267.688 45.654 L 267.688 45.654 L 267.688 45.654 Q 269.612 45.156 271.604 45.156 L 271.604 45.156 L 271.604 45.156 Q 273.206 45.156 274.28 45.479 L 274.28 45.479 L 274.28 45.479 Q 275.354 45.801 276.077 46.338 L 276.077 46.338 L 276.077 46.338 Q 276.799 46.875 277.268 47.598 L 277.268 47.598 L 277.268 47.598 Q 277.737 48.32 278.128 49.121 L 278.128 49.121 L 283.284 59.59 L 283.284 59.59 Q 285.296 55.625 286.946 52.49 L 286.946 52.49 L 286.946 52.49 Q 288.596 49.355 290.003 46.973 L 290.003 46.973 L 290.003 46.973 Q 291.409 44.59 292.629 42.91 L 292.629 42.91 L 292.629 42.91 Q 293.85 41.23 294.993 40.166 L 294.993 40.166 L 294.993 40.166 Q 296.135 39.102 297.258 38.613 L 297.258 38.613 L 297.258 38.613 Q 298.381 38.125 299.592 38.125 L 299.592 38.125 L 299.592 38.125 Q 300.628 38.125 301.272 38.564 L 301.272 38.564 L 301.272 38.564 Q 301.917 39.004 301.917 39.883 L 301.917 39.883 L 301.917 39.883 Q 301.917 40.664 301.663 41.172 L 301.663 41.172 L 301.663 41.172 Q 301.409 41.68 300.96 41.68 L 300.96 41.68 L 300.96 41.68 Q 300.588 41.68 300.393 41.396 L 300.393 41.396 L 300.393 41.396 Q 300.198 41.113 300.012 40.781 L 300.012 40.781 L 300.012 40.781 Q 299.827 40.449 299.553 40.166 L 299.553 40.166 L 299.553 40.166 Q 299.28 39.883 298.753 39.883 L 298.753 39.883 L 298.753 39.883 Q 298.44 39.883 297.991 40.059 L 297.991 40.059 L 297.991 40.059 Q 297.542 40.234 297.063 40.586 L 297.063 40.586 L 297.063 40.586 Q 296.585 40.937 296.116 41.465 L 296.116 41.465 L 296.116 41.465 Q 295.647 41.992 295.296 42.695 L 295.296 42.695 L 295.296 42.695 Q 294.944 43.398 294.749 44.297 L 294.749 44.297 L 294.749 44.297 Q 294.553 45.195 294.631 46.27 L 294.631 46.27 L 294.631 46.27 Q 294.71 47.5 294.846 49.15 L 294.846 49.15 L 294.846 49.15 Q 294.983 50.801 295.149 52.686 L 295.149 52.686 L 295.149 52.686 Q 295.315 54.57 295.501 56.582 L 295.501 56.582 L 295.501 56.582 Q 295.686 58.594 295.881 60.547 L 295.881 60.547 L 295.881 60.547 Q 296.077 62.5 296.262 64.297 L 296.262 64.297 L 296.262 64.297 Q 296.448 66.094 296.604 67.549 L 296.604 67.549 L 296.604 67.549 Q 296.76 69.004 296.897 70.01 L 296.897 70.01 L 296.897 70.01 Q 297.034 71.016 297.112 71.387 L 297.112 71.387 L 297.112 71.387 Q 297.229 71.953 297.424 72.295 L 297.424 72.295 L 297.424 72.295 Q 297.62 72.637 298.128 72.637 L 298.128 72.637 L 298.128 72.637 Q 298.655 72.637 299.124 72.451 L 299.124 72.451 L 299.124 72.451 Q 299.592 72.266 299.963 72.07 L 299.963 72.07 L 300.276 72.793 L 300.276 72.793 Q 299.924 73.047 299.387 73.369 L 299.387 73.369 L 299.387 73.369 Q 298.85 73.691 298.157 73.984 L 298.157 73.984 L 298.157 73.984 Q 297.463 74.277 296.633 74.473 L 296.633 74.473 L 296.633 74.473 Q 295.803 74.668 294.846 74.668 L 294.846 74.668 L 294.846 74.668 Q 293.499 74.668 292.717 74.326 L 292.717 74.326 L 292.717 74.326 Q 291.936 73.984 291.516 73.486 L 291.516 73.486 L 291.516 73.486 Q 291.096 72.988 290.95 72.432 L 290.95 72.432 L 290.95 72.432 Q 290.803 71.875 290.725 71.426 L 290.725 71.426 L 290.725 71.426 Q 290.549 70.43 290.354 69.023 L 290.354 69.023 L 290.354 69.023 Q 290.159 67.617 289.973 66.006 L 289.973 66.006 L 289.973 66.006 Q 289.788 64.395 289.612 62.686 L 289.612 62.686 L 289.612 62.686 Q 289.436 60.977 289.29 59.346 L 289.29 59.346 L 289.29 59.346 Q 289.143 57.715 289.026 56.27 L 289.026 56.27 L 289.026 56.27 Q 288.909 54.824 288.831 53.75 L 288.831 53.75 L 288.831 53.75 Q 288.245 54.707 287.747 55.596 L 287.747 55.596 L 287.747 55.596 Q 287.249 56.484 286.78 57.412 L 286.78 57.412 L 286.78 57.412 Q 286.311 58.34 285.823 59.355 L 285.823 59.355 L 285.823 59.355 Q 285.335 60.371 284.797 61.562 L 284.797 61.562 L 284.797 61.562 Q 284.26 62.754 283.626 64.18 L 283.626 64.18 L 283.626 64.18 Q 282.991 65.605 282.229 67.363 L 282.229 67.363 L 282.229 67.363 Z  M 319.827 56.914 L 319.827 70.957 L 319.827 70.957 Q 319.827 71.133 319.846 71.338 L 319.846 71.338 L 319.846 71.338 Q 319.866 71.543 319.944 71.729 L 319.944 71.729 L 319.944 71.729 Q 320.022 71.914 320.178 72.031 L 320.178 72.031 L 320.178 72.031 Q 320.335 72.148 320.628 72.148 L 320.628 72.148 L 320.628 72.148 Q 320.999 72.148 321.292 71.885 L 321.292 71.885 L 321.292 71.885 Q 321.585 71.621 321.838 71.348 L 321.838 71.348 L 322.307 71.758 L 322.307 71.758 Q 322.014 72.168 321.575 72.666 L 321.575 72.666 L 321.575 72.666 Q 321.135 73.164 320.51 73.613 L 320.51 73.613 L 320.51 73.613 Q 319.885 74.062 319.085 74.365 L 319.085 74.365 L 319.085 74.365 Q 318.284 74.668 317.268 74.668 L 317.268 74.668 L 317.268 74.668 Q 316.409 74.668 315.774 74.443 L 315.774 74.443 L 315.774 74.443 Q 315.139 74.219 314.7 73.838 L 314.7 73.838 L 314.7 73.838 Q 314.26 73.457 314.046 72.939 L 314.046 72.939 L 314.046 72.939 Q 313.831 72.422 313.831 71.836 L 313.831 71.836 L 313.831 70.957 L 313.831 70.957 Q 312.854 72.012 311.78 72.812 L 311.78 72.812 L 311.78 72.812 Q 311.311 73.164 310.784 73.496 L 310.784 73.496 L 310.784 73.496 Q 310.256 73.828 309.69 74.092 L 309.69 74.092 L 309.69 74.092 Q 309.124 74.355 308.518 74.512 L 308.518 74.512 L 308.518 74.512 Q 307.913 74.668 307.307 74.668 L 307.307 74.668 L 307.307 74.668 Q 306.135 74.668 305.305 74.248 L 305.305 74.248 L 305.305 74.248 Q 304.475 73.828 303.967 73.145 L 303.967 73.145 L 303.967 73.145 Q 303.46 72.461 303.225 71.602 L 303.225 71.602 L 303.225 71.602 Q 302.991 70.742 302.991 69.883 L 302.991 69.883 L 302.991 57.793 L 302.991 57.793 Q 302.991 57.617 302.971 57.412 L 302.971 57.412 L 302.971 57.412 Q 302.952 57.207 302.874 57.021 L 302.874 57.021 L 302.874 57.021 Q 302.796 56.836 302.639 56.719 L 302.639 56.719 L 302.639 56.719 Q 302.483 56.602 302.19 56.602 L 302.19 56.602 L 302.19 56.602 Q 301.838 56.602 301.536 56.865 L 301.536 56.865 L 301.536 56.865 Q 301.233 57.129 300.999 57.402 L 300.999 57.402 L 300.51 56.992 L 300.51 56.992 Q 300.803 56.582 301.243 56.084 L 301.243 56.084 L 301.243 56.084 Q 301.682 55.586 302.307 55.137 L 302.307 55.137 L 302.307 55.137 Q 302.932 54.687 303.743 54.385 L 303.743 54.385 L 303.743 54.385 Q 304.553 54.082 305.549 54.082 L 305.549 54.082 L 305.549 54.082 Q 306.409 54.082 307.053 54.307 L 307.053 54.307 L 307.053 54.307 Q 307.698 54.531 308.128 54.912 L 308.128 54.912 L 308.128 54.912 Q 308.557 55.293 308.772 55.811 L 308.772 55.811 L 308.772 55.811 Q 308.987 56.328 308.987 56.914 L 308.987 56.914 L 308.987 69.961 L 308.987 69.961 Q 308.987 70.234 309.075 70.518 L 309.075 70.518 L 309.075 70.518 Q 309.163 70.801 309.329 71.035 L 309.329 71.035 L 309.329 71.035 Q 309.495 71.27 309.749 71.416 L 309.749 71.416 L 309.749 71.416 Q 310.003 71.562 310.354 71.562 L 310.354 71.562 L 310.354 71.562 Q 310.921 71.562 311.487 71.27 L 311.487 71.27 L 311.487 71.27 Q 312.053 70.977 312.522 70.576 L 312.522 70.576 L 312.522 70.576 Q 312.991 70.176 313.333 69.785 L 313.333 69.785 L 313.333 69.785 Q 313.674 69.395 313.831 69.199 L 313.831 69.199 L 313.831 57.793 L 313.831 57.793 Q 313.831 57.617 313.811 57.412 L 313.811 57.412 L 313.811 57.412 Q 313.792 57.207 313.713 57.021 L 313.713 57.021 L 313.713 57.021 Q 313.635 56.836 313.479 56.719 L 313.479 56.719 L 313.479 56.719 Q 313.323 56.602 313.03 56.602 L 313.03 56.602 L 313.03 56.602 Q 312.678 56.602 312.376 56.865 L 312.376 56.865 L 312.376 56.865 Q 312.073 57.129 311.838 57.402 L 311.838 57.402 L 311.35 56.992 L 311.35 56.992 Q 311.643 56.582 312.083 56.084 L 312.083 56.084 L 312.083 56.084 Q 312.522 55.586 313.147 55.137 L 313.147 55.137 L 313.147 55.137 Q 313.772 54.687 314.583 54.385 L 314.583 54.385 L 314.583 54.385 Q 315.393 54.082 316.389 54.082 L 316.389 54.082 L 316.389 54.082 Q 317.249 54.082 317.893 54.307 L 317.893 54.307 L 317.893 54.307 Q 318.538 54.531 318.967 54.912 L 318.967 54.912 L 318.967 54.912 Q 319.397 55.293 319.612 55.811 L 319.612 55.811 L 319.612 55.811 Q 319.827 56.328 319.827 56.914 L 319.827 56.914 L 319.827 56.914 Z  M 330.999 47.187 L 330.999 72.637 L 330.999 72.637 Q 330.999 72.891 330.911 73.242 L 330.911 73.242 L 330.911 73.242 Q 330.823 73.594 330.501 73.906 L 330.501 73.906 L 330.501 73.906 Q 330.178 74.219 329.563 74.443 L 329.563 74.443 L 329.563 74.443 Q 328.948 74.668 327.913 74.668 L 327.913 74.668 L 327.913 74.668 Q 326.878 74.668 326.292 74.424 L 326.292 74.424 L 326.292 74.424 Q 325.706 74.18 325.422 73.848 L 325.422 73.848 L 325.422 73.848 Q 325.139 73.516 325.071 73.164 L 325.071 73.164 L 325.071 73.164 Q 325.003 72.812 325.003 72.598 L 325.003 72.598 L 325.003 47.402 L 325.003 47.402 Q 325.003 46.836 324.739 46.416 L 324.739 46.416 L 324.739 46.416 Q 324.475 45.996 323.85 45.996 L 323.85 45.996 L 323.85 45.996 Q 323.518 45.996 323.274 46.104 L 323.274 46.104 L 323.274 46.104 Q 323.03 46.211 322.756 46.426 L 322.756 46.426 L 322.366 45.957 L 322.366 45.957 Q 322.815 45.586 323.362 45.225 L 323.362 45.225 L 323.362 45.225 Q 323.909 44.863 324.563 44.59 L 324.563 44.59 L 324.563 44.59 Q 325.217 44.316 325.96 44.141 L 325.96 44.141 L 325.96 44.141 Q 326.702 43.965 327.522 43.965 L 327.522 43.965 L 327.522 43.965 Q 328.792 43.965 329.495 44.307 L 329.495 44.307 L 329.495 44.307 Q 330.198 44.648 330.53 45.146 L 330.53 45.146 L 330.53 45.146 Q 330.862 45.645 330.93 46.201 L 330.93 46.201 L 330.93 46.201 Q 330.999 46.758 330.999 47.187 L 330.999 47.187 L 330.999 47.187 Z  M 345.276 55.762 L 342.249 55.762 L 342.249 70.195 L 342.249 70.195 Q 342.249 71.23 342.639 71.631 L 342.639 71.631 L 342.639 71.631 Q 343.03 72.031 343.713 72.031 L 343.713 72.031 L 343.713 72.031 Q 344.241 72.031 344.651 71.738 L 344.651 71.738 L 344.651 71.738 Q 345.061 71.445 345.354 71.074 L 345.354 71.074 L 345.354 71.074 Q 345.706 70.664 345.96 70.117 L 345.96 70.117 L 346.565 70.391 L 346.565 70.391 Q 346.272 71.016 345.872 71.758 L 345.872 71.758 L 345.872 71.758 Q 345.471 72.5 344.807 73.135 L 344.807 73.135 L 344.807 73.135 Q 344.143 73.77 343.137 74.199 L 343.137 74.199 L 343.137 74.199 Q 342.131 74.629 340.608 74.629 L 340.608 74.629 L 340.608 74.629 Q 339.749 74.629 338.958 74.375 L 338.958 74.375 L 338.958 74.375 Q 338.167 74.121 337.551 73.574 L 337.551 73.574 L 337.551 73.574 Q 336.936 73.027 336.565 72.207 L 336.565 72.207 L 336.565 72.207 Q 336.194 71.387 336.194 70.234 L 336.194 70.234 L 336.194 55.762 L 334.006 55.762 L 334.006 54.355 L 334.006 54.355 Q 334.553 54.355 335.53 54.072 L 335.53 54.072 L 335.53 54.072 Q 336.506 53.789 337.532 53.125 L 337.532 53.125 L 337.532 53.125 Q 338.557 52.461 339.436 51.348 L 339.436 51.348 L 339.436 51.348 Q 340.315 50.234 340.686 48.594 L 340.686 48.594 L 342.249 48.594 L 342.249 54.355 L 345.432 54.355 L 345.432 54.355 Q 346.995 54.355 346.995 53.828 L 346.995 53.828 L 346.995 53.828 Q 346.995 53.633 346.799 53.564 L 346.799 53.564 L 346.799 53.564 Q 346.604 53.496 346.36 53.389 L 346.36 53.389 L 346.36 53.389 Q 346.116 53.281 345.921 53.086 L 345.921 53.086 L 345.921 53.086 Q 345.725 52.891 345.725 52.441 L 345.725 52.441 L 345.725 52.441 Q 345.725 51.895 346.067 51.582 L 346.067 51.582 L 346.067 51.582 Q 346.409 51.27 346.956 51.27 L 346.956 51.27 L 346.956 51.27 Q 347.307 51.27 347.571 51.416 L 347.571 51.416 L 347.571 51.416 Q 347.835 51.562 348.01 51.807 L 348.01 51.807 L 348.01 51.807 Q 348.186 52.051 348.274 52.363 L 348.274 52.363 L 348.274 52.363 Q 348.362 52.676 348.362 52.988 L 348.362 52.988 L 348.362 52.988 Q 348.362 54.258 347.629 55.01 L 347.629 55.01 L 347.629 55.01 Q 346.897 55.762 345.276 55.762 L 345.276 55.762 L 345.276 55.762 Z  M 356.018 57.324 L 356.018 72.598 L 356.018 72.598 Q 356.018 72.852 355.93 73.213 L 355.93 73.213 L 355.93 73.213 Q 355.842 73.574 355.52 73.896 L 355.52 73.896 L 355.52 73.896 Q 355.198 74.219 354.592 74.443 L 354.592 74.443 L 354.592 74.443 Q 353.987 74.668 352.952 74.668 L 352.952 74.668 L 352.952 74.668 Q 351.917 74.668 351.331 74.424 L 351.331 74.424 L 351.331 74.424 Q 350.745 74.18 350.452 73.848 L 350.452 73.848 L 350.452 73.848 Q 350.159 73.516 350.09 73.164 L 350.09 73.164 L 350.09 73.164 Q 350.022 72.812 350.022 72.598 L 350.022 72.598 L 350.022 57.52 L 350.022 57.52 Q 350.022 56.953 349.758 56.533 L 349.758 56.533 L 349.758 56.533 Q 349.495 56.113 348.87 56.113 L 348.87 56.113 L 348.87 56.113 Q 348.538 56.113 348.303 56.23 L 348.303 56.23 L 348.303 56.23 Q 348.069 56.348 347.796 56.562 L 347.796 56.562 L 347.385 56.074 L 347.385 56.074 Q 347.835 55.703 348.391 55.342 L 348.391 55.342 L 348.391 55.342 Q 348.948 54.98 349.592 54.707 L 349.592 54.707 L 349.592 54.707 Q 350.237 54.434 350.979 54.258 L 350.979 54.258 L 350.979 54.258 Q 351.721 54.082 352.542 54.082 L 352.542 54.082 L 352.542 54.082 Q 353.811 54.082 354.514 54.424 L 354.514 54.424 L 354.514 54.424 Q 355.217 54.766 355.549 55.264 L 355.549 55.264 L 355.549 55.264 Q 355.881 55.762 355.95 56.328 L 355.95 56.328 L 355.95 56.328 Q 356.018 56.895 356.018 57.324 L 356.018 57.324 L 356.018 57.324 Z  M 349.417 49.629 L 349.417 49.629 L 349.417 49.629 Q 349.417 49.082 349.661 48.584 L 349.661 48.584 L 349.661 48.584 Q 349.905 48.086 350.344 47.715 L 350.344 47.715 L 350.344 47.715 Q 350.784 47.344 351.36 47.129 L 351.36 47.129 L 351.36 47.129 Q 351.936 46.914 352.62 46.914 L 352.62 46.914 L 352.62 46.914 Q 353.284 46.914 353.86 47.129 L 353.86 47.129 L 353.86 47.129 Q 354.436 47.344 354.866 47.715 L 354.866 47.715 L 354.866 47.715 Q 355.296 48.086 355.54 48.584 L 355.54 48.584 L 355.54 48.584 Q 355.784 49.082 355.784 49.629 L 355.784 49.629 L 355.784 49.629 Q 355.784 50.195 355.54 50.684 L 355.54 50.684 L 355.54 50.684 Q 355.296 51.172 354.866 51.533 L 354.866 51.533 L 354.866 51.533 Q 354.436 51.895 353.86 52.109 L 353.86 52.109 L 353.86 52.109 Q 353.284 52.324 352.62 52.324 L 352.62 52.324 L 352.62 52.324 Q 351.936 52.324 351.36 52.109 L 351.36 52.109 L 351.36 52.109 Q 350.784 51.895 350.344 51.533 L 350.344 51.533 L 350.344 51.533 Q 349.905 51.172 349.661 50.684 L 349.661 50.684 L 349.661 50.684 Q 349.417 50.195 349.417 49.629 Z  M 194.163 70.84 L 194.163 70.84 L 194.163 70.84 Q 194.163 73.496 193.196 75.469 L 193.196 75.469 L 193.196 75.469 Q 192.229 77.441 190.549 78.76 L 190.549 78.76 L 190.549 78.76 Q 188.87 80.078 186.594 80.732 L 186.594 80.732 L 186.594 80.732 Q 184.319 81.387 181.721 81.387 L 181.721 81.387 L 181.721 81.387 Q 180.725 81.387 179.807 81.221 L 179.807 81.221 L 179.807 81.221 Q 178.889 81.055 178.186 80.762 L 178.186 80.762 L 178.186 80.762 Q 177.483 80.469 177.063 80.068 L 177.063 80.068 L 177.063 80.068 Q 176.643 79.668 176.643 79.199 L 176.643 79.199 L 176.643 79.199 Q 176.643 78.848 176.741 78.486 L 176.741 78.486 L 176.741 78.486 Q 176.838 78.125 177.034 77.832 L 177.034 77.832 L 177.034 77.832 Q 177.229 77.539 177.512 77.344 L 177.512 77.344 L 177.512 77.344 Q 177.796 77.148 178.147 77.148 L 178.147 77.148 L 178.147 77.148 Q 178.362 77.148 178.528 77.363 L 178.528 77.363 L 178.528 77.363 Q 178.694 77.578 178.87 77.9 L 178.87 77.9 L 178.87 77.9 Q 179.046 78.223 179.27 78.594 L 179.27 78.594 L 179.27 78.594 Q 179.495 78.965 179.856 79.287 L 179.856 79.287 L 179.856 79.287 Q 180.217 79.609 180.725 79.824 L 180.725 79.824 L 180.725 79.824 Q 181.233 80.039 181.995 80.039 L 181.995 80.039 L 181.995 80.039 Q 183.499 80.039 184.583 79.492 L 184.583 79.492 L 184.583 79.492 Q 185.667 78.945 186.37 77.949 L 186.37 77.949 L 186.37 77.949 Q 187.073 76.953 187.415 75.576 L 187.415 75.576 L 187.415 75.576 Q 187.756 74.199 187.756 72.559 L 187.756 72.559 L 187.756 48.281 L 187.756 48.281 Q 187.756 47.852 187.659 47.598 L 187.659 47.598 L 187.659 47.598 Q 187.561 47.344 187.385 47.197 L 187.385 47.197 L 187.385 47.197 Q 187.21 47.051 186.965 47.002 L 186.965 47.002 L 186.965 47.002 Q 186.721 46.953 186.428 46.953 L 186.428 46.953 L 186.428 46.953 Q 185.999 46.953 185.364 47.09 L 185.364 47.09 L 185.364 47.09 Q 184.729 47.227 184.026 47.5 L 184.026 47.5 L 184.026 47.5 Q 183.323 47.773 182.61 48.174 L 182.61 48.174 L 182.61 48.174 Q 181.897 48.574 181.34 49.082 L 181.34 49.082 L 181.34 49.082 Q 180.784 49.59 180.432 50.215 L 180.432 50.215 L 180.432 50.215 Q 180.081 50.84 180.081 51.562 L 180.081 51.562 L 180.081 51.562 Q 180.081 52.187 180.247 52.559 L 180.247 52.559 L 180.247 52.559 Q 180.413 52.93 180.628 53.115 L 180.628 53.115 L 180.628 53.115 Q 180.842 53.301 181.067 53.35 L 181.067 53.35 L 181.067 53.35 Q 181.292 53.398 181.389 53.398 L 181.389 53.398 L 181.389 53.398 Q 181.878 53.398 182.19 53.232 L 182.19 53.232 L 182.19 53.232 Q 182.503 53.066 182.756 52.881 L 182.756 52.881 L 182.756 52.881 Q 183.01 52.695 183.235 52.529 L 183.235 52.529 L 183.235 52.529 Q 183.46 52.363 183.753 52.363 L 183.753 52.363 L 183.753 52.363 Q 183.987 52.363 184.251 52.471 L 184.251 52.471 L 184.251 52.471 Q 184.514 52.578 184.739 52.812 L 184.739 52.812 L 184.739 52.812 Q 184.963 53.047 185.12 53.428 L 185.12 53.428 L 185.12 53.428 Q 185.276 53.809 185.276 54.355 L 185.276 54.355 L 185.276 54.355 Q 185.276 55.137 184.973 55.703 L 184.973 55.703 L 184.973 55.703 Q 184.671 56.27 184.192 56.65 L 184.192 56.65 L 184.192 56.65 Q 183.713 57.031 183.098 57.217 L 183.098 57.217 L 183.098 57.217 Q 182.483 57.402 181.878 57.402 L 181.878 57.402 L 181.878 57.402 Q 180.94 57.402 180.188 57.08 L 180.188 57.08 L 180.188 57.08 Q 179.436 56.758 178.909 56.191 L 178.909 56.191 L 178.909 56.191 Q 178.381 55.625 178.108 54.863 L 178.108 54.863 L 178.108 54.863 Q 177.835 54.102 177.835 53.242 L 177.835 53.242 L 177.835 53.242 Q 177.835 51.895 178.323 50.771 L 178.323 50.771 L 178.323 50.771 Q 178.811 49.648 179.661 48.75 L 179.661 48.75 L 179.661 48.75 Q 180.51 47.852 181.653 47.178 L 181.653 47.178 L 181.653 47.178 Q 182.796 46.504 184.124 46.055 L 184.124 46.055 L 184.124 46.055 Q 185.452 45.605 186.897 45.381 L 186.897 45.381 L 186.897 45.381 Q 188.342 45.156 189.788 45.156 L 189.788 45.156 L 189.788 45.156 Q 191.389 45.156 192.278 45.459 L 192.278 45.459 L 192.278 45.459 Q 193.167 45.762 193.587 46.191 L 193.587 46.191 L 193.587 46.191 Q 194.006 46.621 194.085 47.09 L 194.085 47.09 L 194.085 47.09 Q 194.163 47.559 194.163 47.871 L 194.163 47.871 L 194.163 70.84 L 194.163 70.84 Z  M 224.671 74.668 L 224.671 74.668 L 224.671 74.668 Q 223.674 74.668 223.03 74.482 L 223.03 74.482 L 223.03 74.482 Q 222.385 74.297 221.985 73.984 L 221.985 73.984 L 221.985 73.984 Q 221.585 73.672 221.389 73.291 L 221.389 73.291 L 221.389 73.291 Q 221.194 72.91 221.116 72.52 L 221.116 72.52 L 221.116 72.52 Q 219.885 73.418 218.284 74.043 L 218.284 74.043 L 218.284 74.043 Q 216.682 74.668 214.671 74.668 L 214.671 74.668 L 214.671 74.668 Q 212.874 74.668 211.34 74.16 L 211.34 74.16 L 211.34 74.16 Q 209.807 73.652 208.665 72.588 L 208.665 72.588 L 208.665 72.588 Q 207.522 71.523 206.878 69.854 L 206.878 69.854 L 206.878 69.854 Q 206.233 68.184 206.233 65.84 L 206.233 65.84 L 206.233 65.84 Q 206.233 64.121 206.292 62.754 L 206.292 62.754 L 206.292 62.754 Q 206.35 61.387 206.438 60.186 L 206.438 60.186 L 206.438 60.186 Q 206.526 58.984 206.633 57.871 L 206.633 57.871 L 206.633 57.871 Q 206.741 56.758 206.829 55.547 L 206.829 55.547 L 206.829 55.547 Q 206.917 54.336 206.975 52.949 L 206.975 52.949 L 206.975 52.949 Q 207.034 51.562 207.034 49.805 L 207.034 49.805 L 207.034 49.805 Q 207.034 49.258 206.926 48.76 L 206.926 48.76 L 206.926 48.76 Q 206.819 48.262 206.575 47.881 L 206.575 47.881 L 206.575 47.881 Q 206.331 47.5 205.901 47.266 L 205.901 47.266 L 205.901 47.266 Q 205.471 47.031 204.827 47.031 L 204.827 47.031 L 204.827 47.031 Q 204.202 47.031 203.264 47.334 L 203.264 47.334 L 203.264 47.334 Q 202.327 47.637 201.458 48.213 L 201.458 48.213 L 201.458 48.213 Q 200.588 48.789 199.973 49.639 L 199.973 49.639 L 199.973 49.639 Q 199.358 50.488 199.358 51.562 L 199.358 51.562 L 199.358 51.562 Q 199.358 52.187 199.524 52.559 L 199.524 52.559 L 199.524 52.559 Q 199.69 52.93 199.905 53.115 L 199.905 53.115 L 199.905 53.115 Q 200.12 53.301 200.344 53.35 L 200.344 53.35 L 200.344 53.35 Q 200.569 53.398 200.667 53.398 L 200.667 53.398 L 200.667 53.398 Q 201.155 53.398 201.467 53.232 L 201.467 53.232 L 201.467 53.232 Q 201.78 53.066 202.034 52.881 L 202.034 52.881 L 202.034 52.881 Q 202.288 52.695 202.512 52.529 L 202.512 52.529 L 202.512 52.529 Q 202.737 52.363 203.03 52.363 L 203.03 52.363 L 203.03 52.363 Q 203.264 52.363 203.528 52.471 L 203.528 52.471 L 203.528 52.471 Q 203.792 52.578 204.016 52.812 L 204.016 52.812 L 204.016 52.812 Q 204.241 53.047 204.397 53.428 L 204.397 53.428 L 204.397 53.428 Q 204.553 53.809 204.553 54.355 L 204.553 54.355 L 204.553 54.355 Q 204.553 55.137 204.251 55.703 L 204.251 55.703 L 204.251 55.703 Q 203.948 56.27 203.469 56.65 L 203.469 56.65 L 203.469 56.65 Q 202.991 57.031 202.376 57.217 L 202.376 57.217 L 202.376 57.217 Q 201.76 57.402 201.155 57.402 L 201.155 57.402 L 201.155 57.402 Q 200.217 57.402 199.465 57.08 L 199.465 57.08 L 199.465 57.08 Q 198.713 56.758 198.186 56.191 L 198.186 56.191 L 198.186 56.191 Q 197.659 55.625 197.385 54.863 L 197.385 54.863 L 197.385 54.863 Q 197.112 54.102 197.112 53.242 L 197.112 53.242 L 197.112 53.242 Q 197.112 51.895 197.561 50.771 L 197.561 50.771 L 197.561 50.771 Q 198.01 49.648 198.792 48.75 L 198.792 48.75 L 198.792 48.75 Q 199.573 47.852 200.598 47.178 L 200.598 47.178 L 200.598 47.178 Q 201.624 46.504 202.796 46.055 L 202.796 46.055 L 202.796 46.055 Q 203.967 45.605 205.198 45.381 L 205.198 45.381 L 205.198 45.381 Q 206.428 45.156 207.6 45.156 L 207.6 45.156 L 207.6 45.156 Q 208.948 45.156 209.895 45.439 L 209.895 45.439 L 209.895 45.439 Q 210.842 45.723 211.497 46.172 L 211.497 46.172 L 211.497 46.172 Q 212.151 46.621 212.532 47.168 L 212.532 47.168 L 212.532 47.168 Q 212.913 47.715 213.118 48.232 L 213.118 48.232 L 213.118 48.232 Q 213.323 48.75 213.381 49.17 L 213.381 49.17 L 213.381 49.17 Q 213.44 49.59 213.44 49.805 L 213.44 49.805 L 213.44 49.805 Q 213.44 51.387 213.381 52.705 L 213.381 52.705 L 213.381 52.705 Q 213.323 54.023 213.235 55.234 L 213.235 55.234 L 213.235 55.234 Q 213.147 56.445 213.04 57.607 L 213.04 57.607 L 213.04 57.607 Q 212.932 58.77 212.844 60.029 L 212.844 60.029 L 212.844 60.029 Q 212.756 61.289 212.698 62.705 L 212.698 62.705 L 212.698 62.705 Q 212.639 64.121 212.639 65.84 L 212.639 65.84 L 212.639 65.84 Q 212.639 67.969 213.059 69.268 L 213.059 69.268 L 213.059 69.268 Q 213.479 70.566 214.104 71.27 L 214.104 71.27 L 214.104 71.27 Q 214.729 71.973 215.442 72.207 L 215.442 72.207 L 215.442 72.207 Q 216.155 72.441 216.721 72.441 L 216.721 72.441 L 216.721 72.441 Q 217.796 72.441 218.899 72.09 L 218.899 72.09 L 218.899 72.09 Q 220.003 71.738 221.038 71.074 L 221.038 71.074 L 221.038 48.437 L 221.038 48.437 Q 221.038 47.871 220.794 47.529 L 220.794 47.529 L 220.794 47.529 Q 220.549 47.187 220.042 47.187 L 220.042 47.187 L 220.042 47.187 Q 219.495 47.187 219.026 47.383 L 219.026 47.383 L 219.026 47.383 Q 218.557 47.578 218.186 47.754 L 218.186 47.754 L 217.874 47.031 L 217.874 47.031 Q 218.362 46.777 219.065 46.455 L 219.065 46.455 L 219.065 46.455 Q 219.768 46.133 220.569 45.84 L 220.569 45.84 L 220.569 45.84 Q 221.37 45.547 222.21 45.352 L 222.21 45.352 L 222.21 45.352 Q 223.049 45.156 223.792 45.156 L 223.792 45.156 L 223.792 45.156 Q 225.12 45.156 225.852 45.498 L 225.852 45.498 L 225.852 45.498 Q 226.585 45.84 226.936 46.338 L 226.936 46.338 L 226.936 46.338 Q 227.288 46.836 227.356 47.402 L 227.356 47.402 L 227.356 47.402 Q 227.424 47.969 227.424 48.398 L 227.424 48.398 L 227.424 71.387 L 227.424 71.387 Q 227.424 71.953 227.678 72.295 L 227.678 72.295 L 227.678 72.295 Q 227.932 72.637 228.44 72.637 L 228.44 72.637 L 228.44 72.637 Q 228.967 72.637 229.436 72.451 L 229.436 72.451 L 229.436 72.451 Q 229.905 72.266 230.276 72.07 L 230.276 72.07 L 230.588 72.793 L 230.588 72.793 Q 230.1 73.047 229.397 73.369 L 229.397 73.369 L 229.397 73.369 Q 228.694 73.691 227.893 73.984 L 227.893 73.984 L 227.893 73.984 Q 227.092 74.277 226.253 74.473 L 226.253 74.473 L 226.253 74.473 Q 225.413 74.668 224.671 74.668 Z  M 239.143 77.187 L 239.143 77.187 L 239.143 77.187 Q 239.924 77.187 240.686 76.904 L 240.686 76.904 L 240.686 76.904 Q 241.448 76.621 242.044 75.967 L 242.044 75.967 L 242.044 75.967 Q 242.639 75.312 243.01 74.258 L 243.01 74.258 L 243.01 74.258 Q 243.381 73.203 243.381 71.68 L 243.381 71.68 L 243.381 71.68 Q 243.381 70.039 242.571 68.496 L 242.571 68.496 L 242.571 68.496 Q 241.76 66.953 240.54 65.459 L 240.54 65.459 L 240.54 65.459 Q 239.319 63.965 237.903 62.49 L 237.903 62.49 L 237.903 62.49 Q 236.487 61.016 235.266 59.482 L 235.266 59.482 L 235.266 59.482 Q 234.046 57.949 233.235 56.318 L 233.235 56.318 L 233.235 56.318 Q 232.424 54.687 232.424 52.91 L 232.424 52.91 L 232.424 52.91 Q 232.424 51.133 233.079 49.697 L 233.079 49.697 L 233.079 49.697 Q 233.733 48.262 234.856 47.256 L 234.856 47.256 L 234.856 47.256 Q 235.979 46.25 237.473 45.703 L 237.473 45.703 L 237.473 45.703 Q 238.967 45.156 240.667 45.156 L 240.667 45.156 L 240.667 45.156 Q 242.483 45.156 243.899 45.537 L 243.899 45.537 L 243.899 45.537 Q 245.315 45.918 246.301 46.572 L 246.301 46.572 L 246.301 46.572 Q 247.288 47.227 247.796 48.115 L 247.796 48.115 L 247.796 48.115 Q 248.303 49.004 248.303 50 L 248.303 50 L 248.303 50 Q 248.303 50.469 248.167 50.967 L 248.167 50.967 L 248.167 50.967 Q 248.03 51.465 247.737 51.875 L 247.737 51.875 L 247.737 51.875 Q 247.444 52.285 246.995 52.559 L 246.995 52.559 L 246.995 52.559 Q 246.546 52.832 245.94 52.832 L 245.94 52.832 L 245.94 52.832 Q 245.217 52.832 244.876 52.393 L 244.876 52.393 L 244.876 52.393 Q 244.534 51.953 244.368 51.309 L 244.368 51.309 L 244.368 51.309 Q 244.202 50.664 244.085 49.893 L 244.085 49.893 L 244.085 49.893 Q 243.967 49.121 243.713 48.477 L 243.713 48.477 L 243.713 48.477 Q 243.46 47.832 242.952 47.393 L 242.952 47.393 L 242.952 47.393 Q 242.444 46.953 241.467 46.953 L 241.467 46.953 L 241.467 46.953 Q 240.94 46.953 240.422 47.187 L 240.422 47.187 L 240.422 47.187 Q 239.905 47.422 239.485 47.9 L 239.485 47.9 L 239.485 47.9 Q 239.065 48.379 238.811 49.121 L 238.811 49.121 L 238.811 49.121 Q 238.557 49.863 238.557 50.879 L 238.557 50.879 L 238.557 50.879 Q 238.557 52.051 239.046 53.164 L 239.046 53.164 L 239.046 53.164 Q 239.534 54.277 240.335 55.361 L 240.335 55.361 L 240.335 55.361 Q 241.135 56.445 242.161 57.529 L 242.161 57.529 L 242.161 57.529 Q 243.186 58.613 244.251 59.717 L 244.251 59.717 L 244.251 59.717 Q 245.315 60.82 246.34 61.982 L 246.34 61.982 L 246.34 61.982 Q 247.366 63.145 248.167 64.395 L 248.167 64.395 L 248.167 64.395 Q 248.967 65.645 249.456 67.012 L 249.456 67.012 L 249.456 67.012 Q 249.944 68.379 249.944 69.883 L 249.944 69.883 L 249.944 69.883 Q 249.944 72.09 249.094 73.818 L 249.094 73.818 L 249.094 73.818 Q 248.245 75.547 246.79 76.729 L 246.79 76.729 L 246.79 76.729 Q 245.335 77.91 243.381 78.535 L 243.381 78.535 L 243.381 78.535 Q 241.428 79.16 239.221 79.16 L 239.221 79.16 L 239.221 79.16 Q 237.229 79.16 235.696 78.662 L 235.696 78.662 L 235.696 78.662 Q 234.163 78.164 233.108 77.344 L 233.108 77.344 L 233.108 77.344 Q 232.053 76.523 231.516 75.479 L 231.516 75.479 L 231.516 75.479 Q 230.979 74.434 230.979 73.32 L 230.979 73.32 L 230.979 73.32 Q 230.979 72.852 231.126 72.314 L 231.126 72.314 L 231.126 72.314 Q 231.272 71.777 231.555 71.328 L 231.555 71.328 L 231.555 71.328 Q 231.838 70.879 232.268 70.576 L 232.268 70.576 L 232.268 70.576 Q 232.698 70.273 233.264 70.273 L 233.264 70.273 L 233.264 70.273 Q 233.85 70.273 234.212 70.566 L 234.212 70.566 L 234.212 70.566 Q 234.573 70.859 234.788 71.348 L 234.788 71.348 L 234.788 71.348 Q 235.003 71.836 235.139 72.461 L 235.139 72.461 L 235.139 72.461 Q 235.276 73.086 235.432 73.73 L 235.432 73.73 L 235.432 73.73 Q 235.588 74.375 235.823 75 L 235.823 75 L 235.823 75 Q 236.057 75.625 236.467 76.113 L 236.467 76.113 L 236.467 76.113 Q 236.878 76.602 237.522 76.895 L 237.522 76.895 L 237.522 76.895 Q 238.167 77.187 239.143 77.187 Z " fill="url(#_lgradient_4)"/></svg>