<?xml version="1.0" encoding="UTF-8" standalone="no"?>
<!-- Generator: Gravit.io -->
<svg xmlns="http://www.w3.org/2000/svg" xmlns:xlink="http://www.w3.org/1999/xlink" style="isolation:isolate" viewBox="0 0 300 100" width="300pt" height="100pt"><g><g><path d=" M 44.033 66.613 C 45.222 67.092 46.826 67.177 48.578 67.236 C 56.899 67.515 65.321 65.253 72.303 60.7 C 54.133 60.535 46.019 65.233 44.033 66.613 Z " fill="rgb(190,0,255)"/><path d=" M 82.172 49.407 C 82.83 48.453 83.441 47.475 84.003 46.471 C 74.879 48.785 58.261 53.368 50.527 57.835 C 44.908 61.08 43.184 64.344 42.839 66.756 L 42.839 66.756 C 46.801 59.837 60.584 57.869 69.659 56.857 C 74.712 56.294 79.284 53.591 82.172 49.407 Z " fill="rgb(255,37,129)"/><linearGradient id="_lgradient_3" x1="9.702246193121766e-7" y1="0.5" x2="1.0000021382715265" y2="0.5" gradientTransform="matrix(47.477,0,0,34.787,41.306,31.602)" gradientUnits="userSpaceOnUse"><stop offset="0%" stop-opacity="1" style="stop-color:rgb(255,110,48)"/><stop offset="100%" stop-opacity="1" style="stop-color:rgb(253,52,142)"/></linearGradient><path d=" M 57.37 49.668 C 65.286 46.283 73.674 43.506 80.664 41.634 C 85.225 40.412 88.525 36.406 88.778 31.691 C 88.78 31.661 88.781 31.632 88.783 31.602 C 88.783 31.602 72.148 36.862 61.865 41.348 C 57.148 43.405 52.364 45.859 48.501 49.258 C 44.429 52.841 39.976 57.553 41.678 66.39 C 42.204 61.108 47.049 54.083 57.37 49.668 Z " fill="url(#_lgradient_3)"/><linearGradient id="_lgradient_4" x1="1.1732936178177056e-8" y1="0.5000008998680795" x2="1" y2="0.5000008998680795" gradientTransform="matrix(63.32,0,0,56.408,40.529,1.353)" gradientUnits="userSpaceOnUse"><stop offset="0%" stop-opacity="1" style="stop-color:rgb(18,170,243)"/><stop offset="100%" stop-opacity="1" style="stop-color:rgb(44,218,184)"/></linearGradient><path d=" M 103.849 1.353 C 88.834 10.684 73.819 20.015 58.804 29.345 C 54.016 32.321 49.834 36.039 45.962 40.136 C 40.408 46.014 40.493 53.664 40.538 57.76 C 42.719 47.197 47.401 43.122 69.017 32.997 C 74.081 30.625 79.298 28.621 84.443 26.431 C 96.096 21.471 101.206 11.903 103.849 1.353 Z " fill="url(#_lgradient_4)"/></g><path d=" M 28.058 34.331 L 28.058 34.331 Q 30.226 33.44 32.07 33.245 L 32.07 33.245 L 32.07 33.245 Q 33.915 33.05 34.471 33.947 L 34.471 33.947 L 34.471 33.947 Q 35.296 35.955 37.629 50.765 L 37.629 50.765 L 37.629 50.765 Q 39.962 65.575 41.523 77.136 L 41.523 77.136 L 41.523 77.136 Q 42.374 83.544 39.532 89.077 L 39.532 89.077 L 39.532 89.077 Q 36.691 94.609 29.544 97.547 L 29.544 97.547 L 29.544 97.547 Q 23.683 99.956 19.362 99.151 L 19.362 99.151 L 19.362 99.151 Q 15.042 98.345 12.463 95.839 L 12.463 95.839 L 12.463 95.839 Q 9.884 93.332 8.663 90.361 L 8.663 90.361 L 8.663 90.361 Q 6.748 85.704 7.038 83.097 L 7.038 83.097 L 7.038 83.097 Q 7.328 80.491 10.218 79.303 L 10.218 79.303 L 10.218 79.303 Q 13.029 78.147 14.948 78.25 L 14.948 78.25 L 14.948 78.25 Q 16.868 78.353 17.363 79.557 L 17.363 79.557 L 17.363 79.557 Q 17.693 80.36 17.134 82.655 L 17.134 82.655 L 17.134 82.655 Q 16.528 85.063 16.858 85.866 L 16.858 85.866 L 16.858 85.866 Q 18.49 89.607 20.73 90.376 L 20.73 90.376 L 20.73 90.376 Q 22.97 91.144 25.941 89.923 L 25.941 89.923 L 25.941 89.923 Q 28.029 89.065 29.303 86.57 L 29.303 86.57 L 29.303 86.57 Q 30.577 84.075 29.933 79.084 L 29.933 79.084 L 25.345 45.771 L 25.345 45.771 Q 20.489 48.799 17.414 50.908 L 17.414 50.908 L 17.414 50.908 Q 15.577 51.006 14.255 50.189 L 14.255 50.189 L 14.255 50.189 Q 12.933 49.371 12.273 47.765 L 12.273 47.765 L 12.273 47.765 Q 11.316 45.436 13.887 42.784 L 13.887 42.784 L 13.887 42.784 Q 19.702 38.892 22.411 37.262 L 22.411 37.262 L 22.411 37.262 Q 25.12 35.632 28.058 34.331 L 28.058 34.331 Z " fill="rgb(255,255,255)"/></g><path d=" M 115.634 86 L 115.634 86 L 115.634 86 Q 112.516 86 110.201 85.347 L 110.201 85.347 L 110.201 77.687 L 110.201 77.687 Q 112.576 78.28 114.535 78.28 L 114.535 78.28 L 114.535 78.28 Q 117.564 78.28 118.87 76.395 L 118.87 76.395 L 118.87 76.395 Q 120.177 74.51 120.177 70.501 L 120.177 70.501 L 120.177 19.825 L 129.381 19.825 L 129.381 70.442 L 129.381 70.442 Q 129.381 78.043 125.907 82.021 L 125.907 82.021 L 125.907 82.021 Q 122.433 86 115.634 86 Z  M 166.465 19.825 L 175.639 19.825 L 175.639 47.913 L 175.639 47.913 Q 175.639 52.722 173.486 56.345 L 173.486 56.345 L 173.486 56.345 Q 171.334 59.967 167.266 61.897 L 167.266 61.897 L 167.266 61.897 Q 163.199 63.827 157.646 63.827 L 157.646 63.827 L 157.646 63.827 Q 149.274 63.827 144.642 59.536 L 144.642 59.536 L 144.642 59.536 Q 140.01 55.246 140.01 47.794 L 140.01 47.794 L 140.01 19.825 L 149.185 19.825 L 149.185 46.398 L 149.185 46.398 Q 149.185 51.416 151.203 53.762 L 151.203 53.762 L 151.203 53.762 Q 153.222 56.107 157.884 56.107 L 157.884 56.107 L 157.884 56.107 Q 162.397 56.107 164.431 53.747 L 164.431 53.747 L 164.431 53.747 Q 166.465 51.386 166.465 46.339 L 166.465 46.339 L 166.465 19.825 Z  M 211.891 51.179 L 211.891 51.179 L 211.891 51.179 Q 211.891 57.057 207.66 60.442 L 207.66 60.442 L 207.66 60.442 Q 203.429 63.827 195.888 63.827 L 195.888 63.827 L 195.888 63.827 Q 188.94 63.827 183.596 61.214 L 183.596 61.214 L 183.596 52.663 L 183.596 52.663 Q 187.99 54.623 191.034 55.424 L 191.034 55.424 L 191.034 55.424 Q 194.077 56.226 196.601 56.226 L 196.601 56.226 L 196.601 56.226 Q 199.629 56.226 201.247 55.068 L 201.247 55.068 L 201.247 55.068 Q 202.865 53.91 202.865 51.624 L 202.865 51.624 L 202.865 51.624 Q 202.865 50.347 202.153 49.353 L 202.153 49.353 L 202.153 49.353 Q 201.44 48.358 200.06 47.438 L 200.06 47.438 L 200.06 47.438 Q 198.679 46.517 194.433 44.498 L 194.433 44.498 L 194.433 44.498 Q 190.455 42.628 188.465 40.906 L 188.465 40.906 L 188.465 40.906 Q 186.476 39.183 185.288 36.897 L 185.288 36.897 L 185.288 36.897 Q 184.101 34.611 184.101 31.553 L 184.101 31.553 L 184.101 31.553 Q 184.101 25.793 188.005 22.497 L 188.005 22.497 L 188.005 22.497 Q 191.909 19.202 198.798 19.202 L 198.798 19.202 L 198.798 19.202 Q 202.182 19.202 205.255 20.003 L 205.255 20.003 L 205.255 20.003 Q 208.328 20.805 211.684 22.26 L 211.684 22.26 L 208.714 29.415 L 208.714 29.415 Q 205.241 27.99 202.969 27.426 L 202.969 27.426 L 202.969 27.426 Q 200.698 26.862 198.501 26.862 L 198.501 26.862 L 198.501 26.862 Q 195.888 26.862 194.493 28.079 L 194.493 28.079 L 194.493 28.079 Q 193.097 29.296 193.097 31.256 L 193.097 31.256 L 193.097 31.256 Q 193.097 32.473 193.661 33.379 L 193.661 33.379 L 193.661 33.379 Q 194.225 34.285 195.458 35.131 L 195.458 35.131 L 195.458 35.131 Q 196.69 35.977 201.292 38.174 L 201.292 38.174 L 201.292 38.174 Q 207.378 41.084 209.635 44.008 L 209.635 44.008 L 209.635 44.008 Q 211.891 46.933 211.891 51.179 Z " fill="rgb(255,255,255)"/><path d=" M 202.708 73.01 L 202.708 73.01 Q 205.141 73.01 206.735 74.289 L 206.735 74.289 L 206.735 74.289 Q 208.33 75.568 208.798 77.748 L 208.798 77.748 L 205.537 77.748 L 205.537 77.748 Q 205.177 76.865 204.429 76.361 L 204.429 76.361 L 204.429 76.361 Q 203.681 75.857 202.654 75.857 L 202.654 75.857 L 202.654 75.857 Q 201.303 75.857 200.474 76.847 L 200.474 76.847 L 200.474 76.847 Q 199.646 77.838 199.646 79.496 L 199.646 79.496 L 199.646 79.496 Q 199.646 81.153 200.474 82.135 L 200.474 82.135 L 200.474 82.135 Q 201.303 83.117 202.654 83.117 L 202.654 83.117 L 202.654 83.117 Q 203.681 83.117 204.429 82.613 L 204.429 82.613 L 204.429 82.613 Q 205.177 82.108 205.537 81.244 L 205.537 81.244 L 208.798 81.244 L 208.798 81.244 Q 208.33 83.406 206.735 84.694 L 206.735 84.694 L 206.735 84.694 Q 205.141 85.982 202.708 85.982 L 202.708 85.982 L 202.708 85.982 Q 200.853 85.982 199.447 85.162 L 199.447 85.162 L 199.447 85.162 Q 198.042 84.342 197.276 82.865 L 197.276 82.865 L 197.276 82.865 Q 196.511 81.388 196.511 79.496 L 196.511 79.496 L 196.511 79.496 Q 196.511 77.604 197.276 76.127 L 197.276 76.127 L 197.276 76.127 Q 198.042 74.649 199.447 73.83 L 199.447 73.83 L 199.447 73.83 Q 200.853 73.01 202.708 73.01 L 202.708 73.01 Z  M 220.473 85.874 L 217.068 85.874 L 214.311 81.063 L 213.609 81.063 L 213.609 85.874 L 210.528 85.874 L 210.528 73.136 L 215.789 73.136 L 215.789 73.136 Q 217.302 73.136 218.347 73.659 L 218.347 73.659 L 218.347 73.659 Q 219.392 74.181 219.914 75.091 L 219.914 75.091 L 219.914 75.091 Q 220.437 76.001 220.437 77.172 L 220.437 77.172 L 220.437 77.172 Q 220.437 78.559 219.671 79.532 L 219.671 79.532 L 219.671 79.532 Q 218.906 80.505 217.446 80.865 L 217.446 80.865 L 220.473 85.874 Z  M 213.609 75.73 L 213.609 78.955 L 215.518 78.955 L 215.518 78.955 Q 216.437 78.955 216.87 78.55 L 216.87 78.55 L 216.87 78.55 Q 217.302 78.145 217.302 77.352 L 217.302 77.352 L 217.302 77.352 Q 217.302 76.595 216.861 76.163 L 216.861 76.163 L 216.861 76.163 Q 216.419 75.73 215.518 75.73 L 215.518 75.73 L 213.609 75.73 Z  M 229.914 75.586 L 225.067 75.586 L 225.067 78.253 L 229.373 78.253 L 229.373 80.577 L 225.067 80.577 L 225.067 83.406 L 229.914 83.406 L 229.914 85.874 L 221.986 85.874 L 221.986 73.136 L 229.914 73.136 L 229.914 75.586 Z  M 240.345 85.874 L 239.553 83.55 L 234.778 83.55 L 233.986 85.874 L 230.743 85.874 L 235.409 73.226 L 238.958 73.226 L 243.625 85.874 L 240.345 85.874 Z  M 235.571 81.208 L 238.76 81.208 L 237.175 76.523 L 235.571 81.208 Z  M 243.985 73.136 L 253.966 73.136 L 253.966 75.586 L 250.507 75.586 L 250.507 85.874 L 247.408 85.874 L 247.408 75.586 L 243.985 75.586 L 243.985 73.136 Z  M 255.263 73.136 L 258.344 73.136 L 258.344 85.874 L 255.263 85.874 L 255.263 73.136 Z  M 266.524 72.938 L 266.524 72.938 Q 268.326 72.938 269.794 73.776 L 269.794 73.776 L 269.794 73.776 Q 271.262 74.613 272.109 76.1 L 272.109 76.1 L 272.109 76.1 Q 272.956 77.586 272.956 79.46 L 272.956 79.46 L 272.956 79.46 Q 272.956 81.334 272.1 82.829 L 272.1 82.829 L 272.1 82.829 Q 271.244 84.324 269.776 85.162 L 269.776 85.162 L 269.776 85.162 Q 268.308 86 266.524 86 L 266.524 86 L 266.524 86 Q 264.74 86 263.272 85.162 L 263.272 85.162 L 263.272 85.162 Q 261.803 84.324 260.948 82.829 L 260.948 82.829 L 260.948 82.829 Q 260.092 81.334 260.092 79.46 L 260.092 79.46 L 260.092 79.46 Q 260.092 77.586 260.948 76.1 L 260.948 76.1 L 260.948 76.1 Q 261.803 74.613 263.272 73.776 L 263.272 73.776 L 263.272 73.776 Q 264.74 72.938 266.524 72.938 L 266.524 72.938 Z  M 266.524 75.803 L 266.524 75.803 Q 265.01 75.803 264.119 76.784 L 264.119 76.784 L 264.119 76.784 Q 263.227 77.766 263.227 79.46 L 263.227 79.46 L 263.227 79.46 Q 263.227 81.135 264.119 82.126 L 264.119 82.126 L 264.119 82.126 Q 265.01 83.117 266.524 83.117 L 266.524 83.117 L 266.524 83.117 Q 268.019 83.117 268.92 82.126 L 268.92 82.126 L 268.92 82.126 Q 269.821 81.135 269.821 79.46 L 269.821 79.46 L 269.821 79.46 Q 269.821 77.784 268.929 76.793 L 268.929 76.793 L 268.929 76.793 Q 268.037 75.803 266.524 75.803 L 266.524 75.803 Z  M 286 73.136 L 286 85.874 L 282.919 85.874 L 277.766 78.055 L 277.766 85.874 L 274.685 85.874 L 274.685 73.136 L 277.766 73.136 L 282.919 81.027 L 282.919 73.136 L 286 73.136 Z  M 150.586 73.226 L 154.333 73.226 L 154.333 85.874 L 151.253 85.874 L 151.253 77.965 L 148.514 85.874 L 145.848 85.874 L 143.091 77.947 L 143.091 85.874 L 140.01 85.874 L 140.01 73.226 L 143.776 73.226 L 147.217 82.036 L 150.586 73.226 Z  M 156.387 73.136 L 159.45 73.136 L 159.45 80.487 L 159.45 80.487 Q 159.45 81.748 160.018 82.415 L 160.018 82.415 L 160.018 82.415 Q 160.585 83.081 161.666 83.081 L 161.666 83.081 L 161.666 83.081 Q 162.747 83.081 163.315 82.415 L 163.315 82.415 L 163.315 82.415 Q 163.882 81.748 163.882 80.487 L 163.882 80.487 L 163.882 73.136 L 166.963 73.136 L 166.963 80.487 L 166.963 80.487 Q 166.963 82.289 166.261 83.523 L 166.261 83.523 L 166.261 83.523 Q 165.558 84.757 164.342 85.378 L 164.342 85.378 L 164.342 85.378 Q 163.126 86 161.594 86 L 161.594 86 L 161.594 86 Q 160.063 86 158.892 85.387 L 158.892 85.387 L 158.892 85.387 Q 157.721 84.775 157.054 83.532 L 157.054 83.532 L 157.054 83.532 Q 156.387 82.289 156.387 80.487 L 156.387 80.487 L 156.387 73.136 Z  M 172.098 73.136 L 172.098 83.514 L 176.206 83.514 L 176.206 85.874 L 169.017 85.874 L 169.017 73.136 L 172.098 73.136 Z  M 176.8 73.136 L 186.782 73.136 L 186.782 75.586 L 183.322 75.586 L 183.322 85.874 L 180.224 85.874 L 180.224 75.586 L 176.8 75.586 L 176.8 73.136 Z  M 188.079 73.136 L 191.16 73.136 L 191.16 85.874 L 188.079 85.874 L 188.079 73.136 Z " fill="rgb(247,249,253)"/></svg>