<?xml version="1.0" encoding="UTF-8" standalone="no"?>
<!-- Generator: Gravit.io -->
<svg xmlns="http://www.w3.org/2000/svg" xmlns:xlink="http://www.w3.org/1999/xlink" style="isolation:isolate" viewBox="0 0 256 256" width="256pt" height="256pt"><linearGradient id="_lgradient_4" x1="1" y1="-8.881784197001252e-16" x2="-0.12187500000000018" y2="1.4562500000000014" gradientTransform="matrix(-47.236,0,0,47.236,211,6.233)" gradientUnits="userSpaceOnUse"><stop offset="0%" stop-opacity="1" style="stop-color:rgb(71,254,136)"/><stop offset="100%" stop-opacity="1" style="stop-color:rgb(45,220,182)"/></linearGradient><path d=" M 211 53.469 C 211 27.399 189.834 6.233 163.764 6.233 L 163.764 53.469 L 211 53.469 Z " fill="url(#_lgradient_4)"/><linearGradient id="_lgradient_5" x1="1" y1="-8.881784197001252e-16" x2="-0.12187500000000018" y2="1.4562500000000014" gradientTransform="matrix(47.236,0,0,47.236,48.236,141.098)" gradientUnits="userSpaceOnUse"><stop offset="0%" stop-opacity="1" style="stop-color:rgb(71,254,136)"/><stop offset="100%" stop-opacity="1" style="stop-color:rgb(45,220,182)"/></linearGradient><path d=" M 48.236 188.334 C 48.236 162.264 69.402 141.098 95.472 141.098 L 95.472 188.334 L 48.236 188.334 Z " fill="url(#_lgradient_5)"/><linearGradient id="_lgradient_6" x1="0.04062499999999858" y1="0.9406249999999997" x2="0.9781249999999982" y2="0.059374999999999845" gradientTransform="matrix(0,47.236,47.236,0,116.528,6.233)" gradientUnits="userSpaceOnUse"><stop offset="0%" stop-opacity="1" style="stop-color:rgb(255,108,50)"/><stop offset="100%" stop-opacity="1" style="stop-color:rgb(253,55,137)"/></linearGradient><path d=" M 163.764 6.233 C 137.694 6.233 116.528 27.399 116.528 53.469 L 163.764 53.469 L 163.764 6.233 Z " fill="url(#_lgradient_6)"/><linearGradient id="_lgradient_7" x1="0.04062499999999858" y1="0.9406249999999997" x2="0.9781249999999982" y2="0.059374999999999845" gradientTransform="matrix(0,47.236,-47.236,0,48.236,141.098)" gradientUnits="userSpaceOnUse"><stop offset="0%" stop-opacity="1" style="stop-color:rgb(255,108,50)"/><stop offset="100%" stop-opacity="1" style="stop-color:rgb(253,55,137)"/></linearGradient><path d=" M 1 141.098 C 27.07 141.098 48.236 162.264 48.236 188.334 L 1 188.334 L 1 141.098 Z " fill="url(#_lgradient_7)"/><g opacity="0.25"><linearGradient id="_lgradient_8" x1="0.04062499999999858" y1="0.9406249999999997" x2="0.9781249999999982" y2="0.059374999999999845" gradientTransform="matrix(0,-47.236,47.236,0,116.528,100.705)" gradientUnits="userSpaceOnUse"><stop offset="0%" stop-opacity="1" style="stop-color:rgb(255,108,50)"/><stop offset="100%" stop-opacity="1" style="stop-color:rgb(253,55,137)"/></linearGradient><path d=" M 163.764 100.705 C 137.694 100.705 116.528 79.539 116.528 53.469 L 163.764 53.469 L 163.764 100.705 Z " fill="url(#_lgradient_8)"/></g><path d=" M 1.627 67.701 L 1 24.444 L 52.761 24.444 L 1.627 67.701 Z " fill="rgb(255,37,129)"/><g opacity="0.71"><path d=" M 109.486 43.082 L 110.047 81.778 L 63.743 81.778 L 109.486 43.082 Z " fill="rgb(255,37,129)"/></g><linearGradient id="_lgradient_9" x1="0" y1="0.5" x2="1" y2="0.5" gradientTransform="matrix(-32.601,0,0,27.245,128.073,193.659)" gradientUnits="userSpaceOnUse"><stop offset="0%" stop-opacity="1" style="stop-color:rgb(72,254,136)"/><stop offset="100%" stop-opacity="1" style="stop-color:rgb(46,220,181)"/></linearGradient><path d=" M 127.678 220.904 L 128.073 193.659 L 95.472 193.659 L 127.678 220.904 Z " fill="url(#_lgradient_9)"/><g opacity="0.42"><path d=" M 61.823 134.258 L 62.569 82.805 L 1 82.805 L 61.823 134.258 Z " fill="rgb(190,0,255)"/></g><g opacity="0.25"><linearGradient id="_lgradient_10" x1="0" y1="0.5" x2="1" y2="0.5" gradientTransform="matrix(32.601,0,0,-27.245,128.637,220.904)" gradientUnits="userSpaceOnUse"><stop offset="0%" stop-opacity="1" style="stop-color:rgb(255,109,50)"/><stop offset="100%" stop-opacity="1" style="stop-color:rgb(253,56,135)"/></linearGradient><path d=" M 129.032 193.659 L 128.637 220.904 L 161.238 220.904 L 129.032 193.659 Z " fill="url(#_lgradient_10)"/></g><path d=" M 64.38 82.805 L 63.634 134.258 L 125.202 134.258 L 64.38 82.805 Z " fill="rgb(190,0,255)"/><circle vector-effect="non-scaling-stroke" cx="182.94230337106654" cy="120.37419520852688" r="6.870424907973614" fill="rgb(69,250,142)"/><circle vector-effect="non-scaling-stroke" cx="50.544751862549596" cy="43.08191499382405" r="5.152818680980005" fill="rgb(255,100,63)"/><circle vector-effect="non-scaling-stroke" cx="92.04763938789061" cy="244.61437896104914" r="5.152818680980005" fill="rgb(235,235,235)"/><circle vector-effect="non-scaling-stroke" cx="192.675405324029" cy="161.8531402751284" r="2.862677044988999" fill="rgb(190,0,255)"/><circle vector-effect="non-scaling-stroke" cx="131.49967629243466" cy="156.12778618515043" r="2.862677044988999" fill="rgb(253,62,125)"/></svg>