<?xml version="1.0" encoding="UTF-8" standalone="no"?>
<!-- Generator: Gravit.io -->
<svg xmlns="http://www.w3.org/2000/svg" xmlns:xlink="http://www.w3.org/1999/xlink" style="isolation:isolate" viewBox="0 0 512 109" width="512pt" height="109pt"><g><g><path d=" M 80.12 71.836 C 81.29 72.307 82.868 72.391 84.592 72.448 C 92.78 72.723 101.067 70.497 107.937 66.018 C 90.059 65.855 82.075 70.478 80.12 71.836 Z " fill="rgb(190,0,255)"/><path d=" M 117.648 54.905 C 118.296 53.967 118.897 53.004 119.45 52.016 C 110.472 54.293 94.12 58.803 86.511 63.198 C 80.981 66.391 79.285 69.603 78.945 71.976 L 78.945 71.976 C 82.844 65.168 96.406 63.231 105.336 62.236 C 110.307 61.682 114.807 59.022 117.648 54.905 Z " fill="rgb(255,37,129)"/><linearGradient id="_lgradient_0" x1="9.702246193121766e-7" y1="0.5" x2="1.0000021382715265" y2="0.5" gradientTransform="matrix(46.716,0,0,34.23,77.437,37.385)" gradientUnits="userSpaceOnUse"><stop offset="0%" stop-opacity="1" style="stop-color:rgb(255,110,48)"/><stop offset="100%" stop-opacity="1" style="stop-color:rgb(253,52,142)"/></linearGradient><path d=" M 93.244 55.162 C 101.032 51.831 109.286 49.098 116.164 47.256 C 120.653 46.054 123.9 42.113 124.148 37.473 C 124.15 37.444 124.152 37.415 124.153 37.385 C 124.153 37.385 107.785 42.561 97.666 46.975 C 93.025 48.999 88.318 51.414 84.517 54.759 C 80.51 58.284 76.128 62.92 77.803 71.616 C 78.32 66.419 83.088 59.506 93.244 55.162 Z " fill="url(#_lgradient_0)"/><linearGradient id="_lgradient_1" x1="1.1732936178177056e-8" y1="0.5000008998680795" x2="1" y2="0.5000008998680795" gradientTransform="matrix(62.306,0,0,55.504,76.672,7.62)" gradientUnits="userSpaceOnUse"><stop offset="0%" stop-opacity="1" style="stop-color:rgb(18,170,243)"/><stop offset="100%" stop-opacity="1" style="stop-color:rgb(44,218,184)"/></linearGradient><path d=" M 138.978 7.62 C 124.203 16.802 109.429 25.983 94.654 35.165 C 89.943 38.093 85.828 41.751 82.018 45.783 C 76.553 51.567 76.636 59.094 76.681 63.124 C 78.827 52.73 83.435 48.721 104.704 38.758 C 109.686 36.424 114.82 34.452 119.883 32.297 C 131.349 27.417 136.377 18.002 138.978 7.62 Z " fill="url(#_lgradient_1)"/></g><path d=" M 75.092 64.112 L 74.517 65.914 L 74.517 65.914 Q 72.907 65.492 71.316 65.089 L 71.316 65.089 L 71.316 65.089 Q 69.724 64.687 68.076 64.342 L 68.076 64.342 L 68.076 64.342 Q 66.12 68.329 63.935 72.163 L 63.935 72.163 L 63.935 72.163 Q 61.749 75.998 59.296 79.717 L 59.296 79.717 L 59.296 79.717 Q 57.417 82.554 55.097 85.276 L 55.097 85.276 L 55.097 85.276 Q 52.778 87.998 50.19 90.395 L 50.19 90.395 L 50.19 90.395 Q 47.602 92.791 44.822 94.804 L 44.822 94.804 L 44.822 94.804 Q 42.042 96.817 39.224 98.293 L 39.224 98.293 L 39.224 98.293 Q 36.406 99.769 33.626 100.574 L 33.626 100.574 L 33.626 100.574 Q 30.846 101.38 28.239 101.38 L 28.239 101.38 L 28.239 101.38 Q 25.9 101.38 23.523 100.555 L 23.523 100.555 L 23.523 100.555 Q 21.146 99.731 19.248 98.082 L 19.248 98.082 L 19.248 98.082 Q 17.35 96.434 16.162 93.961 L 16.162 93.961 L 16.162 93.961 Q 14.973 91.488 14.973 88.152 L 14.973 88.152 L 14.973 88.152 Q 14.973 86.426 15.376 84.509 L 15.376 84.509 L 15.376 84.509 Q 15.778 82.592 16.698 80.56 L 16.698 80.56 L 16.698 80.56 Q 17.619 78.528 19.076 76.4 L 19.076 76.4 L 19.076 76.4 Q 20.533 74.272 22.641 72.048 L 22.641 72.048 L 22.641 72.048 Q 25.44 69.096 28.91 66.949 L 28.91 66.949 L 28.91 66.949 Q 32.38 64.802 36.291 63.402 L 36.291 63.402 L 36.291 63.402 Q 40.202 62.003 44.458 61.332 L 44.458 61.332 L 44.458 61.332 Q 48.713 60.661 53.084 60.661 L 53.084 60.661 L 53.084 60.661 Q 55.96 60.661 58.816 60.929 L 58.816 60.929 L 58.816 60.929 Q 61.673 61.198 64.548 61.696 L 64.548 61.696 L 64.548 61.696 Q 66.58 57.479 68.229 53.3 L 68.229 53.3 L 68.229 53.3 Q 69.878 49.12 71.105 45.056 L 71.105 45.056 L 71.105 45.056 Q 72.945 38.845 73.75 34.282 L 73.75 34.282 L 73.75 34.282 Q 74.555 29.72 74.555 26.384 L 74.555 26.384 L 74.555 26.384 Q 74.555 23.547 74.095 21.495 L 74.095 21.495 L 74.095 21.495 Q 73.635 19.444 72.907 18.006 L 72.907 18.006 L 72.907 18.006 Q 72.178 16.568 71.22 15.667 L 71.22 15.667 L 71.22 15.667 Q 70.261 14.766 69.284 14.287 L 69.284 14.287 L 69.284 14.287 Q 68.306 13.808 67.366 13.635 L 67.366 13.635 L 67.366 13.635 Q 66.427 13.463 65.699 13.463 L 65.699 13.463 L 65.699 13.463 Q 62.631 13.463 60.216 14.92 L 60.216 14.92 L 60.216 14.92 Q 57.8 16.377 56.132 19.022 L 56.132 19.022 L 56.132 19.022 Q 54.465 21.668 53.583 25.406 L 53.583 25.406 L 53.583 25.406 Q 52.701 29.144 52.701 33.707 L 52.701 33.707 L 52.701 33.707 Q 52.701 37.273 53.314 40.302 L 53.314 40.302 L 53.314 40.302 Q 53.928 43.331 54.848 45.823 L 54.848 45.823 L 54.848 45.823 Q 55.768 48.315 56.861 50.232 L 56.861 50.232 L 56.861 50.232 Q 57.954 52.149 58.893 53.453 L 58.893 53.453 L 58.893 53.453 Q 59.832 54.756 60.446 55.447 L 60.446 55.447 L 60.446 55.447 Q 61.059 56.137 61.098 56.137 L 61.098 56.137 L 59.909 57.364 L 59.909 57.364 Q 57.455 55.255 55.308 52.686 L 55.308 52.686 L 55.308 52.686 Q 53.161 50.117 51.589 47.165 L 51.589 47.165 L 51.589 47.165 Q 50.017 44.213 49.097 40.896 L 49.097 40.896 L 49.097 40.896 Q 48.177 37.58 48.177 33.937 L 48.177 33.937 L 48.177 33.937 Q 48.177 29.796 49.365 25.77 L 49.365 25.77 L 49.365 25.77 Q 50.554 21.745 52.816 18.543 L 52.816 18.543 L 52.816 18.543 Q 55.078 15.342 58.375 13.386 L 58.375 13.386 L 58.375 13.386 Q 61.673 11.431 65.89 11.431 L 65.89 11.431 L 65.89 11.431 Q 66.849 11.431 68.114 11.622 L 68.114 11.622 L 68.114 11.622 Q 69.379 11.814 70.721 12.408 L 70.721 12.408 L 70.721 12.408 Q 72.063 13.003 73.386 14.076 L 73.386 14.076 L 73.386 14.076 Q 74.709 15.15 75.725 16.933 L 75.725 16.933 L 75.725 16.933 Q 76.741 18.716 77.374 21.304 L 77.374 21.304 L 77.374 21.304 Q 78.006 23.892 78.006 27.496 L 78.006 27.496 L 78.006 27.496 Q 78.006 29.144 77.853 31.004 L 77.853 31.004 L 77.853 31.004 Q 77.699 32.864 77.393 35.011 L 77.393 35.011 L 77.393 35.011 Q 76.319 42.142 74.172 49.024 L 74.172 49.024 L 74.172 49.024 Q 72.025 55.907 68.919 62.578 L 68.919 62.578 L 68.919 62.578 Q 70.53 62.923 72.063 63.307 L 72.063 63.307 L 72.063 63.307 Q 73.597 63.69 75.092 64.112 L 75.092 64.112 Z  M 28.201 99.386 L 28.201 99.386 L 28.201 99.386 Q 31.076 99.539 34.182 98.274 L 34.182 98.274 L 34.182 98.274 Q 37.288 97.009 40.432 94.612 L 40.432 94.612 L 40.432 94.612 Q 43.576 92.216 46.7 88.842 L 46.7 88.842 L 46.7 88.842 Q 49.825 85.468 52.797 81.442 L 52.797 81.442 L 52.797 81.442 Q 55.768 77.416 58.51 72.892 L 58.51 72.892 L 58.51 72.892 Q 61.251 68.368 63.628 63.613 L 63.628 63.613 L 63.628 63.613 Q 61.673 63.345 59.737 63.192 L 59.737 63.192 L 59.737 63.192 Q 57.8 63.038 55.768 63.038 L 55.768 63.038 L 55.768 63.038 Q 49.787 63.038 44.707 64.38 L 44.707 64.38 L 44.707 64.38 Q 39.627 65.722 35.466 67.946 L 35.466 67.946 L 35.466 67.946 Q 31.306 70.17 28.124 73.045 L 28.124 73.045 L 28.124 73.045 Q 24.942 75.921 22.795 78.969 L 22.795 78.969 L 22.795 78.969 Q 20.648 82.017 19.536 85.027 L 19.536 85.027 L 19.536 85.027 Q 18.424 88.037 18.424 90.529 L 18.424 90.529 L 18.424 90.529 Q 18.424 92.484 19.095 94.114 L 19.095 94.114 L 19.095 94.114 Q 19.766 95.743 21.012 96.913 L 21.012 96.913 L 21.012 96.913 Q 22.258 98.082 24.079 98.734 L 24.079 98.734 L 24.079 98.734 Q 25.9 99.386 28.201 99.386 Z " fill="rgb(255,255,255)"/></g><path d=" M 355.603 40.959 L 355.603 40.959 Q 360.207 40.959 363.225 43.38 L 363.225 43.38 L 363.225 43.38 Q 366.243 45.802 367.13 49.928 L 367.13 49.928 L 360.957 49.928 L 360.957 49.928 Q 360.275 48.257 358.86 47.302 L 358.86 47.302 L 358.86 47.302 Q 357.444 46.347 355.501 46.347 L 355.501 46.347 L 355.501 46.347 Q 352.943 46.347 351.374 48.223 L 351.374 48.223 L 351.374 48.223 Q 349.805 50.099 349.805 53.236 L 349.805 53.236 L 349.805 53.236 Q 349.805 56.374 351.374 58.232 L 351.374 58.232 L 351.374 58.232 Q 352.943 60.091 355.501 60.091 L 355.501 60.091 L 355.501 60.091 Q 357.444 60.091 358.86 59.136 L 358.86 59.136 L 358.86 59.136 Q 360.275 58.181 360.957 56.544 L 360.957 56.544 L 367.13 56.544 L 367.13 56.544 Q 366.243 60.637 363.225 63.075 L 363.225 63.075 L 363.225 63.075 Q 360.207 65.513 355.603 65.513 L 355.603 65.513 L 355.603 65.513 Q 352.09 65.513 349.43 63.962 L 349.43 63.962 L 349.43 63.962 Q 346.77 62.41 345.321 59.614 L 345.321 59.614 L 345.321 59.614 Q 343.871 56.817 343.871 53.236 L 343.871 53.236 L 343.871 53.236 Q 343.871 49.655 345.321 46.859 L 345.321 46.859 L 345.321 46.859 Q 346.77 44.062 349.43 42.511 L 349.43 42.511 L 349.43 42.511 Q 352.09 40.959 355.603 40.959 L 355.603 40.959 L 355.603 40.959 Z  M 376.236 49.86 L 376.236 49.86 Q 377.327 48.121 379.049 47.097 L 379.049 47.097 L 379.049 47.097 Q 380.771 46.074 382.784 46.074 L 382.784 46.074 L 382.784 52.315 L 381.112 52.315 L 381.112 52.315 Q 378.793 52.315 377.514 53.304 L 377.514 53.304 L 377.514 53.304 Q 376.236 54.293 376.236 56.647 L 376.236 56.647 L 376.236 65.309 L 370.404 65.309 L 370.404 46.279 L 376.236 46.279 L 376.236 49.86 L 376.236 49.86 Z  M 403.314 55.282 L 403.314 55.282 Q 403.314 55.999 403.143 56.851 L 403.143 56.851 L 389.945 56.851 L 389.945 56.851 Q 390.048 59 391.037 59.938 L 391.037 59.938 L 391.037 59.938 Q 392.026 60.875 393.56 60.875 L 393.56 60.875 L 393.56 60.875 Q 394.856 60.875 395.709 60.227 L 395.709 60.227 L 395.709 60.227 Q 396.561 59.579 396.834 58.556 L 396.834 58.556 L 403.007 58.556 L 403.007 58.556 Q 402.632 60.568 401.37 62.154 L 401.37 62.154 L 401.37 62.154 Q 400.108 63.74 398.164 64.644 L 398.164 64.644 L 398.164 64.644 Q 396.22 65.548 393.833 65.548 L 393.833 65.548 L 393.833 65.548 Q 391.037 65.548 388.871 64.371 L 388.871 64.371 L 388.871 64.371 Q 386.705 63.194 385.478 60.978 L 385.478 60.978 L 385.478 60.978 Q 384.25 58.761 384.25 55.794 L 384.25 55.794 L 384.25 55.794 Q 384.25 52.793 385.461 50.593 L 385.461 50.593 L 385.461 50.593 Q 386.671 48.393 388.854 47.217 L 388.854 47.217 L 388.854 47.217 Q 391.037 46.04 393.833 46.04 L 393.833 46.04 L 393.833 46.04 Q 396.664 46.04 398.812 47.2 L 398.812 47.2 L 398.812 47.2 Q 400.961 48.359 402.137 50.457 L 402.137 50.457 L 402.137 50.457 Q 403.314 52.554 403.314 55.282 L 403.314 55.282 L 403.314 55.282 Z  M 397.414 54.396 L 397.414 54.396 Q 397.448 52.52 396.408 51.582 L 396.408 51.582 L 396.408 51.582 Q 395.368 50.644 393.833 50.644 L 393.833 50.644 L 393.833 50.644 Q 392.23 50.644 391.173 51.599 L 391.173 51.599 L 391.173 51.599 Q 390.116 52.554 389.979 54.396 L 389.979 54.396 L 397.414 54.396 L 397.414 54.396 Z  M 413.579 46.04 L 413.579 46.04 Q 415.762 46.04 417.331 47.029 L 417.331 47.029 L 417.331 47.029 Q 418.899 48.018 419.65 49.723 L 419.65 49.723 L 419.65 46.279 L 425.447 46.279 L 425.447 65.309 L 419.65 65.309 L 419.65 61.864 L 419.65 61.864 Q 418.899 63.57 417.331 64.559 L 417.331 64.559 L 417.331 64.559 Q 415.762 65.548 413.579 65.548 L 413.579 65.548 L 413.579 65.548 Q 411.226 65.548 409.367 64.371 L 409.367 64.371 L 409.367 64.371 Q 407.509 63.194 406.434 60.978 L 406.434 60.978 L 406.434 60.978 Q 405.36 58.761 405.36 55.794 L 405.36 55.794 L 405.36 55.794 Q 405.36 52.793 406.434 50.593 L 406.434 50.593 L 406.434 50.593 Q 407.509 48.393 409.367 47.217 L 409.367 47.217 L 409.367 47.217 Q 411.226 46.04 413.579 46.04 L 413.579 46.04 L 413.579 46.04 Z  M 415.455 51.156 L 415.455 51.156 Q 413.579 51.156 412.437 52.384 L 412.437 52.384 L 412.437 52.384 Q 411.294 53.611 411.294 55.794 L 411.294 55.794 L 411.294 55.794 Q 411.294 57.977 412.437 59.204 L 412.437 59.204 L 412.437 59.204 Q 413.579 60.432 415.455 60.432 L 415.455 60.432 L 415.455 60.432 Q 417.296 60.432 418.473 59.17 L 418.473 59.17 L 418.473 59.17 Q 419.65 57.908 419.65 55.794 L 419.65 55.794 L 419.65 55.794 Q 419.65 53.645 418.473 52.401 L 418.473 52.401 L 418.473 52.401 Q 417.296 51.156 415.455 51.156 L 415.455 51.156 L 415.455 51.156 Z  M 438.407 60.296 L 440.248 60.296 L 440.248 65.309 L 437.622 65.309 L 437.622 65.309 Q 434.28 65.309 432.421 63.655 L 432.421 63.655 L 432.421 63.655 Q 430.563 62.001 430.563 58.181 L 430.563 58.181 L 430.563 51.19 L 428.005 51.19 L 428.005 46.279 L 430.563 46.279 L 430.563 41.607 L 436.394 41.607 L 436.394 46.279 L 440.214 46.279 L 440.214 51.19 L 436.394 51.19 L 436.394 58.283 L 436.394 58.283 Q 436.394 59.409 436.855 59.852 L 436.855 59.852 L 436.855 59.852 Q 437.315 60.296 438.407 60.296 L 438.407 60.296 L 438.407 60.296 Z  M 442.976 40.925 L 442.976 40.925 Q 442.976 39.595 443.931 38.725 L 443.931 38.725 L 443.931 38.725 Q 444.886 37.855 446.455 37.855 L 446.455 37.855 L 446.455 37.855 Q 448.024 37.855 448.979 38.725 L 448.979 38.725 L 448.979 38.725 Q 449.934 39.595 449.934 40.925 L 449.934 40.925 L 449.934 40.925 Q 449.934 42.221 448.979 43.09 L 448.979 43.09 L 448.979 43.09 Q 448.024 43.96 446.455 43.96 L 446.455 43.96 L 446.455 43.96 Q 444.886 43.96 443.931 43.09 L 443.931 43.09 L 443.931 43.09 Q 442.976 42.221 442.976 40.925 L 442.976 40.925 L 442.976 40.925 Z  M 443.522 46.279 L 449.354 46.279 L 449.354 65.309 L 443.522 65.309 L 443.522 46.279 L 443.522 46.279 Z  M 462.279 46.04 L 462.279 46.04 Q 465.11 46.04 467.344 47.217 L 467.344 47.217 L 467.344 47.217 Q 469.577 48.393 470.856 50.61 L 470.856 50.61 L 470.856 50.61 Q 472.135 52.827 472.135 55.794 L 472.135 55.794 L 472.135 55.794 Q 472.135 58.761 470.856 60.978 L 470.856 60.978 L 470.856 60.978 Q 469.577 63.194 467.344 64.371 L 467.344 64.371 L 467.344 64.371 Q 465.11 65.548 462.279 65.548 L 462.279 65.548 L 462.279 65.548 Q 459.449 65.548 457.198 64.371 L 457.198 64.371 L 457.198 64.371 Q 454.947 63.194 453.668 60.978 L 453.668 60.978 L 453.668 60.978 Q 452.389 58.761 452.389 55.794 L 452.389 55.794 L 452.389 55.794 Q 452.389 52.827 453.668 50.61 L 453.668 50.61 L 453.668 50.61 Q 454.947 48.393 457.198 47.217 L 457.198 47.217 L 457.198 47.217 Q 459.449 46.04 462.279 46.04 L 462.279 46.04 L 462.279 46.04 Z  M 462.279 51.088 L 462.279 51.088 Q 460.608 51.088 459.466 52.298 L 459.466 52.298 L 459.466 52.298 Q 458.323 53.509 458.323 55.794 L 458.323 55.794 L 458.323 55.794 Q 458.323 58.079 459.466 59.273 L 459.466 59.273 L 459.466 59.273 Q 460.608 60.466 462.279 60.466 L 462.279 60.466 L 462.279 60.466 Q 463.95 60.466 465.076 59.273 L 465.076 59.273 L 465.076 59.273 Q 466.201 58.079 466.201 55.794 L 466.201 55.794 L 466.201 55.794 Q 466.201 53.509 465.076 52.298 L 465.076 52.298 L 465.076 52.298 Q 463.95 51.088 462.279 51.088 L 462.279 51.088 L 462.279 51.088 Z  M 487.243 46.074 L 487.243 46.074 Q 490.517 46.074 492.444 48.257 L 492.444 48.257 L 492.444 48.257 Q 494.371 50.44 494.371 54.259 L 494.371 54.259 L 494.371 65.309 L 488.539 65.309 L 488.539 54.941 L 488.539 54.941 Q 488.539 53.032 487.533 51.957 L 487.533 51.957 L 487.533 51.957 Q 486.527 50.883 484.856 50.883 L 484.856 50.883 L 484.856 50.883 Q 483.082 50.883 482.042 52.008 L 482.042 52.008 L 482.042 52.008 Q 481.002 53.134 481.002 55.214 L 481.002 55.214 L 481.002 65.309 L 475.17 65.309 L 475.17 46.279 L 481.002 46.279 L 481.002 49.758 L 481.002 49.758 Q 481.821 48.052 483.44 47.063 L 483.44 47.063 L 483.44 47.063 Q 485.06 46.074 487.243 46.074 L 487.243 46.074 L 487.243 46.074 Z  M 269.934 41.368 L 277.028 41.368 L 277.028 65.309 L 271.196 65.309 L 271.196 50.337 L 266.013 65.309 L 260.965 65.309 L 255.747 50.303 L 255.747 65.309 L 249.916 65.309 L 249.916 41.368 L 257.043 41.368 L 263.557 58.045 L 269.934 41.368 L 269.934 41.368 Z  M 294.114 46.279 L 299.98 46.279 L 299.98 65.309 L 294.114 65.309 L 294.114 61.864 L 294.114 61.864 Q 293.295 63.535 291.676 64.524 L 291.676 64.524 L 291.676 64.524 Q 290.056 65.513 287.907 65.513 L 287.907 65.513 L 287.907 65.513 Q 284.633 65.513 282.706 63.331 L 282.706 63.331 L 282.706 63.331 Q 280.779 61.148 280.779 57.329 L 280.779 57.329 L 280.779 46.279 L 286.577 46.279 L 286.577 56.612 L 286.577 56.612 Q 286.577 58.556 287.583 59.631 L 287.583 59.631 L 287.583 59.631 Q 288.589 60.705 290.294 60.705 L 290.294 60.705 L 290.294 60.705 Q 292.068 60.705 293.091 59.579 L 293.091 59.579 L 293.091 59.579 Q 294.114 58.454 294.114 56.374 L 294.114 56.374 L 294.114 46.279 L 294.114 46.279 Z  M 304.004 40.072 L 309.836 40.072 L 309.836 65.309 L 304.004 65.309 L 304.004 40.072 L 304.004 40.072 Z  M 322.795 60.296 L 324.637 60.296 L 324.637 65.309 L 322.011 65.309 L 322.011 65.309 Q 318.669 65.309 316.81 63.655 L 316.81 63.655 L 316.81 63.655 Q 314.951 62.001 314.951 58.181 L 314.951 58.181 L 314.951 51.19 L 312.394 51.19 L 312.394 46.279 L 314.951 46.279 L 314.951 41.607 L 320.783 41.607 L 320.783 46.279 L 324.603 46.279 L 324.603 51.19 L 320.783 51.19 L 320.783 58.283 L 320.783 58.283 Q 320.783 59.409 321.243 59.852 L 321.243 59.852 L 321.243 59.852 Q 321.704 60.296 322.795 60.296 L 322.795 60.296 L 322.795 60.296 Z  M 327.365 40.925 L 327.365 40.925 Q 327.365 39.595 328.32 38.725 L 328.32 38.725 L 328.32 38.725 Q 329.275 37.855 330.844 37.855 L 330.844 37.855 L 330.844 37.855 Q 332.412 37.855 333.367 38.725 L 333.367 38.725 L 333.367 38.725 Q 334.322 39.595 334.322 40.925 L 334.322 40.925 L 334.322 40.925 Q 334.322 42.221 333.367 43.09 L 333.367 43.09 L 333.367 43.09 Q 332.412 43.96 330.844 43.96 L 330.844 43.96 L 330.844 43.96 Q 329.275 43.96 328.32 43.09 L 328.32 43.09 L 328.32 43.09 Q 327.365 42.221 327.365 40.925 L 327.365 40.925 L 327.365 40.925 Z  M 327.911 46.279 L 333.742 46.279 L 333.742 65.309 L 327.911 65.309 L 327.911 46.279 L 327.911 46.279 Z  M 189.075 41.198 L 194.906 41.198 L 194.906 57.67 L 194.906 57.67 Q 194.906 61.455 192.843 63.501 L 192.843 63.501 L 192.843 63.501 Q 190.78 65.548 187.131 65.548 L 187.131 65.548 L 187.131 65.548 Q 183.175 65.548 180.856 63.314 L 180.856 63.314 L 180.856 63.314 Q 178.537 61.08 178.537 56.885 L 178.537 56.885 L 184.3 56.885 L 184.3 56.885 Q 184.3 60.262 186.858 60.262 L 186.858 60.262 L 186.858 60.262 Q 189.075 60.262 189.075 57.67 L 189.075 57.67 L 189.075 41.198 L 189.075 41.198 Z  M 198.624 41.198 L 204.421 41.198 L 204.421 55.112 L 204.421 55.112 Q 204.421 57.499 205.496 58.761 L 205.496 58.761 L 205.496 58.761 Q 206.57 60.023 208.616 60.023 L 208.616 60.023 L 208.616 60.023 Q 210.662 60.023 211.737 58.761 L 211.737 58.761 L 211.737 58.761 Q 212.811 57.499 212.811 55.112 L 212.811 55.112 L 212.811 41.198 L 218.643 41.198 L 218.643 55.112 L 218.643 55.112 Q 218.643 58.522 217.313 60.858 L 217.313 60.858 L 217.313 60.858 Q 215.982 63.194 213.68 64.371 L 213.68 64.371 L 213.68 64.371 Q 211.378 65.548 208.48 65.548 L 208.48 65.548 L 208.48 65.548 Q 205.581 65.548 203.364 64.388 L 203.364 64.388 L 203.364 64.388 Q 201.147 63.229 199.886 60.875 L 199.886 60.875 L 199.886 60.875 Q 198.624 58.522 198.624 55.112 L 198.624 55.112 L 198.624 41.198 L 198.624 41.198 Z  M 239.855 58.522 L 239.855 58.522 Q 239.855 60.432 238.883 62.035 L 238.883 62.035 L 238.883 62.035 Q 237.911 63.638 236.018 64.593 L 236.018 64.593 L 236.018 64.593 Q 234.126 65.548 231.431 65.548 L 231.431 65.548 L 231.431 65.548 Q 227.373 65.548 224.747 63.57 L 224.747 63.57 L 224.747 63.57 Q 222.121 61.592 221.882 58.045 L 221.882 58.045 L 228.089 58.045 L 228.089 58.045 Q 228.226 59.409 229.061 60.193 L 229.061 60.193 L 229.061 60.193 Q 229.897 60.978 231.193 60.978 L 231.193 60.978 L 231.193 60.978 Q 232.318 60.978 232.966 60.364 L 232.966 60.364 L 232.966 60.364 Q 233.614 59.75 233.614 58.727 L 233.614 58.727 L 233.614 58.727 Q 233.614 57.806 233.017 57.192 L 233.017 57.192 L 233.017 57.192 Q 232.42 56.578 231.534 56.186 L 231.534 56.186 L 231.534 56.186 Q 230.647 55.794 229.078 55.248 L 229.078 55.248 L 229.078 55.248 Q 226.793 54.464 225.344 53.731 L 225.344 53.731 L 225.344 53.731 Q 223.895 52.997 222.854 51.548 L 222.854 51.548 L 222.854 51.548 Q 221.814 50.099 221.814 47.78 L 221.814 47.78 L 221.814 47.78 Q 221.814 45.631 222.906 44.062 L 222.906 44.062 L 222.906 44.062 Q 223.997 42.493 225.924 41.658 L 225.924 41.658 L 225.924 41.658 Q 227.851 40.822 230.34 40.822 L 230.34 40.822 L 230.34 40.822 Q 234.364 40.822 236.735 42.732 L 236.735 42.732 L 236.735 42.732 Q 239.105 44.642 239.412 47.984 L 239.412 47.984 L 233.103 47.984 L 233.103 47.984 Q 232.932 46.791 232.233 46.091 L 232.233 46.091 L 232.233 46.091 Q 231.534 45.392 230.34 45.392 L 230.34 45.392 L 230.34 45.392 Q 229.317 45.392 228.686 45.938 L 228.686 45.938 L 228.686 45.938 Q 228.055 46.484 228.055 47.541 L 228.055 47.541 L 228.055 47.541 Q 228.055 48.393 228.618 48.99 L 228.618 48.99 L 228.618 48.99 Q 229.181 49.587 230.033 49.962 L 230.033 49.962 L 230.033 49.962 Q 230.886 50.337 232.489 50.917 L 232.489 50.917 L 232.489 50.917 Q 234.808 51.701 236.274 52.469 L 236.274 52.469 L 236.274 52.469 Q 237.741 53.236 238.798 54.703 L 238.798 54.703 L 238.798 54.703 Q 239.855 56.169 239.855 58.522 L 239.855 58.522 L 239.855 58.522 Z " fill="rgb(255,255,255)"/><line x1="157.973" y1="92.607" x2="157.973" y2="16.393" vector-effect="non-scaling-stroke" stroke-width="1" stroke="rgb(96,96,96)" stroke-linejoin="miter" stroke-linecap="square" stroke-miterlimit="3"/></svg>