<?xml version="1.0" encoding="UTF-8" standalone="no"?>
<!-- Generator: Gravit.io -->
<svg xmlns="http://www.w3.org/2000/svg" xmlns:xlink="http://www.w3.org/1999/xlink" style="isolation:isolate" viewBox="0 0 500 250" width="500pt" height="250pt"><rect x="36" y="44" width="99.966" height="62.116" transform="matrix(1,0,0,1,0,0)" fill="rgb(255,255,255)"/><clipPath id="_clipPath_0mzWOdzetEIlaEzI7BIwTdVmpKKdzRVG"><rect x="36" y="44" width="99.966" height="62.116" transform="matrix(1,0,0,1,0,0)" fill="rgb(255,255,255)"/></clipPath><g clip-path="url(#_clipPath_0mzWOdzetEIlaEzI7BIwTdVmpKKdzRVG)"><rect x="149.147" y="1.959" width="2.91" height="122.201" transform="matrix(0.864,-0.503,0.503,0.864,-11.27,84.386)" fill="rgb(235,235,235)"/><rect x="143.803" y="3.423" width="2.91" height="122.201" transform="matrix(0.864,-0.503,0.503,0.864,-12.734,81.895)" fill="rgb(235,235,235)"/><rect x="138.458" y="4.888" width="2.91" height="122.201" transform="matrix(0.864,-0.503,0.503,0.864,-14.198,79.404)" fill="rgb(235,235,235)"/><rect x="133.114" y="6.353" width="2.91" height="122.201" transform="matrix(0.864,-0.503,0.503,0.864,-15.662,76.913)" fill="rgb(235,235,235)"/><rect x="127.77" y="7.817" width="2.91" height="122.201" transform="matrix(0.864,-0.503,0.503,0.864,-17.126,74.421)" fill="rgb(235,235,235)"/><rect x="122.425" y="9.282" width="2.91" height="122.201" transform="matrix(0.864,-0.503,0.503,0.864,-18.59,71.93)" fill="rgb(235,235,235)"/><rect x="117.081" y="10.747" width="2.91" height="122.201" transform="matrix(0.864,-0.503,0.503,0.864,-20.054,69.439)" fill="rgb(235,235,235)"/><rect x="111.736" y="12.211" width="2.91" height="122.201" transform="matrix(0.864,-0.503,0.503,0.864,-21.517,66.948)" fill="rgb(235,235,235)"/><rect x="106.392" y="13.676" width="2.91" height="122.201" transform="matrix(0.864,-0.503,0.503,0.864,-22.981,64.456)" fill="rgb(235,235,235)"/><rect x="101.048" y="15.141" width="2.91" height="122.201" transform="matrix(0.864,-0.503,0.503,0.864,-24.445,61.965)" fill="rgb(235,235,235)"/><rect x="95.703" y="16.605" width="2.91" height="122.201" transform="matrix(0.864,-0.503,0.503,0.864,-25.909,59.474)" fill="rgb(235,235,235)"/><rect x="90.359" y="18.07" width="2.91" height="122.201" transform="matrix(0.864,-0.503,0.503,0.864,-27.373,56.983)" fill="rgb(235,235,235)"/><rect x="85.014" y="19.535" width="2.91" height="122.201" transform="matrix(0.864,-0.503,0.503,0.864,-28.837,54.491)" fill="rgb(235,235,235)"/><rect x="79.67" y="21" width="2.91" height="122.201" transform="matrix(0.864,-0.503,0.503,0.864,-30.301,52)" fill="rgb(235,235,235)"/><rect x="74.326" y="22.464" width="2.91" height="122.201" transform="matrix(0.864,-0.503,0.503,0.864,-31.765,49.509)" fill="rgb(235,235,235)"/><rect x="68.981" y="23.929" width="2.91" height="122.201" transform="matrix(0.864,-0.503,0.503,0.864,-33.229,47.017)" fill="rgb(235,235,235)"/><rect x="63.637" y="25.394" width="2.91" height="122.201" transform="matrix(0.864,-0.503,0.503,0.864,-34.692,44.526)" fill="rgb(235,235,235)"/><rect x="58.293" y="26.858" width="2.91" height="122.201" transform="matrix(0.864,-0.503,0.503,0.864,-36.156,42.035)" fill="rgb(235,235,235)"/><rect x="52.948" y="28.323" width="2.91" height="122.201" transform="matrix(0.864,-0.503,0.503,0.864,-37.62,39.544)" fill="rgb(235,235,235)"/><rect x="47.604" y="29.788" width="2.91" height="122.201" transform="matrix(0.864,-0.503,0.503,0.864,-39.084,37.052)" fill="rgb(235,235,235)"/><rect x="42.259" y="31.252" width="2.91" height="122.201" transform="matrix(0.864,-0.503,0.503,0.864,-40.548,34.561)" fill="rgb(235,235,235)"/><rect x="36.915" y="32.717" width="2.91" height="122.201" transform="matrix(0.864,-0.503,0.503,0.864,-42.012,32.07)" fill="rgb(235,235,235)"/><rect x="31.571" y="34.182" width="2.91" height="122.201" transform="matrix(0.864,-0.503,0.503,0.864,-43.476,29.579)" fill="rgb(235,235,235)"/></g><mask id="_mask_rEVYJTA7QjS3ELgYRWKEZDselwaKzKJ4"><circle vector-effect="non-scaling-stroke" cx="341" cy="84" r="12" fill="white" stroke="none"/></mask><circle vector-effect="non-scaling-stroke" cx="341" cy="84" r="12" fill="none"/><circle vector-effect="non-scaling-stroke" cx="341" cy="84" r="12" fill="none" mask="url(#_mask_rEVYJTA7QjS3ELgYRWKEZDselwaKzKJ4)" stroke-width="4" stroke="rgb(50,153,251)" stroke-linejoin="miter" stroke-linecap="square" stroke-miterlimit="3"/><mask id="_mask_zRONR6jOEFQRUhOa3j0Xp9wPss6FiM7h"><circle vector-effect="non-scaling-stroke" cx="361.9421763754745" cy="66.05782362452551" r="5.942176375474503" fill="white" stroke="none"/></mask><circle vector-effect="non-scaling-stroke" cx="361.9421763754745" cy="66.05782362452551" r="5.942176375474503" fill="none"/><circle vector-effect="non-scaling-stroke" cx="361.9421763754745" cy="66.05782362452551" r="5.942176375474503" fill="none" mask="url(#_mask_zRONR6jOEFQRUhOa3j0Xp9wPss6FiM7h)" stroke-width="4" stroke="rgb(50,153,251)" stroke-linejoin="miter" stroke-linecap="square" stroke-miterlimit="3"/><path d=" M 455.652 222.418 L 452.125 211.226 L 467.488 221.283 L 450.776 229.715 L 444.337 205.798 L 461.754 207.607 L 475 222.51 L 463.961 236.768 L 445.012 238.792 L 434.985 209.171 L 444.552 193.257 L 467.641 192" fill="none" vector-effect="non-scaling-stroke" stroke-width="1" stroke="rgb(189,204,255)" stroke-linejoin="miter" stroke-linecap="square" stroke-miterlimit="3"/><circle vector-effect="non-scaling-stroke" cx="66" cy="201.99999999999997" r="35" fill="rgb(216,243,255)"/></svg>