<?xml version="1.0" encoding="UTF-8" standalone="no"?>
<!-- Generator: Gravit.io -->
<svg xmlns="http://www.w3.org/2000/svg" xmlns:xlink="http://www.w3.org/1999/xlink" style="isolation:isolate" viewBox="0 0 512 512" width="512pt" height="512pt"><g><g><path d=" M 268.277 323.672 C 272.844 325.512 279.003 325.838 285.734 326.063 C 317.696 327.134 350.043 318.446 376.864 300.96 C 307.072 300.326 275.905 318.372 268.277 323.672 Z " fill="rgb(190,0,255)"/><path d=" M 414.771 257.581 C 417.298 253.919 419.646 250.159 421.805 246.302 C 386.757 255.191 322.927 272.797 293.222 289.953 C 271.638 302.418 265.017 314.956 263.688 324.219 L 263.688 324.219 C 278.907 297.644 331.849 290.084 366.707 286.198 C 386.115 284.034 403.679 273.653 414.771 257.581 Z " fill="rgb(255,37,129)"/><linearGradient id="_lgradient_2" x1="9.702246193121766e-7" y1="0.5" x2="1.0000021382715265" y2="0.5" gradientTransform="matrix(182.363,0,0,133.621,257.8,189.191)" gradientUnits="userSpaceOnUse"><stop offset="0%" stop-opacity="1" style="stop-color:rgb(255,110,48)"/><stop offset="100%" stop-opacity="1" style="stop-color:rgb(253,52,142)"/></linearGradient><path d=" M 319.506 258.585 C 349.909 245.581 382.13 234.914 408.979 227.723 C 426.5 223.031 439.174 207.644 440.146 189.532 C 440.152 189.418 440.158 189.305 440.164 189.191 C 440.164 189.191 376.269 209.395 336.769 226.625 C 318.653 234.528 300.276 243.955 285.439 257.009 C 269.798 270.771 252.693 288.87 259.232 322.813 C 261.249 302.527 279.861 275.541 319.506 258.585 Z " fill="url(#_lgradient_2)"/><linearGradient id="_lgradient_3" x1="1.1732936178177056e-8" y1="0.5000008998680795" x2="1" y2="0.5000008998680795" gradientTransform="matrix(243.217,0,0,216.666,254.816,73)" gradientUnits="userSpaceOnUse"><stop offset="0%" stop-opacity="1" style="stop-color:rgb(18,170,243)"/><stop offset="100%" stop-opacity="1" style="stop-color:rgb(44,218,184)"/></linearGradient><path d=" M 498.034 73 C 440.36 108.842 382.686 144.682 325.012 180.523 C 306.622 191.952 290.558 206.234 275.686 221.972 C 254.351 244.549 254.677 273.932 254.851 289.666 C 263.229 249.092 281.214 233.439 364.242 194.547 C 383.692 185.437 403.733 177.742 423.495 169.33 C 468.254 150.277 487.883 113.527 498.034 73 Z " fill="url(#_lgradient_3)"/></g><path d=" M 248.649 293.521 L 246.404 300.555 L 246.404 300.555 Q 240.118 298.909 233.907 297.337 L 233.907 297.337 L 233.907 297.337 Q 227.695 295.766 221.259 294.419 L 221.259 294.419 L 221.259 294.419 Q 213.626 309.984 205.095 324.951 L 205.095 324.951 L 205.095 324.951 Q 196.564 339.918 186.985 354.436 L 186.985 354.436 L 186.985 354.436 Q 179.651 365.512 170.596 376.139 L 170.596 376.139 L 170.596 376.139 Q 161.541 386.765 151.438 396.12 L 151.438 396.12 L 151.438 396.12 Q 141.336 405.474 130.485 413.332 L 130.485 413.332 L 130.485 413.332 Q 119.633 421.189 108.633 426.952 L 108.633 426.952 L 108.633 426.952 Q 97.632 432.714 86.781 435.857 L 86.781 435.857 L 86.781 435.857 Q 75.93 439 65.752 439 L 65.752 439 L 65.752 439 Q 56.622 439 47.343 435.782 L 47.343 435.782 L 47.343 435.782 Q 38.063 432.564 30.655 426.128 L 30.655 426.128 L 30.655 426.128 Q 23.246 419.693 18.606 410.039 L 18.606 410.039 L 18.606 410.039 Q 13.966 400.385 13.966 387.364 L 13.966 387.364 L 13.966 387.364 Q 13.966 380.629 15.538 373.145 L 15.538 373.145 L 15.538 373.145 Q 17.109 365.662 20.702 357.729 L 20.702 357.729 L 20.702 357.729 Q 24.294 349.797 29.981 341.49 L 29.981 341.49 L 29.981 341.49 Q 35.669 333.183 43.9 324.502 L 43.9 324.502 L 43.9 324.502 Q 54.826 312.978 68.371 304.596 L 68.371 304.596 L 68.371 304.596 Q 81.917 296.215 97.183 290.752 L 97.183 290.752 L 97.183 290.752 Q 112.449 285.289 129.063 282.67 L 129.063 282.67 L 129.063 282.67 Q 145.676 280.05 162.738 280.05 L 162.738 280.05 L 162.738 280.05 Q 173.964 280.05 185.114 281.098 L 185.114 281.098 L 185.114 281.098 Q 196.265 282.146 207.49 284.091 L 207.49 284.091 L 207.49 284.091 Q 215.422 267.628 221.858 251.314 L 221.858 251.314 L 221.858 251.314 Q 228.294 235 233.083 219.135 L 233.083 219.135 L 233.083 219.135 Q 240.268 194.888 243.411 177.077 L 243.411 177.077 L 243.411 177.077 Q 246.554 159.267 246.554 146.245 L 246.554 146.245 L 246.554 146.245 Q 246.554 135.17 244.758 127.162 L 244.758 127.162 L 244.758 127.162 Q 242.962 119.155 240.118 113.542 L 240.118 113.542 L 240.118 113.542 Q 237.274 107.93 233.532 104.413 L 233.532 104.413 L 233.532 104.413 Q 229.791 100.895 225.974 99.024 L 225.974 99.024 L 225.974 99.024 Q 222.157 97.154 218.49 96.48 L 218.49 96.48 L 218.49 96.48 Q 214.824 95.807 211.98 95.807 L 211.98 95.807 L 211.98 95.807 Q 200.006 95.807 190.577 101.494 L 190.577 101.494 L 190.577 101.494 Q 181.148 107.182 174.637 117.509 L 174.637 117.509 L 174.637 117.509 Q 168.127 127.836 164.684 142.429 L 164.684 142.429 L 164.684 142.429 Q 161.242 157.022 161.242 174.832 L 161.242 174.832 L 161.242 174.832 Q 161.242 188.752 163.636 200.576 L 163.636 200.576 L 163.636 200.576 Q 166.031 212.4 169.623 222.128 L 169.623 222.128 L 169.623 222.128 Q 173.215 231.857 177.481 239.34 L 177.481 239.34 L 177.481 239.34 Q 181.746 246.824 185.413 251.912 L 185.413 251.912 L 185.413 251.912 Q 189.08 257.001 191.475 259.695 L 191.475 259.695 L 191.475 259.695 Q 193.87 262.389 194.019 262.389 L 194.019 262.389 L 189.38 267.179 L 189.38 267.179 Q 179.801 258.947 171.419 248.919 L 171.419 248.919 L 171.419 248.919 Q 163.038 238.891 156.901 227.367 L 156.901 227.367 L 156.901 227.367 Q 150.765 215.842 147.173 202.896 L 147.173 202.896 L 147.173 202.896 Q 143.581 189.949 143.581 175.73 L 143.581 175.73 L 143.581 175.73 Q 143.581 159.566 148.22 143.851 L 148.22 143.851 L 148.22 143.851 Q 152.86 128.135 161.691 115.638 L 161.691 115.638 L 161.691 115.638 Q 170.521 103.14 183.393 95.507 L 183.393 95.507 L 183.393 95.507 Q 196.265 87.874 212.728 87.874 L 212.728 87.874 L 212.728 87.874 Q 216.47 87.874 221.409 88.622 L 221.409 88.622 L 221.409 88.622 Q 226.348 89.371 231.587 91.691 L 231.587 91.691 L 231.587 91.691 Q 236.825 94.011 241.989 98.201 L 241.989 98.201 L 241.989 98.201 Q 247.152 102.392 251.119 109.352 L 251.119 109.352 L 251.119 109.352 Q 255.085 116.311 257.554 126.414 L 257.554 126.414 L 257.554 126.414 Q 260.024 136.517 260.024 150.586 L 260.024 150.586 L 260.024 150.586 Q 260.024 157.022 259.425 164.281 L 259.425 164.281 L 259.425 164.281 Q 258.827 171.54 257.629 179.921 L 257.629 179.921 L 257.629 179.921 Q 253.439 207.76 245.057 234.626 L 245.057 234.626 L 245.057 234.626 Q 236.675 261.491 224.552 287.534 L 224.552 287.534 L 224.552 287.534 Q 230.838 288.881 236.825 290.378 L 236.825 290.378 L 236.825 290.378 Q 242.812 291.874 248.649 293.521 L 248.649 293.521 Z  M 65.603 431.217 L 65.603 431.217 L 65.603 431.217 Q 76.828 431.816 88.951 426.877 L 88.951 426.877 L 88.951 426.877 Q 101.074 421.938 113.347 412.583 L 113.347 412.583 L 113.347 412.583 Q 125.62 403.229 137.818 390.058 L 137.818 390.058 L 137.818 390.058 Q 150.016 376.887 161.616 361.172 L 161.616 361.172 L 161.616 361.172 Q 173.215 345.456 183.917 327.795 L 183.917 327.795 L 183.917 327.795 Q 194.618 310.134 203.898 291.575 L 203.898 291.575 L 203.898 291.575 Q 196.265 290.527 188.706 289.929 L 188.706 289.929 L 188.706 289.929 Q 181.148 289.33 173.215 289.33 L 173.215 289.33 L 173.215 289.33 Q 149.867 289.33 130.036 294.568 L 130.036 294.568 L 130.036 294.568 Q 110.204 299.807 93.965 308.488 L 93.965 308.488 L 93.965 308.488 Q 77.726 317.169 65.303 328.394 L 65.303 328.394 L 65.303 328.394 Q 52.881 339.619 44.499 351.518 L 44.499 351.518 L 44.499 351.518 Q 36.118 363.417 31.777 375.166 L 31.777 375.166 L 31.777 375.166 Q 27.437 386.915 27.437 396.643 L 27.437 396.643 L 27.437 396.643 Q 27.437 404.277 30.056 410.638 L 30.056 410.638 L 30.056 410.638 Q 32.675 416.999 37.539 421.563 L 37.539 421.563 L 37.539 421.563 Q 42.404 426.128 49.513 428.673 L 49.513 428.673 L 49.513 428.673 Q 56.622 431.217 65.603 431.217 Z " fill="rgb(255,255,255)"/></g></svg>