<?xml version="1.0" encoding="UTF-8" standalone="no"?>
<!-- Generator: Gravit.io -->
<svg xmlns="http://www.w3.org/2000/svg" xmlns:xlink="http://www.w3.org/1999/xlink" style="isolation:isolate" viewBox="0 0 500 160" width="500pt" height="160pt"><g><clipPath id="_clipPath_HpZIQ15RcCVGJIP2kx87uuPlsLcOi7RI"><path d=" M 22.504 20.068 L 22.504 133.816 L 477.496 133.816 L 477.496 20.068 L 22.504 20.068 Z " fill="rgb(255,255,255)"/></clipPath><g clip-path="url(#_clipPath_HpZIQ15RcCVGJIP2kx87uuPlsLcOi7RI)"><path d=" M 477.496 133.816 L 22.504 133.816 L 22.504 20.068 L 477.496 20.068 L 477.496 133.816 Z " fill="rgb(255,255,255)"/><path d=" M 406.592 64.226 C 406.592 64.226 406.933 51.171 421.889 51.217 C 436.704 51.262 437.186 64.226 437.186 64.226 L 406.592 64.226 Z " fill="rgb(30,30,30)"/><path d=" M 417.016 57.562 C 417.016 58.579 416.192 59.404 415.175 59.404 C 414.158 59.404 413.333 58.579 413.333 57.562 C 413.333 56.545 414.158 55.721 415.175 55.721 C 416.192 55.721 417.016 56.545 417.016 57.562 Z " fill="rgb(255,255,255)"/><path d=" M 430.444 57.562 C 430.444 58.579 429.618 59.404 428.603 59.404 C 427.586 59.404 426.761 58.579 426.761 57.562 C 426.761 56.545 427.586 55.721 428.603 55.721 C 429.618 55.721 430.444 56.545 430.444 57.562 Z " fill="rgb(255,255,255)"/><path d=" M 414.669 52.972 C 414.722 53.048 414.889 53.024 415.042 52.916 L 415.042 52.916 C 415.192 52.809 415.271 52.659 415.218 52.583 L 412.359 48.55 C 412.305 48.473 412.138 48.498 411.988 48.605 L 411.988 48.605 C 411.835 48.713 411.757 48.862 411.811 48.939 L 414.669 52.972 Z " fill="rgb(30,30,30)"/><path d=" M 429.109 52.972 C 429.054 53.048 428.888 53.024 428.735 52.916 L 428.735 52.916 C 428.585 52.809 428.506 52.659 428.56 52.583 L 431.417 48.55 C 431.473 48.473 431.64 48.498 431.79 48.605 L 431.79 48.605 C 431.942 48.713 432.021 48.862 431.966 48.939 L 429.109 52.972 Z " fill="rgb(30,30,30)"/><path d=" M 437.314 66.043 L 435.44 66.043 L 408.337 66.043 L 406.464 66.043 L 406.464 78.741 L 406.494 78.741 L 406.494 92.059 C 406.494 93.077 407.319 93.903 408.337 93.903 L 435.44 93.903 C 436.458 93.903 437.284 93.077 437.284 92.059 L 437.284 78.741 L 437.314 78.741 L 437.314 66.043 Z " fill="rgb(30,30,30)"/><path d=" M 445.519 83.017 C 445.519 84.829 444.051 86.298 442.239 86.298 L 442.239 86.298 C 440.427 86.298 438.958 84.829 438.958 83.017 L 438.958 68.274 C 438.958 66.462 440.427 64.993 442.239 64.993 L 442.239 64.993 C 444.051 64.993 445.519 66.462 445.519 68.274 L 445.519 83.017 Z " fill="rgb(30,30,30)"/><path d=" M 404.82 83.017 C 404.82 84.829 403.352 86.298 401.539 86.298 L 401.539 86.298 C 399.728 86.298 398.258 84.829 398.258 83.017 L 398.258 68.274 C 398.258 66.462 399.728 64.993 401.539 64.993 L 401.539 64.993 C 403.352 64.993 404.82 66.462 404.82 68.274 L 404.82 83.017 Z " fill="rgb(30,30,30)"/><path d=" M 431.501 102.099 C 431.501 103.91 430.033 105.379 428.219 105.379 L 428.219 105.379 C 426.409 105.379 424.939 103.91 424.939 102.099 L 424.939 87.355 C 424.939 85.543 426.409 84.074 428.219 84.074 L 428.219 84.074 C 430.033 84.074 431.501 85.543 431.501 87.355 L 431.501 102.099 Z " fill="rgb(30,30,30)"/><path d=" M 418.839 102.099 C 418.839 103.91 417.369 105.379 415.558 105.379 L 415.558 105.379 C 413.746 105.379 412.276 103.91 412.276 102.099 L 412.276 87.355 C 412.276 85.543 413.746 84.074 415.558 84.074 L 415.558 84.074 C 417.369 84.074 418.839 85.543 418.839 87.355 L 418.839 102.099 Z " fill="rgb(30,30,30)"/><path d=" M 80.468 52.969 C 90.701 51.403 100.953 49.928 111.205 48.505 C 111.211 57.49 111.205 66.469 111.211 75.454 C 100.966 75.493 90.72 75.649 80.468 75.682 C 80.462 68.106 80.462 60.537 80.468 52.969 L 80.468 52.969 Z " fill="rgb(30,30,30)"/><path d=" M 54.48 56.594 C 62.186 55.405 69.924 54.378 77.661 53.41 C 77.668 60.862 77.668 68.308 77.674 75.76 C 69.943 75.753 62.212 75.87 54.48 75.851 L 54.48 56.594 L 54.48 56.594 Z " fill="rgb(30,30,30)"/><path d=" M 54.48 78.196 C 62.205 78.17 69.93 78.294 77.655 78.281 C 77.655 85.752 77.674 93.224 77.661 100.695 C 69.943 99.552 62.212 98.551 54.48 97.505 L 54.48 78.196 Z " fill="rgb(30,30,30)"/><path d=" M 80.423 78.495 C 90.688 78.495 100.946 78.495 111.205 78.495 C 111.218 87.454 111.205 96.413 111.205 105.379 C 100.972 103.846 90.72 102.423 80.468 101.033 C 80.455 93.522 80.436 86.012 80.423 78.495 Z " fill="rgb(30,30,30)"/><path d=" M 184.299 78.722 C 184.231 71.523 190.22 68.064 190.49 67.897 C 187.122 63.007 181.881 62.338 180.012 62.257 C 175.55 61.809 171.306 64.865 169.043 64.865 C 166.782 64.865 163.286 62.325 159.588 62.394 C 154.722 62.464 150.241 65.2 147.732 69.521 C 142.682 78.227 146.443 91.119 151.366 98.179 C 153.773 101.631 156.64 105.516 160.41 105.376 C 164.039 105.235 165.411 103.048 169.796 103.048 C 174.182 103.048 175.417 105.376 179.253 105.303 C 183.159 105.235 185.632 101.784 188.022 98.32 C 190.786 94.311 191.922 90.43 191.991 90.23 C 191.905 90.191 184.376 87.327 184.299 78.722 Z " fill="rgb(30,30,30)"/><path d=" M 177.089 57.587 C 179.091 55.181 180.437 51.837 180.068 48.505 C 177.188 48.622 173.698 50.412 171.628 52.815 C 169.775 54.944 168.151 58.347 168.59 61.613 C 171.803 61.86 175.087 59.99 177.089 57.587 Z " fill="rgb(30,30,30)"/><path d=" M 337.075 61.05 C 337.418 60.907 337.726 60.796 338.015 60.648 C 338.098 60.606 338.173 60.458 338.175 60.357 C 338.203 59.318 337.994 58.339 337.296 57.534 C 336.466 56.576 335.353 56.666 334.654 57.726 C 334.531 57.913 334.419 58.117 334.345 58.327 C 333.893 59.602 333.975 60.847 334.618 62.04 C 335.007 62.762 335.178 62.774 335.752 62.172 C 335.762 62.162 335.76 62.144 335.764 62.13 C 335.764 62.115 335.771 62.096 335.763 62.085 C 335.722 62.023 335.675 61.964 335.633 61.903 C 335.137 61.178 335.034 60.385 335.347 59.582 C 335.445 59.331 335.757 59.019 335.987 59.005 C 336.221 58.991 336.528 59.269 336.703 59.497 C 336.868 59.71 336.922 60.02 336.988 60.295 C 337.042 60.523 337.045 60.764 337.075 61.05 Z  M 343.627 62.068 C 344.04 62.236 344.395 62.404 344.768 62.517 C 344.878 62.551 345.09 62.469 345.166 62.371 C 346.315 60.889 346.027 58.168 344.607 56.944 C 343.631 56.103 342.352 56.103 341.403 56.978 C 340.432 57.874 340.134 59.032 340.216 60.309 C 340.223 60.42 340.316 60.585 340.41 60.621 C 340.798 60.774 341.201 60.886 341.555 60.999 C 341.695 60.41 341.777 59.844 341.969 59.318 C 342.134 58.865 342.486 58.515 343.028 58.542 C 343.549 58.569 343.831 58.945 343.995 59.384 C 344.342 60.31 344.328 61.211 343.627 62.068 Z  M 339.251 68.621 C 340.042 68.618 340.753 68.361 341.439 67.981 C 342.227 67.544 343.055 67.176 343.834 66.726 C 344.363 66.42 344.906 66.087 345.327 65.654 C 346.264 64.692 346.035 63.607 344.836 63.013 C 344.702 62.946 344.561 62.891 344.423 62.829 C 343.383 62.358 342.342 61.885 341.3 61.416 C 341.052 61.305 340.804 61.194 340.547 61.108 C 339.232 60.672 338.016 60.856 336.923 61.723 C 336.108 62.369 335.3 63.022 334.493 63.679 C 333.979 64.097 333.816 64.637 334.162 65.202 C 334.439 65.652 334.833 66.048 335.236 66.397 C 335.826 66.909 336.485 67.341 337.087 67.84 C 337.721 68.366 338.433 68.626 339.251 68.621 Z  M 351.014 87.185 C 350.71 87.444 350.419 87.605 350.258 87.852 C 349.972 88.288 349.67 88.753 349.549 89.248 C 349.323 90.182 349.126 91.141 349.088 92.097 C 349.012 94.03 348.629 95.885 348.072 97.729 C 347.761 98.761 347.523 99.843 347.462 100.914 C 347.341 103.021 349.011 104.669 351.129 104.644 C 352.873 104.624 354.277 103.802 355.515 102.656 C 355.946 102.258 356.319 101.799 356.726 101.374 C 357.846 100.206 359.274 99.519 360.694 98.811 C 361.38 98.469 362.069 98.116 362.698 97.683 C 363.444 97.169 363.585 96.557 363.168 95.749 C 362.887 95.205 362.54 94.679 362.14 94.216 C 361.579 93.568 361.233 92.842 361.04 92.019 C 360.888 91.374 360.735 90.725 360.514 90.102 C 360.207 89.24 359.542 88.785 358.641 88.681 C 358.387 88.652 358.121 88.624 357.875 88.67 C 357.626 88.716 357.379 88.828 357.16 88.959 C 356.439 89.389 355.776 89.949 355.011 90.263 C 353.24 90.989 351.901 90.298 351.321 88.466 C 351.204 88.095 351.138 87.708 351.014 87.185 Z  M 330.884 104.029 C 331.317 103.979 331.759 103.964 332.183 103.874 C 334.453 103.397 335.547 101.305 334.563 99.208 C 334.169 98.37 333.647 97.566 333.054 96.854 C 331.52 95.012 330.215 93.031 329.137 90.894 C 328.873 90.369 328.63 89.818 328.277 89.355 C 327.845 88.787 327.371 88.21 326.802 87.792 C 325.744 87.013 324.603 87.188 323.73 88.168 C 323.35 88.595 323.008 89.059 322.676 89.525 C 322.166 90.24 321.502 90.725 320.671 90.998 C 320.255 91.135 319.837 91.274 319.443 91.46 C 318.572 91.872 318.093 92.566 318.137 93.547 C 318.164 94.132 318.242 94.718 318.335 95.298 C 318.477 96.178 318.477 97.033 318.145 97.881 C 318.004 98.242 317.932 98.637 317.875 99.023 C 317.694 100.228 318.126 100.906 319.304 101.202 C 319.916 101.356 320.548 101.453 321.176 101.514 C 323.323 101.721 325.404 102.113 327.343 103.147 C 328.426 103.724 329.635 103.983 330.884 104.029 Z  M 333.15 95.735 C 333.455 96.138 333.752 96.447 333.951 96.809 C 334.524 97.85 335.434 98.445 336.502 98.853 C 336.868 98.993 337.235 99.14 337.612 99.238 C 341.157 100.155 344.32 99.206 347.266 97.238 C 347.4 97.148 347.503 96.963 347.553 96.801 C 347.958 95.502 348.228 94.185 348.31 92.813 C 348.384 91.57 348.566 90.322 348.83 89.104 C 349.081 87.943 349.734 87.009 350.87 86.482 C 350.999 86.422 351.107 86.221 351.143 86.066 C 351.428 84.799 352.128 84.296 353.428 84.455 C 354.434 84.579 355.348 84.975 356.22 85.465 C 357.17 85.998 358.122 86.544 357.928 87.869 C 358.278 87.997 358.384 87.828 358.424 87.566 C 358.544 86.748 358.204 86.089 357.586 85.626 C 356.904 85.113 356.157 84.68 355.408 84.263 C 355.088 84.084 354.92 83.947 355.021 83.545 C 355.116 83.169 355.143 82.767 355.139 82.377 C 355.1 78.891 353.519 76.104 351.154 73.681 C 351.085 73.61 350.97 73.584 350.876 73.536 C 350.842 73.573 350.807 73.61 350.773 73.647 C 350.908 73.827 351.025 74.027 351.183 74.184 C 352.076 75.065 352.753 76.095 353.283 77.223 C 354.113 78.984 354.52 80.815 354.099 82.761 C 353.911 83.631 353.904 83.618 353.03 83.53 C 352.749 83.502 352.605 83.42 352.547 83.123 C 352.104 80.87 351.278 78.752 350.217 76.723 C 348.441 73.328 347.048 69.783 345.986 66.103 C 345.956 65.998 345.902 65.899 345.885 65.859 C 345.279 66.27 344.718 66.7 344.111 67.048 C 343.288 67.518 342.418 67.901 341.59 68.362 C 339.742 69.392 338.057 69.229 336.47 67.834 C 336.265 67.655 336.068 67.467 335.848 67.309 C 335.535 67.084 335.205 66.884 334.838 66.644 C 334.807 66.788 334.792 66.857 334.779 66.927 C 334.55 68.048 334.384 69.187 334.083 70.288 C 333.417 72.712 332.359 74.988 331.286 77.252 C 330.311 79.305 329.456 81.394 329.116 83.658 C 329.013 84.352 328.948 85.051 328.851 85.863 C 328.709 85.662 328.619 85.552 328.546 85.431 C 327.971 84.476 327.714 83.43 327.697 82.324 C 327.672 80.642 328.137 79.073 328.845 77.569 C 329.223 76.764 329.646 75.98 330.039 75.181 C 330.124 75.007 330.167 74.812 330.247 74.576 C 330.136 74.617 330.097 74.618 330.084 74.637 C 329.93 74.878 329.774 75.119 329.629 75.366 C 328.479 77.325 327.427 79.326 327.021 81.595 C 326.585 84.03 327.094 86.161 329.102 87.769 C 329.583 88.155 330.121 88.469 330.634 88.814 C 331.954 89.703 333.225 90.661 334.138 91.983 C 334.524 92.54 334.834 93.192 335.003 93.846 C 335.239 94.763 334.674 95.472 333.737 95.638 C 333.576 95.666 333.414 95.691 333.15 95.735 Z  M 332.844 59.946 C 332.946 58.369 332.93 56.774 333.173 55.219 C 333.83 51.008 336.505 48.691 340.785 48.523 C 341.7 48.488 342.633 48.496 343.537 48.626 C 346.117 48.995 347.928 50.425 348.992 52.801 C 349.768 54.536 350.061 56.382 350.163 58.259 C 350.231 59.508 350.308 60.768 350.221 62.013 C 350.022 64.875 350.994 67.31 352.719 69.515 C 353.9 71.023 355.112 72.51 356.232 74.064 C 357.875 76.346 359.155 78.82 359.785 81.587 C 360.255 83.654 360.254 85.718 359.632 87.76 C 359.552 88.023 359.586 88.167 359.844 88.298 C 360.567 88.665 361.047 89.255 361.276 90.028 C 361.483 90.721 361.605 91.443 361.853 92.12 C 362.051 92.66 362.358 93.166 362.658 93.662 C 363.061 94.33 363.582 94.938 363.91 95.638 C 364.361 96.599 364.12 97.487 363.283 98.146 C 362.754 98.561 362.149 98.887 361.557 99.215 C 360.939 99.559 360.292 99.855 359.66 100.176 C 358.516 100.755 357.525 101.521 356.684 102.5 C 355.654 103.699 354.405 104.61 352.881 105.093 C 350.231 105.933 347.978 104.893 346.878 102.357 C 346.822 102.229 346.636 102.09 346.497 102.076 C 345.164 101.933 343.822 101.859 342.494 101.681 C 340.754 101.449 339.066 101.742 337.371 102.048 C 336.764 102.158 336.148 102.225 335.54 102.332 C 335.409 102.355 335.242 102.435 335.18 102.54 C 334.112 104.387 332.388 104.869 330.447 104.686 C 329.381 104.586 328.252 104.381 327.31 103.907 C 325.236 102.863 323.05 102.441 320.785 102.206 C 320.043 102.129 319.292 101.959 318.589 101.708 C 317.56 101.342 317.06 100.557 317.118 99.461 C 317.149 98.866 317.264 98.258 317.451 97.693 C 317.691 96.966 317.728 96.252 317.623 95.508 C 317.529 94.836 317.424 94.161 317.407 93.485 C 317.379 92.303 317.945 91.428 318.984 90.889 C 319.476 90.634 320.01 90.452 320.535 90.266 C 321.153 90.046 321.645 89.681 322.038 89.155 C 322.453 88.599 322.902 88.07 323.321 87.517 C 323.403 87.409 323.464 87.242 323.449 87.112 C 323.145 84.424 323.867 81.935 324.929 79.518 C 326.265 76.482 328.117 73.77 330.204 71.212 C 332.346 68.588 333.274 65.579 333.104 62.214 C 333.066 61.46 333.015 60.707 332.969 59.954 C 332.927 59.952 332.886 59.949 332.844 59.946 Z " fill="rgb(30,30,30)"/><path d=" M 333.15 95.735 C 333.414 95.691 333.576 95.666 333.737 95.638 C 334.674 95.472 335.239 94.763 335.003 93.846 C 334.834 93.192 334.524 92.54 334.138 91.983 C 333.225 90.661 331.954 89.703 330.634 88.814 C 330.121 88.469 329.583 88.155 329.102 87.769 C 327.094 86.161 326.585 84.03 327.021 81.595 C 327.427 79.326 328.479 77.325 329.629 75.366 C 329.774 75.119 329.93 74.878 330.084 74.637 C 330.097 74.618 330.136 74.617 330.247 74.576 C 330.167 74.812 330.124 75.007 330.039 75.181 C 329.646 75.98 329.223 76.764 328.845 77.569 C 328.137 79.073 327.672 80.642 327.697 82.324 C 327.714 83.43 327.971 84.476 328.546 85.431 C 328.619 85.552 328.709 85.662 328.851 85.863 C 328.948 85.051 329.013 84.352 329.116 83.658 C 329.456 81.394 330.311 79.305 331.286 77.252 C 332.359 74.988 333.417 72.712 334.083 70.288 C 334.384 69.187 334.55 68.048 334.779 66.927 C 334.792 66.857 334.807 66.788 334.838 66.644 C 335.205 66.884 335.535 67.084 335.848 67.309 C 336.068 67.467 336.265 67.655 336.47 67.834 C 338.057 69.229 339.742 69.392 341.59 68.362 C 342.418 67.901 343.288 67.518 344.111 67.048 C 344.718 66.7 345.279 66.27 345.885 65.859 C 345.902 65.899 345.956 65.998 345.986 66.103 C 347.048 69.783 348.441 73.328 350.217 76.723 C 351.278 78.752 352.104 80.87 352.547 83.123 C 352.605 83.42 352.749 83.502 353.03 83.53 C 353.904 83.618 353.911 83.631 354.099 82.761 C 354.52 80.815 354.113 78.984 353.283 77.223 C 352.753 76.095 352.076 75.065 351.183 74.184 C 351.025 74.027 350.908 73.827 350.773 73.647 C 350.807 73.61 350.842 73.573 350.876 73.536 C 350.97 73.584 351.085 73.61 351.154 73.681 C 353.519 76.104 355.1 78.891 355.139 82.377 C 355.143 82.767 355.116 83.169 355.021 83.545 C 354.92 83.947 355.088 84.084 355.408 84.263 C 356.157 84.68 356.904 85.113 357.586 85.626 C 358.204 86.089 358.544 86.748 358.424 87.566 C 358.384 87.828 358.278 87.997 357.928 87.869 C 358.122 86.544 357.17 85.998 356.22 85.465 C 355.348 84.975 354.434 84.579 353.428 84.455 C 352.128 84.296 351.428 84.799 351.143 86.066 C 351.107 86.221 350.999 86.422 350.87 86.482 C 349.734 87.009 349.081 87.943 348.83 89.104 C 348.566 90.322 348.384 91.57 348.31 92.813 C 348.228 94.185 347.958 95.502 347.553 96.801 C 347.503 96.963 347.4 97.148 347.266 97.238 C 344.32 99.206 341.157 100.155 337.612 99.238 C 337.235 99.14 336.868 98.993 336.502 98.853 C 335.434 98.445 334.524 97.85 333.951 96.809 C 333.752 96.447 333.455 96.138 333.15 95.735 Z " fill="rgb(255,255,255)"/><path d=" M 330.884 104.029 C 329.635 103.983 328.426 103.724 327.343 103.147 C 325.404 102.113 323.323 101.721 321.176 101.514 C 320.548 101.453 319.916 101.356 319.304 101.202 C 318.126 100.906 317.694 100.228 317.875 99.023 C 317.932 98.637 318.004 98.242 318.145 97.881 C 318.477 97.033 318.477 96.178 318.335 95.298 C 318.242 94.718 318.164 94.132 318.137 93.547 C 318.093 92.566 318.572 91.872 319.443 91.46 C 319.837 91.274 320.255 91.135 320.671 90.998 C 321.502 90.725 322.166 90.24 322.676 89.525 C 323.008 89.059 323.35 88.595 323.73 88.168 C 324.603 87.188 325.744 87.013 326.802 87.792 C 327.371 88.21 327.845 88.787 328.277 89.355 C 328.63 89.818 328.873 90.369 329.137 90.894 C 330.215 93.031 331.52 95.012 333.054 96.854 C 333.647 97.566 334.169 98.37 334.563 99.208 C 335.547 101.305 334.453 103.397 332.183 103.874 C 331.759 103.964 331.317 103.979 330.884 104.029 Z " fill="rgb(255,255,255)"/><path d=" M 351.014 87.185 C 351.138 87.708 351.204 88.095 351.321 88.466 C 351.901 90.298 353.24 90.989 355.011 90.263 C 355.776 89.949 356.439 89.389 357.16 88.959 C 357.379 88.828 357.626 88.716 357.875 88.67 C 358.121 88.624 358.387 88.652 358.641 88.681 C 359.542 88.785 360.207 89.24 360.514 90.102 C 360.735 90.725 360.888 91.374 361.04 92.019 C 361.233 92.842 361.579 93.568 362.14 94.216 C 362.54 94.679 362.887 95.205 363.168 95.749 C 363.585 96.557 363.444 97.169 362.698 97.683 C 362.069 98.116 361.38 98.469 360.694 98.811 C 359.274 99.519 357.846 100.206 356.726 101.374 C 356.319 101.799 355.946 102.258 355.515 102.656 C 354.277 103.802 352.873 104.624 351.129 104.644 C 349.011 104.669 347.341 103.021 347.462 100.914 C 347.523 99.843 347.761 98.761 348.072 97.729 C 348.629 95.885 349.012 94.03 349.088 92.097 C 349.126 91.141 349.323 90.182 349.549 89.248 C 349.67 88.753 349.972 88.288 350.258 87.852 C 350.419 87.605 350.71 87.444 351.014 87.185 Z " fill="rgb(255,255,255)"/><path d=" M 337.461 62.209 C 337.944 62.437 338.189 62.105 338.481 61.966 C 338.109 61.773 337.803 61.851 337.461 62.209 Z  M 339.797 61.959 C 340.025 62.064 340.111 62.12 340.207 62.146 C 340.397 62.196 340.591 62.23 340.785 62.271 C 340.795 62.206 340.83 62.089 340.814 62.082 C 340.616 61.99 340.415 61.898 340.206 61.842 C 340.126 61.821 340.023 61.891 339.797 61.959 Z  M 334.846 64.294 C 334.783 64.324 334.722 64.354 334.66 64.385 C 334.748 64.568 334.791 64.8 334.931 64.927 C 335.396 65.353 335.871 65.777 336.388 66.136 C 337.426 66.856 338.588 67.143 339.826 66.826 C 341.471 66.406 342.933 65.611 344.199 64.473 C 344.343 64.344 344.439 64.163 344.559 64.006 C 344.527 63.968 344.494 63.93 344.462 63.893 C 344.346 63.951 344.205 63.985 344.117 64.072 C 342.934 65.267 341.51 66.052 339.912 66.524 C 338.929 66.814 337.948 66.725 337.073 66.193 C 336.436 65.805 335.866 65.303 335.283 64.831 C 335.107 64.689 334.989 64.475 334.846 64.294 Z  M 339.251 68.621 C 338.433 68.626 337.721 68.366 337.087 67.84 C 336.485 67.341 335.826 66.909 335.236 66.397 C 334.833 66.048 334.439 65.652 334.162 65.202 C 333.816 64.637 333.979 64.097 334.493 63.679 C 335.3 63.022 336.108 62.369 336.923 61.723 C 338.016 60.856 339.232 60.672 340.547 61.108 C 340.804 61.194 341.052 61.305 341.3 61.416 C 342.342 61.885 343.383 62.358 344.423 62.829 C 344.561 62.891 344.702 62.946 344.836 63.013 C 346.035 63.607 346.264 64.692 345.327 65.654 C 344.906 66.087 344.363 66.42 343.834 66.726 C 343.055 67.176 342.227 67.544 341.439 67.981 C 340.753 68.361 340.042 68.618 339.251 68.621 Z " fill="rgb(255,255,255)"/><path d=" M 343.627 62.068 C 344.328 61.211 344.342 60.31 343.995 59.384 C 343.831 58.945 343.549 58.569 343.028 58.542 C 342.486 58.515 342.134 58.865 341.969 59.318 C 341.777 59.844 341.695 60.41 341.555 60.999 C 341.201 60.886 340.798 60.774 340.41 60.621 C 340.316 60.585 340.223 60.42 340.216 60.309 C 340.134 59.032 340.432 57.874 341.403 56.978 C 342.352 56.103 343.631 56.103 344.607 56.944 C 346.027 58.168 346.315 60.889 345.166 62.371 C 345.09 62.469 344.878 62.551 344.768 62.517 C 344.395 62.404 344.04 62.236 343.627 62.068 Z " fill="rgb(255,255,255)"/><path d=" M 337.075 61.05 C 337.045 60.764 337.042 60.523 336.988 60.295 C 336.922 60.02 336.868 59.71 336.703 59.497 C 336.528 59.269 336.221 58.991 335.987 59.005 C 335.757 59.019 335.445 59.331 335.347 59.582 C 335.034 60.385 335.137 61.178 335.633 61.903 C 335.675 61.964 335.722 62.023 335.763 62.085 C 335.771 62.096 335.764 62.115 335.765 62.13 C 335.76 62.144 335.762 62.162 335.752 62.172 C 335.178 62.774 335.007 62.762 334.618 62.04 C 333.975 60.847 333.893 59.602 334.345 58.327 C 334.419 58.117 334.531 57.913 334.654 57.726 C 335.353 56.666 336.466 56.576 337.296 57.534 C 337.994 58.339 338.203 59.318 338.175 60.357 C 338.173 60.458 338.098 60.606 338.015 60.648 C 337.726 60.796 337.418 60.907 337.075 61.05 Z " fill="rgb(255,255,255)"/><path d=" M 334.846 64.294 C 334.989 64.475 335.107 64.689 335.283 64.831 C 335.866 65.303 336.436 65.805 337.073 66.193 C 337.948 66.725 338.929 66.814 339.912 66.524 C 341.51 66.052 342.934 65.267 344.117 64.072 C 344.205 63.985 344.346 63.951 344.462 63.893 C 344.494 63.93 344.527 63.968 344.559 64.006 C 344.439 64.163 344.343 64.344 344.199 64.473 C 342.933 65.611 341.471 66.406 339.826 66.826 C 338.588 67.143 337.426 66.856 336.388 66.136 C 335.871 65.777 335.396 65.353 334.931 64.927 C 334.791 64.8 334.748 64.568 334.66 64.385 C 334.722 64.354 334.783 64.324 334.846 64.294 Z " fill="rgb(30,30,30)"/><path d=" M 339.797 61.959 C 340.023 61.891 340.126 61.821 340.206 61.842 C 340.415 61.898 340.616 61.99 340.814 62.082 C 340.83 62.089 340.795 62.206 340.785 62.271 C 340.591 62.23 340.397 62.196 340.207 62.146 C 340.111 62.12 340.025 62.064 339.797 61.959 Z " fill="rgb(30,30,30)"/><path d=" M 337.461 62.209 C 337.803 61.851 338.109 61.773 338.481 61.966 C 338.189 62.105 337.944 62.437 337.461 62.209 Z " fill="rgb(30,30,30)"/><path d=" M 254.552 48.505 L 254.552 48.505 C 270.257 48.505 282.989 61.237 282.989 76.942 L 282.989 76.942 C 282.989 92.647 270.257 105.379 254.552 105.379 L 254.552 105.379 C 238.847 105.379 226.115 92.647 226.115 76.942 L 226.115 76.942 C 226.115 61.237 238.847 48.505 254.552 48.505 Z " fill="rgb(30,30,30)"/><path d=" M 265.688 87.653 C 264.034 87.37 262.442 87.15 261.092 86.383 C 261.073 86.367 261.889 83.32 261.925 83.265 C 264.097 84.003 267.153 85.037 269.214 84.089 C 270.338 83.527 270.891 82.488 270.706 81.289 C 270.496 79.941 269.562 79.164 267.001 78.206 C 264.142 77.138 262.468 75.825 261.783 74.118 C 261.446 73.278 261.335 72.209 261.486 71.275 C 261.907 68.679 263.93 66.872 267.035 66.32 C 267.934 66.16 269.857 66.159 270.803 66.317 C 272.167 66.545 273.731 67.061 273.731 67.283 C 273.731 67.364 272.933 70.182 272.892 70.244 C 271.543 69.71 270.031 69.329 268.751 69.32 C 266.941 69.298 264.977 70.373 265.323 72.271 C 265.569 73.461 266.327 74.042 269.122 75.177 C 271.181 76.014 272.168 76.592 273.015 77.451 C 274.191 78.626 274.563 80.004 274.572 81.37 C 274.575 82.508 274.468 83.038 274.062 83.917 C 273.076 86.05 271.071 87.287 268.046 87.628 C 267.48 87.691 266.147 87.705 265.69 87.653 L 265.688 87.653 Z  M 234.668 72.507 L 234.668 87.685 L 238.53 87.685 L 238.53 72.507 L 234.668 72.507 Z  M 236.599 66.201 C 235.457 66.201 234.533 67.126 234.533 68.268 C 234.533 69.409 235.457 70.334 236.599 70.334 C 237.74 70.334 238.666 69.409 238.666 68.268 L 238.666 68.268 C 238.666 67.126 237.74 66.201 236.599 66.201 Z  M 251.697 69.409 C 253.765 69.96 255.265 71.825 255.839 74.546 C 256.244 76.457 256.133 78.665 255.555 80.404 C 254.655 83.112 252.702 84.642 250.326 84.617 C 247.953 84.641 245.998 83.112 245.099 80.404 C 244.521 78.665 244.41 76.457 244.814 74.546 C 245.389 71.825 246.889 69.96 248.957 69.409 C 249.894 69.21 250.828 69.246 251.697 69.409 L 251.697 69.409 Z  M 250.326 66.201 C 248.733 66.222 247.361 66.534 246.012 67.206 C 242.569 68.921 240.581 72.533 240.581 77.084 C 240.581 81.645 242.537 85.15 245.992 86.789 C 246.925 87.232 247.86 87.473 249.281 87.642 C 250 87.671 250.672 87.722 251.373 87.642 C 252.793 87.473 253.729 87.232 254.661 86.789 C 258.117 85.15 260.072 81.645 260.072 77.084 C 260.072 72.533 258.084 68.921 254.642 67.206 C 253.293 66.534 251.921 66.222 250.326 66.201 L 250.326 66.201 Z " fill="rgb(255,255,255)"/></g></g><circle vector-effect="non-scaling-stroke" cx="127" cy="128.9421763754745" r="19" fill="rgb(216,243,255)"/><path d=" M 298.527 119.874 L 296.15 112.331 L 306.503 119.109 L 295.241 124.792 L 290.902 108.673 L 302.639 109.893 L 311.566 119.936 L 304.127 129.544 L 291.356 130.908 L 284.599 110.947 L 291.046 100.222 L 306.607 99.375" fill="none" vector-effect="non-scaling-stroke" stroke-width="1" stroke="rgb(189,204,255)" stroke-linejoin="miter" stroke-linecap="square" stroke-miterlimit="3"/><mask id="_mask_IHSbu57Y5RZ3Z3YqsvfZVfzgq8YzJFPX"><path d=" M 397.97 24.009 C 394.691 24.061 391.987 21.441 391.935 18.161 C 391.883 14.882 394.503 12.178 397.782 12.126 C 401.061 12.074 403.765 14.694 403.817 17.973 C 403.869 21.252 401.249 23.957 397.97 24.009 Z " fill="white" stroke="none"/></mask><path d=" M 397.97 24.009 C 394.691 24.061 391.987 21.441 391.935 18.161 C 391.883 14.882 394.503 12.178 397.782 12.126 C 401.061 12.074 403.765 14.694 403.817 17.973 C 403.869 21.252 401.249 23.957 397.97 24.009 Z " fill="none"/><path d=" M 397.97 24.009 C 394.691 24.061 391.987 21.441 391.935 18.161 C 391.883 14.882 394.503 12.178 397.782 12.126 C 401.061 12.074 403.765 14.694 403.817 17.973 C 403.869 21.252 401.249 23.957 397.97 24.009 Z " fill="none" mask="url(#_mask_IHSbu57Y5RZ3Z3YqsvfZVfzgq8YzJFPX)" vector-effect="non-scaling-stroke" stroke-width="4" stroke="rgb(50,153,251)" stroke-linejoin="miter" stroke-linecap="square" stroke-miterlimit="3"/><mask id="_mask_XFaOx9Cz4b3E4dqBCDiwyfVSPm9Z59Xf"><path d=" M 411.929 39.558 C 407.578 39.627 403.99 36.151 403.921 31.8 C 403.852 27.449 407.328 23.86 411.679 23.791 C 416.03 23.722 419.619 27.199 419.688 31.55 C 419.757 35.901 416.28 39.489 411.929 39.558 Z " fill="white" stroke="none"/></mask><path d=" M 411.929 39.558 C 407.578 39.627 403.99 36.151 403.921 31.8 C 403.852 27.449 407.328 23.86 411.679 23.791 C 416.03 23.722 419.619 27.199 419.688 31.55 C 419.757 35.901 416.28 39.489 411.929 39.558 Z " fill="none"/><path d=" M 411.929 39.558 C 407.578 39.627 403.99 36.151 403.921 31.8 C 403.852 27.449 407.328 23.86 411.679 23.791 C 416.03 23.722 419.619 27.199 419.688 31.55 C 419.757 35.901 416.28 39.489 411.929 39.558 Z " fill="none" mask="url(#_mask_XFaOx9Cz4b3E4dqBCDiwyfVSPm9Z59Xf)" vector-effect="non-scaling-stroke" stroke-width="4" stroke="rgb(50,153,251)" stroke-linejoin="miter" stroke-linecap="square" stroke-miterlimit="3"/><rect x="31" y="12.058" width="51.872" height="32.231" transform="matrix(1,0,0,1,0,0)" fill="rgb(255,255,255)"/><clipPath id="_clipPath_f2u5KFuT2yWerdUZE2iQVspWXQLDZKKb"><rect x="31" y="12.058" width="51.872" height="32.231" transform="matrix(1,0,0,1,0,0)" fill="rgb(255,255,255)"/></clipPath><g clip-path="url(#_clipPath_f2u5KFuT2yWerdUZE2iQVspWXQLDZKKb)"><rect x="89.711" y="-9.757" width="1.51" height="63.409" transform="matrix(0.864,-0.503,0.503,0.864,1.25,48.525)" fill="rgb(235,235,235)"/><rect x="86.938" y="-8.997" width="1.51" height="63.409" transform="matrix(0.864,-0.503,0.503,0.864,0.491,47.232)" fill="rgb(235,235,235)"/><rect x="84.165" y="-8.237" width="1.51" height="63.409" transform="matrix(0.864,-0.503,0.503,0.864,-0.269,45.939)" fill="rgb(235,235,235)"/><rect x="81.392" y="-7.477" width="1.51" height="63.409" transform="matrix(0.864,-0.503,0.503,0.864,-1.029,44.647)" fill="rgb(235,235,235)"/><rect x="78.618" y="-6.717" width="1.51" height="63.409" transform="matrix(0.864,-0.503,0.503,0.864,-1.788,43.354)" fill="rgb(235,235,235)"/><rect x="75.845" y="-5.957" width="1.51" height="63.409" transform="matrix(0.864,-0.503,0.503,0.864,-2.548,42.061)" fill="rgb(235,235,235)"/><rect x="73.072" y="-5.197" width="1.51" height="63.409" transform="matrix(0.864,-0.503,0.503,0.864,-3.307,40.768)" fill="rgb(235,235,235)"/><rect x="70.299" y="-4.437" width="1.51" height="63.409" transform="matrix(0.864,-0.503,0.503,0.864,-4.067,39.476)" fill="rgb(235,235,235)"/><rect x="67.526" y="-3.677" width="1.51" height="63.409" transform="matrix(0.864,-0.503,0.503,0.864,-4.827,38.183)" fill="rgb(235,235,235)"/><rect x="64.753" y="-2.917" width="1.51" height="63.409" transform="matrix(0.864,-0.503,0.503,0.864,-5.586,36.89)" fill="rgb(235,235,235)"/><rect x="61.98" y="-2.157" width="1.51" height="63.409" transform="matrix(0.864,-0.503,0.503,0.864,-6.346,35.598)" fill="rgb(235,235,235)"/><rect x="59.206" y="-1.397" width="1.51" height="63.409" transform="matrix(0.864,-0.503,0.503,0.864,-7.105,34.305)" fill="rgb(235,235,235)"/><rect x="56.433" y="-0.637" width="1.51" height="63.409" transform="matrix(0.864,-0.503,0.503,0.864,-7.865,33.012)" fill="rgb(235,235,235)"/><rect x="53.66" y="0.123" width="1.51" height="63.409" transform="matrix(0.864,-0.503,0.503,0.864,-8.625,31.72)" fill="rgb(235,235,235)"/><rect x="50.887" y="0.883" width="1.51" height="63.409" transform="matrix(0.864,-0.503,0.503,0.864,-9.384,30.427)" fill="rgb(235,235,235)"/><rect x="48.114" y="1.643" width="1.51" height="63.409" transform="matrix(0.864,-0.503,0.503,0.864,-10.144,29.134)" fill="rgb(235,235,235)"/><rect x="45.341" y="2.403" width="1.51" height="63.409" transform="matrix(0.864,-0.503,0.503,0.864,-10.903,27.842)" fill="rgb(235,235,235)"/><rect x="42.567" y="3.163" width="1.51" height="63.409" transform="matrix(0.864,-0.503,0.503,0.864,-11.663,26.549)" fill="rgb(235,235,235)"/><rect x="39.794" y="3.923" width="1.51" height="63.409" transform="matrix(0.864,-0.503,0.503,0.864,-12.423,25.256)" fill="rgb(235,235,235)"/><rect x="37.021" y="4.683" width="1.51" height="63.409" transform="matrix(0.864,-0.503,0.503,0.864,-13.182,23.963)" fill="rgb(235,235,235)"/><rect x="34.248" y="5.443" width="1.51" height="63.409" transform="matrix(0.864,-0.503,0.503,0.864,-13.942,22.671)" fill="rgb(235,235,235)"/><rect x="31.475" y="6.203" width="1.51" height="63.409" transform="matrix(0.864,-0.503,0.503,0.864,-14.701,21.378)" fill="rgb(235,235,235)"/><rect x="28.702" y="6.963" width="1.51" height="63.409" transform="matrix(0.864,-0.503,0.503,0.864,-15.461,20.085)" fill="rgb(235,235,235)"/></g></svg>