<?xml version="1.0" encoding="UTF-8" standalone="no"?>
<!-- Generator: Gravit.io -->
<svg xmlns="http://www.w3.org/2000/svg" xmlns:xlink="http://www.w3.org/1999/xlink" style="isolation:isolate" viewBox="0 0 256 50" width="256pt" height="50pt"><line x1="5.5" y1="7" x2="250.5" y2="7" vector-effect="non-scaling-stroke" stroke-width="0.5" stroke="rgb(209,209,209)" stroke-linejoin="miter" stroke-linecap="square" stroke-miterlimit="3"/><line x1="128" y1="7" x2="128" y2="50" vector-effect="non-scaling-stroke" stroke-width="0.5" stroke="rgb(209,209,209)" stroke-linejoin="miter" stroke-linecap="square" stroke-miterlimit="3"/><g><path d="M 123.125 27.88 L 132.875 27.88 C 133.496 27.88 134 28.384 134 29.005 L 134 29.005 C 134 29.626 133.496 30.13 132.875 30.13 L 123.125 30.13 C 122.504 30.13 122 29.626 122 29.005 L 122 29.005 C 122 28.384 122.504 27.88 123.125 27.88 Z" style="stroke:none;fill:#D1D1D1;stroke-miterlimit:10;"/><path d="M 129.13 24.125 L 129.13 33.875 C 129.13 34.496 128.626 35 128.005 35 L 128.005 35 C 127.384 35 126.88 34.496 126.88 33.875 L 126.88 24.125 C 126.88 23.504 127.384 23 128.005 23 L 128.005 23 C 128.626 23 129.13 23.504 129.13 24.125 Z" style="stroke:none;fill:#D1D1D1;stroke-miterlimit:10;"/></g></svg>