<?xml version="1.0" encoding="UTF-8" standalone="no"?>
<!-- Generator: Gravit.io -->
<svg xmlns="http://www.w3.org/2000/svg" xmlns:xlink="http://www.w3.org/1999/xlink" style="isolation:isolate" viewBox="0 0 256 256" width="256pt" height="256pt"><g><g opacity="0.1"><linearGradient id="_lgradient_0" x1="1" y1="-8.881784197001252e-16" x2="-0.12187500000000018" y2="1.4562500000000014" gradientTransform="matrix(0,41.252,41.252,0,212.141,20.319)" gradientUnits="userSpaceOnUse"><stop offset="0%" stop-opacity="1" style="stop-color:rgb(71,254,136)"/><stop offset="100%" stop-opacity="1" style="stop-color:rgb(45,220,182)"/></linearGradient><path d=" M 253.392 20.319 C 230.625 20.319 212.141 38.804 212.141 61.571 L 253.392 61.571 L 253.392 20.319 Z " fill="url(#_lgradient_0)"/></g><linearGradient id="_lgradient_1" x1="0.04062499999999858" y1="0.9406249999999997" x2="0.9781249999999982" y2="0.059374999999999845" gradientTransform="matrix(0,-41.252,-41.252,0,203.891,102.822)" gradientUnits="userSpaceOnUse"><stop offset="0%" stop-opacity="1" style="stop-color:rgb(255,108,50)"/><stop offset="100%" stop-opacity="1" style="stop-color:rgb(253,55,137)"/></linearGradient><path d=" M 162.639 102.822 C 185.406 102.822 203.891 84.338 203.891 61.571 L 162.639 61.571 L 162.639 102.822 Z " fill="url(#_lgradient_1)"/><path d=" M 128.28 159.679 L 127.72 121.072 C 127.64 115.553 132.056 111.073 137.575 111.073 L 187.703 111.073 C 193.222 111.073 194.282 113.967 190.068 117.531 L 136.059 163.22 C 131.846 166.784 128.36 165.198 128.28 159.679 Z " fill="rgb(190,0,255)"/><path d=" M 252.543 102.822 L 253.392 161.428 L 183.265 161.428 L 252.543 102.822 Z " fill="rgb(255,37,129)"/><g opacity="0.22"><path d=" M 110.519 112.943 L 111.075 151.308 L 65.167 151.308 L 110.519 112.943 Z " fill="rgb(255,37,129)"/></g><linearGradient id="_lgradient_2" x1="0" y1="0.5" x2="1" y2="0.5" gradientTransform="matrix(-70.128,0,0,58.606,169.676,177.075)" gradientUnits="userSpaceOnUse"><stop offset="0%" stop-opacity="1" style="stop-color:rgb(72,254,136)"/><stop offset="100%" stop-opacity="1" style="stop-color:rgb(46,220,181)"/></linearGradient><path d=" M 168.827 235.681 L 169.676 177.075 L 99.549 177.075 L 168.827 235.681 Z " fill="url(#_lgradient_2)"/><g opacity="0.42"><path d=" M 55.725 199.542 L 56.376 154.608 L 2.608 154.608 L 55.725 199.542 Z " fill="rgb(190,0,255)"/></g><g opacity="0.25"><linearGradient id="_lgradient_3" x1="0" y1="0.5" x2="1" y2="0.5" gradientTransform="matrix(70.128,0,0,-58.606,170.889,235.681)" gradientUnits="userSpaceOnUse"><stop offset="0%" stop-opacity="1" style="stop-color:rgb(255,109,50)"/><stop offset="100%" stop-opacity="1" style="stop-color:rgb(253,56,135)"/></linearGradient><path d=" M 171.739 177.075 L 170.889 235.681 L 241.017 235.681 L 171.739 177.075 Z " fill="url(#_lgradient_3)"/></g><path d=" M 57.958 154.608 L 57.306 199.542 L 111.075 199.542 L 57.958 154.608 Z " fill="rgb(190,0,255)"/><circle vector-effect="non-scaling-stroke" cx="121.5752420571993" cy="80" r="6" fill="rgb(69,250,142)"/><circle vector-effect="non-scaling-stroke" cx="56.37610195998758" cy="52.50000000000017" r="4.4999999999998295" fill="rgb(255,100,63)"/><circle vector-effect="non-scaling-stroke" cx="92.62092356673338" cy="228.49999999999983" r="4.4999999999998295" fill="rgb(235,235,235)"/><circle vector-effect="non-scaling-stroke" cx="19.49999999999983" cy="95.49999999999983" r="2.5000000000000036" fill="rgb(190,0,255)"/><circle vector-effect="non-scaling-stroke" cx="113.0752420571993" cy="25.5" r="2.5" fill="rgb(253,62,125)"/></g></svg>