<?xml version="1.0" encoding="UTF-8" standalone="no"?><!-- Generator: Gravit.io --><svg xmlns="http://www.w3.org/2000/svg" xmlns:xlink="http://www.w3.org/1999/xlink" style="isolation:isolate" viewBox="1 1 62 62" width="62pt" height="62pt"><g><linearGradient id="_lgradient_18" x1="0.7631673593350355" y1="0.8235294117647055" x2="0.47885363384483914" y2="0.2745098039215669" gradientTransform="matrix(54.706,0,0,54.706,4.647,4.647)" gradientUnits="userSpaceOnUse"><stop offset="0%" stop-opacity="1" style="stop-color:rgb(253,126,39)"/><stop offset="100%" stop-opacity="1" style="stop-color:rgb(253,154,97)"/></linearGradient><circle vector-effect="non-scaling-stroke" cx="31.99999999999996" cy="32.00000000000006" r="27.352941176470694" fill="url(#_lgradient_18)"/><path d=" M 32 1 C 49.121 1 63 14.879 63 32 C 63 49.121 49.121 63 32 63 C 14.879 63 1 49.121 1 32 C 1 14.879 14.879 1 32 1 Z  M 40.259 28.071 C 40.108 26.846 39.732 25.885 39.063 25.033 C 38.195 23.936 37.086 23.279 35.443 22.889 C 34.373 22.629 33.94 22.659 33.553 23.013 C 33.192 23.344 33.122 24.008 33.397 24.439 C 33.591 24.751 33.815 24.863 34.437 24.985 C 35.265 25.137 35.837 25.335 36.358 25.632 C 37.462 26.27 37.977 27.269 38.032 28.885 C 38.058 29.644 38.124 29.877 38.389 30.146 C 38.88 30.639 39.754 30.543 40.125 29.954 C 40.261 29.732 40.282 29.635 40.296 29.12 C 40.306 28.801 40.292 28.326 40.259 28.071 Z  M 40.274 20.556 C 42.901 22.68 44.369 25.7 44.587 29.452 C 44.679 30.931 44.557 31.412 44.035 31.686 C 43.565 31.94 43.031 31.856 42.666 31.474 C 42.423 31.225 42.33 30.885 42.334 30.282 C 42.345 28.616 41.961 26.756 41.337 25.465 C 40.615 23.963 39.498 22.684 38.094 21.749 C 36.863 20.928 35.235 20.374 33.657 20.236 C 32.633 20.146 32.267 19.972 32.071 19.482 C 31.949 19.188 31.981 18.68 32.124 18.453 C 32.259 18.243 32.561 18.012 32.776 17.95 C 33.003 17.884 34.325 18 35.044 18.142 C 37.005 18.542 38.794 19.362 40.274 20.556 Z  M 49.376 43.904 C 49.302 43.69 49.131 43.359 49.009 43.169 C 48.238 42.005 44.096 38.763 42.028 37.703 C 40.847 37.097 39.972 36.895 39.324 37.085 C 38.626 37.281 38.259 37.605 37.09 39.058 C 36.619 39.64 36.136 40.185 36.008 40.271 C 35.689 40.491 35.065 40.669 34.625 40.669 C 33.603 40.663 31.749 40.001 30.324 39.131 C 29.216 38.457 27.797 37.25 26.708 36.055 C 25.423 34.652 24.548 33.414 23.857 32.017 C 22.963 30.222 22.737 29.125 23.11 28.322 C 23.202 28.12 23.325 27.906 23.379 27.838 C 23.435 27.777 24.01 27.305 24.646 26.79 C 25.894 25.798 26.096 25.571 26.328 24.891 C 26.622 24.027 26.543 23.144 26.09 22.256 C 25.741 21.582 24.83 20.111 24.169 19.162 C 23.294 17.912 21.116 15.24 20.681 14.878 C 19.898 14.241 18.895 14.131 17.787 14.56 C 16.619 15.013 14.429 16.778 13.492 18.01 C 12.648 19.125 12.324 19.915 12.275 20.957 C 12.232 21.815 12.306 22.17 12.758 23.267 C 16.301 31.87 21.587 38.739 28.849 44.192 C 32.642 47.042 36.577 49.211 40.657 50.694 C 43.037 51.558 44.071 51.601 45.289 50.89 C 45.803 50.583 47.075 49.278 47.785 48.328 C 48.96 46.748 49.394 46.018 49.517 45.436 C 49.602 45.038 49.535 44.346 49.376 43.904 Z  M 47.811 24.509 C 48.557 26.45 48.914 28.192 48.993 30.314 C 49.005 30.734 48.999 31.502 48.972 32.022 C 48.915 33.02 48.861 33.218 48.574 33.482 C 48.112 33.916 47.212 33.812 46.871 33.29 C 46.693 33.01 46.668 32.805 46.702 31.639 C 46.801 28.191 46.104 25.491 44.424 22.792 C 42.417 19.553 39.414 17.371 35.509 16.304 C 34.513 16.032 33.674 15.867 32.369 15.691 C 31.519 15.58 31.333 15.533 31.123 15.403 C 30.489 14.997 30.481 13.969 31.113 13.557 C 31.439 13.34 31.679 13.33 32.742 13.466 C 35.858 13.856 38.639 14.782 40.925 16.181 C 42.562 17.185 43.595 18.088 44.925 19.668 C 46.331 21.353 47.076 22.6 47.811 24.509 Z " fill-rule="evenodd" fill="rgb(253,241,233)"/></g></svg>